<?xml version="1.0" standalone="no"?>
<!DOCTYPE svg PUBLIC "-//W3C//DTD SVG 20010904//EN"
 "http://www.w3.org/TR/2001/REC-SVG-20010904/DTD/svg10.dtd">
<svg version="1.0" xmlns="http://www.w3.org/2000/svg"
 width="512.000000pt" height="512.000000pt" viewBox="0 0 512.000000 512.000000"
 preserveAspectRatio="xMidYMid meet">

<g transform="translate(0.000000,512.000000) scale(0.100000,-0.100000)"
fill="#000000" stroke="none">
<path d="M0 2560 l0 -2560 1115 0 1116 0 5 29 c3 16 20 44 38 62 17 19 31 39
32 44 2 24 25 66 39 71 8 4 15 12 15 19 0 7 5 15 11 17 5 2 11 12 13 22 3 23
37 38 57 25 25 -15 38 -10 45 19 4 15 15 44 25 64 11 21 19 50 19 65 0 16 9
36 20 46 11 9 20 23 20 31 0 21 26 27 55 12 l26 -14 -27 -6 c-14 -4 -24 -9
-21 -12 3 -3 -3 -26 -14 -51 -10 -24 -19 -46 -19 -48 0 -2 13 -3 30 -2 16 1
30 5 30 8 0 4 22 31 50 60 38 42 52 51 59 40 6 -9 31 -14 74 -15 40 -1 63 -5
59 -11 -19 -33 -85 -126 -93 -131 -12 -7 -11 -24 2 -24 5 0 8 4 5 9 -3 5 4 16
17 24 12 8 47 38 77 67 51 49 106 90 122 90 10 0 28 -60 28 -95 0 -38 12 -45
58 -33 37 10 39 21 13 65 -52 85 -42 158 27 190 45 22 51 50 27 123 -20 61
-39 79 -66 62 -26 -16 -211 -34 -223 -22 -19 19 13 28 102 31 34 2 56 7 59 15
4 11 27 13 96 11 50 -2 103 1 118 6 21 8 30 7 44 -6 9 -9 20 -17 24 -17 11 0
46 27 47 37 2 17 18 48 33 66 15 17 23 24 80 76 29 26 89 54 150 71 26 7 66
35 118 82 43 39 100 89 127 110 82 66 111 112 172 284 77 216 94 274 80 274
-19 0 -52 32 -60 58 -4 12 -11 20 -15 17 -5 -2 -1 11 8 31 8 19 17 29 20 22 2
-7 26 -36 54 -65 l50 -51 13 -104 c8 -57 19 -143 24 -193 5 -49 13 -100 16
-112 3 -13 35 -41 72 -65 86 -55 208 -153 297 -238 47 -44 119 -95 220 -154
83 -49 185 -113 228 -143 l77 -53 0 2165 0 2165 -2560 0 -2560 0 0 -2560z
m3471 1902 c-7 -2 -18 1 -23 6 -8 8 -4 9 13 5 13 -4 18 -8 10 -11z m64 0 c-3
-3 -11 0 -18 7 -9 10 -8 11 6 5 10 -3 15 -9 12 -12z m134 -54 c13 -10 21 -18
18 -18 -8 0 -77 41 -77 46 0 7 35 -10 59 -28z m-272 6 c-3 -3 -12 -4 -19 -1
-8 3 -5 6 6 6 11 1 17 -2 13 -5z m126 -148 c15 -1 30 -6 34 -9 3 -4 18 -7 32
-7 30 0 107 -36 134 -63 10 -10 25 -16 32 -13 8 3 24 -8 37 -25 24 -31 101
-89 119 -89 6 0 8 -4 5 -9 -3 -5 9 -20 26 -34 17 -15 32 -38 34 -52 4 -39 26
-83 39 -79 7 3 12 -1 13 -8 5 -44 16 -78 24 -78 5 0 6 5 2 12 -4 7 -3 8 4 4 7
-4 12 -20 12 -37 0 -18 5 -29 14 -29 19 0 50 -68 48 -103 -2 -16 6 -40 17 -55
11 -16 23 -61 30 -112 15 -109 20 -270 9 -270 -5 0 -5 -7 0 -15 8 -16 -1 -141
-12 -152 -9 -10 -29 20 -93 142 l-58 110 -3 -46 c-2 -37 2 -55 23 -84 14 -21
24 -39 22 -41 -1 -1 -21 0 -45 3 -32 4 -42 10 -42 24 0 10 5 21 10 24 6 4 8
16 4 28 -4 12 -6 38 -5 59 2 36 1 36 -50 47 -93 20 -233 41 -275 41 -27 0 -51
7 -68 21 -14 11 -31 17 -38 13 -19 -12 -58 -14 -58 -3 0 6 6 7 13 3 6 -4 9 -4
5 0 -3 4 -52 9 -107 11 -86 2 -103 0 -110 -14 -9 -15 -10 -15 -16 1 -5 12 -16
15 -40 13 -22 -2 -36 2 -39 12 -4 9 -2 11 6 7 7 -4 8 -3 4 4 -4 7 -16 12 -26
12 -23 0 -35 16 -18 23 7 3 4 6 -7 6 -15 1 -17 3 -6 10 11 7 9 13 -10 32 -13
13 -25 27 -25 32 -1 4 -2 12 -3 17 -1 7 -6 6 -15 -2 -14 -13 -15 -32 -3 -44 4
-4 7 -15 7 -24 0 -10 7 -23 15 -30 8 -7 13 -15 11 -19 -3 -4 -1 -13 5 -21 5
-8 9 -10 9 -4 0 6 7 11 16 11 14 0 14 -2 -2 -14 -10 -7 -24 -13 -32 -13 -10 0
-12 -8 -7 -32 4 -18 12 -36 17 -39 12 -8 -42 -19 -91 -19 -40 0 -40 -1 -44 85
-1 22 -7 45 -13 50 -18 16 -23 65 -8 80 11 11 11 15 -1 25 -11 9 -15 10 -15 1
0 -7 -5 -9 -11 -6 -6 4 -8 13 -5 21 3 8 0 11 -10 7 -11 -4 -15 0 -12 13 2 11
8 22 13 26 6 5 5 8 -2 8 -7 0 -13 7 -13 16 0 13 3 14 15 4 8 -6 20 -8 27 -4
10 6 10 4 0 -8 -17 -21 3 -67 21 -49 7 7 7 14 -2 25 -9 11 -9 16 0 22 9 5 7
11 -6 20 -14 10 -19 28 -20 71 0 33 -5 56 -11 53 -5 -3 -8 -8 -6 -12 1 -5 -2
-8 -8 -8 -5 0 -10 -5 -10 -11 0 -6 7 -8 16 -5 9 3 12 2 9 -5 -4 -6 -13 -8 -21
-5 -8 3 -14 1 -14 -4 0 -6 -9 -10 -21 -10 -11 0 -17 -5 -14 -10 4 -6 11 -8 16
-5 5 4 9 -6 9 -21 0 -31 -31 -124 -42 -124 -9 0 -5 36 4 46 4 3 4 12 1 20 -3
8 0 21 7 29 6 8 9 19 5 25 -8 14 -35 13 -35 -2 0 -6 -3 -8 -6 -5 -10 10 -12
87 -3 81 5 -3 9 -2 9 3 0 4 11 21 25 37 27 31 31 46 14 46 -5 0 -7 5 -3 11 5
8 9 8 14 -1 5 -7 20 -9 44 -5 33 7 35 9 19 20 -11 9 -22 10 -27 4 -19 -17 -26
-9 -22 25 4 25 0 36 -10 40 -19 7 -34 -1 -34 -17 0 -7 4 -6 11 3 9 12 10 12 5
-4 -4 -11 -1 -23 6 -27 7 -4 9 -11 6 -15 -10 -10 -38 22 -38 43 0 10 10 27 23
38 19 17 19 20 6 23 -19 4 -32 39 -17 48 5 3 7 13 3 22 -3 8 0 19 7 24 10 6
10 10 -2 18 -11 7 -11 10 -2 10 7 0 10 5 7 10 -3 6 -2 10 2 10 5 0 18 7 29 16
18 15 18 15 -8 11 -16 -2 -28 0 -28 4 0 5 7 9 15 9 9 0 26 11 39 25 16 17 52
32 120 50 54 14 104 24 111 21 7 -2 17 0 22 5 5 5 26 10 46 11 20 1 37 5 37 9
0 4 42 6 94 5 52 0 92 3 89 7 -2 4 6 5 19 2 12 -3 35 -7 51 -9z m-681 -292
c-9 -16 -10 -14 -9 8 1 15 6 23 11 18 4 -4 4 -16 -2 -26z m8 -43 c-6 -12 -15
-21 -21 -21 -6 0 -3 7 5 16 9 8 16 23 17 32 0 10 3 12 5 5 3 -7 0 -21 -6 -32z
m90 -235 c0 -3 -4 -8 -10 -11 -5 -3 -10 -1 -10 4 0 6 5 11 10 11 6 0 10 -2 10
-4z m-60 -40 c0 -3 -4 -8 -10 -11 -5 -3 -10 -1 -10 4 0 6 5 11 10 11 6 0 10
-2 10 -4z m-30 -74 c3 -2 -7 -1 -23 3 -20 6 -27 4 -27 -8 0 -19 27 -30 33 -14
2 7 4 -2 5 -20 0 -17 -5 -36 -12 -42 -9 -8 -13 -6 -13 7 0 9 4 20 9 23 5 3 3
9 -6 12 -11 4 -16 1 -16 -10 0 -9 -3 -13 -7 -9 -11 11 -12 66 -1 66 5 0 6 10
2 23 -6 22 -6 22 22 -3 16 -14 31 -26 34 -28z m70 -32 c0 -5 -4 -10 -10 -10
-5 0 -10 5 -10 10 0 6 5 10 10 10 6 0 10 -4 10 -10z m30 -20 c0 -5 -4 -10 -10
-10 -5 0 -10 5 -10 10 0 6 5 10 10 10 6 0 10 -4 10 -10z m-40 -27 c0 -25 -1
-26 -16 -11 -9 9 -13 21 -10 27 13 20 26 11 26 -16z m231 -11 c-5 -2 -6 -13
-3 -25 6 -28 -1 -21 -20 19 -15 30 -15 31 8 20 13 -6 19 -12 15 -14z m726
-207 c62 -18 83 -44 83 -102 l0 -43 -40 0 c-22 0 -40 5 -40 11 0 6 -8 8 -20 4
-11 -4 -42 5 -75 20 -30 15 -67 26 -83 25 -15 -1 -31 -1 -37 0 -5 1 -14 3 -20
4 -25 3 -75 32 -75 43 0 7 3 12 8 11 12 -2 42 14 38 21 -3 4 10 8 27 9 18 2
33 7 35 12 5 13 137 3 199 -15z m-682 -25 c-3 -5 0 -20 7 -32 6 -13 11 -34 9
-46 -4 -31 58 -124 120 -182 68 -64 110 -95 95 -72 -10 16 -7 15 43 -9 46 -22
61 -16 61 24 0 18 -36 38 -56 30 -6 -2 -11 3 -11 11 0 8 3 15 6 14 22 -2 74 5
64 8 -7 3 -9 12 -6 20 3 9 22 14 57 15 38 0 46 3 31 9 l-20 9 20 2 c11 1 30 3
42 4 12 1 27 -2 35 -6 8 -6 1 -9 -21 -9 -26 0 -32 -3 -24 -11 8 -8 23 -9 50
-2 22 5 67 9 101 7 41 -2 64 2 69 10 12 20 83 34 122 23 23 -6 42 -5 56 3 40
21 105 -27 105 -77 0 -11 6 -28 14 -38 13 -18 16 -19 33 -3 30 26 80 32 109
13 40 -26 54 -74 56 -188 1 -84 -3 -119 -26 -197 -51 -179 -88 -285 -111 -325
-33 -57 -81 -116 -89 -108 -3 4 1 14 9 22 8 9 15 40 17 69 2 28 6 52 11 52 12
0 8 21 -8 37 -9 8 -13 18 -10 21 3 4 11 0 16 -8 8 -11 9 -5 5 23 -3 25 -1 35
6 31 7 -4 8 2 3 17 -4 13 -12 26 -16 27 -5 2 -6 9 -3 14 5 7 2 8 -6 3 -8 -5
-10 -20 -7 -41 3 -19 1 -34 -4 -34 -5 0 -9 -6 -8 -12 3 -27 -2 -36 -18 -34
-12 0 -19 -7 -21 -21 -2 -14 -10 -23 -20 -23 -15 0 -15 2 -2 10 12 8 10 10 -9
10 -20 0 -22 -3 -16 -27 6 -26 5 -27 -8 -9 -13 18 -14 18 -22 -10 -14 -50 -14
-53 6 -76 17 -21 18 -22 19 -4 0 11 3 17 6 13 11 -11 -7 -45 -23 -43 -12 1
-20 -11 -26 -36 -5 -21 -13 -38 -17 -38 -5 0 -14 -16 -20 -36 -8 -24 -15 -32
-20 -24 -9 15 -18 1 -15 -22 2 -9 -3 -22 -11 -29 -8 -6 -14 -17 -14 -24 0 -6
-9 -22 -20 -35 -13 -15 -20 -18 -20 -9 0 11 -2 11 -11 -1 -14 -20 -5 23 16 73
15 37 40 53 29 20 -5 -15 -4 -15 5 -3 7 11 5 20 -7 34 -9 11 -12 17 -7 14 6
-4 10 11 11 36 1 22 -1 31 -3 19 -2 -13 -8 -23 -13 -23 -4 0 -11 -11 -14 -25
-5 -19 -13 -25 -32 -25 -23 0 -25 -2 -14 -15 11 -13 10 -14 -4 -9 -9 3 -16 9
-16 14 0 11 40 44 41 34 1 -15 18 29 18 49 1 15 -1 16 -13 5 -9 -8 -10 -15 -4
-19 6 -4 1 -12 -12 -19 -20 -11 -22 -10 -17 3 4 11 2 14 -9 10 -7 -3 -14 -17
-15 -32 -1 -24 -2 -24 -7 -4 -7 21 -7 21 -29 3 -13 -10 -23 -25 -23 -34 0 -8
-4 -18 -10 -21 -5 -3 -10 -1 -10 5 0 6 -10 2 -22 -10 -12 -11 -26 -20 -30 -20
-5 0 -7 -3 -5 -7 3 -5 1 -17 -4 -28 -7 -18 -8 -18 -9 5 -1 22 -3 21 -20 -14
-11 -22 -20 -53 -19 -70 0 -17 3 -25 6 -18 8 20 43 14 43 -8 0 -11 -4 -20 -10
-20 -5 0 -10 6 -10 13 0 8 -3 7 -9 -3 -6 -8 -7 -18 -4 -24 4 -5 -1 -7 -10 -3
-9 3 -18 0 -21 -9 -3 -9 -9 -13 -14 -10 -4 2 -9 -7 -10 -22 -1 -15 -7 -28 -12
-30 -6 -2 -10 -10 -10 -18 0 -8 -6 -14 -14 -14 -8 0 -16 -10 -18 -22 -2 -13
-9 -22 -15 -21 -7 2 -10 -4 -7 -12 4 -8 1 -15 -5 -15 -6 0 -11 -8 -11 -17 0
-15 -2 -16 -10 -3 -8 13 -10 12 -10 -2 0 -10 -4 -18 -10 -18 -5 0 -16 -12 -25
-27 -15 -27 -16 -27 -10 -3 6 24 5 24 -7 5 -14 -21 -48 -33 -48 -16 0 10 -19
9 -36 -2 -7 -4 -15 0 -18 9 -4 9 -9 14 -13 11 -3 -4 -15 -2 -26 4 -14 8 -18 8
-13 0 4 -6 2 -11 -4 -11 -6 0 -13 7 -16 15 -5 13 -8 12 -22 -1 -14 -15 -17
-15 -28 1 -7 10 -11 32 -8 49 l4 31 -10 -29 c-5 -16 -6 -34 -3 -39 3 -6 1 -7
-6 -3 -7 5 -9 16 -5 28 4 15 3 18 -6 13 -9 -5 -11 -4 -6 3 14 23 -5 34 -30 17
-23 -15 -24 -14 -24 6 0 16 4 20 18 15 16 -6 16 -5 0 7 -10 8 -15 17 -11 20 3
4 -1 7 -9 7 -9 0 -19 -7 -22 -16 -4 -9 -13 -14 -21 -10 -8 3 -15 0 -15 -6 0
-7 -5 -6 -15 2 -20 16 -19 22 5 48 12 12 17 22 13 22 -5 0 -9 9 -10 19 -1 14
3 18 14 14 11 -4 14 -2 9 5 -3 6 7 33 24 59 16 26 30 41 31 33 1 -25 18 22 18
53 1 16 -3 26 -9 22 -5 -3 -10 0 -10 9 0 8 6 16 13 19 10 3 10 9 0 26 -18 29
-16 39 2 15 11 -15 14 -16 15 -4 0 9 -6 22 -12 28 -10 10 -8 14 10 18 20 6 32
24 14 24 -12 0 -10 44 2 52 7 5 6 8 -4 8 -25 0 30 32 64 37 17 2 72 7 122 10
l91 5 39 -47 c21 -26 51 -61 67 -77 15 -16 27 -33 27 -38 0 -6 9 -19 20 -30
11 -11 20 -15 20 -10 0 6 9 10 19 10 15 0 18 6 15 28 -2 15 -6 45 -8 67 -1 22
-8 50 -15 63 -6 12 -9 27 -6 32 3 5 1 19 -5 30 -6 12 -12 36 -12 53 -1 18 -6
36 -12 40 -8 6 -7 10 2 14 6 2 12 12 12 20 0 13 3 13 15 3 8 -7 15 -11 16 -9
0 2 3 13 5 24 6 23 6 51 1 120 -2 37 -7 51 -20 53 -18 4 -77 93 -77 117 0 8
-9 20 -20 27 -11 7 -20 17 -20 22 0 12 -48 56 -62 56 -5 0 -25 7 -44 16 -19 9
-37 15 -39 12 -7 -7 41 -116 60 -138 22 -24 75 -153 75 -182 0 -14 5 -18 15
-14 13 5 15 -1 12 -32 -2 -20 -8 -46 -12 -56 -8 -18 -9 -18 -22 0 -12 16 -13
15 -7 -16 4 -26 3 -31 -5 -20 -15 22 -26 4 -14 -23 20 -44 1 -54 -59 -34 -29
10 -64 19 -78 21 -42 4 -130 29 -130 37 0 3 15 13 33 20 35 15 77 55 77 74 0
7 -7 26 -15 41 -8 16 -15 23 -15 16 0 -7 -5 -10 -10 -7 -6 3 -17 -1 -26 -10
-12 -12 -20 -13 -27 -6 -6 6 -18 11 -26 10 -12 0 -13 -2 -2 -6 11 -4 11 -7 0
-13 -8 -5 -18 -2 -27 8 -7 9 -10 11 -6 3 5 -11 1 -10 -17 2 -30 22 -36 21 -42
-3 -6 -22 -37 -28 -37 -7 0 25 -20 -18 -20 -44 0 -15 -7 -29 -15 -33 -8 -3
-15 -11 -15 -17 0 -8 5 -7 17 2 15 13 15 12 5 -8 -7 -12 -16 -24 -21 -28 -15
-9 -24 34 -11 50 10 12 10 18 1 29 -10 12 -8 19 8 35 12 12 18 21 15 21 -4 0
-1 6 5 13 6 8 8 16 6 19 -3 3 3 8 15 11 13 3 20 0 20 -9 0 -8 5 -14 11 -14 5
0 7 5 3 12 -5 8 -2 9 9 5 13 -5 17 -1 17 17 0 13 7 27 16 30 8 3 12 10 9 16
-3 5 1 10 9 10 25 0 28 19 8 45 -11 13 -21 22 -24 20 -3 -3 -15 7 -28 21 -19
20 -25 37 -26 82 -1 31 3 68 8 82 6 17 6 26 -2 28 -8 3 -8 8 1 18 6 8 9 26 5
41 -3 16 -8 46 -11 68 -5 45 -8 61 -25 126 -10 39 -9 51 4 78 9 17 20 31 24
31 17 0 52 -33 82 -77 26 -39 31 -43 26 -20 -10 44 0 31 18 -22 18 -56 20 -73
6 -51 -6 9 -10 10 -10 3 0 -6 6 -18 13 -25 6 -7 13 -20 15 -28 4 -16 41 -70
48 -70 3 0 -3 12 -14 28 -10 15 -19 34 -20 42 0 8 -10 46 -21 85 -12 38 -21
89 -21 112 0 41 14 93 25 93 4 0 3 -4 0 -10z m-1088 -82 c-2 -13 -4 -5 -4 17
-1 22 1 32 4 23 2 -10 2 -28 0 -40z m1032 -8 c0 -10 -3 -8 -9 5 -12 27 -12 43
0 25 5 -8 9 -22 9 -30z m368 -242 c-3 -8 -6 -5 -6 6 -1 11 2 17 5 13 3 -3 4
-12 1 -19z m-534 -478 c-6 -23 -53 -73 -62 -65 -3 4 0 9 6 13 6 4 13 14 15 22
2 11 35 48 45 50 0 0 -1 -9 -4 -20z m157 -24 c0 -2 -7 -6 -15 -10 -8 -3 -15
-1 -15 4 0 6 7 10 15 10 8 0 15 -2 15 -4z m1005 -154 c-3 -3 -11 0 -18 7 -9
10 -8 11 6 5 10 -3 15 -9 12 -12z m-41 -48 c3 -8 2 -12 -4 -9 -6 3 -10 10 -10
16 0 14 7 11 14 -7z m35 -13 c-15 -5 -22 6 -14 19 6 9 10 9 16 -1 5 -8 4 -15
-2 -18z m-79 15 c0 -3 -4 -8 -10 -11 -5 -3 -10 -1 -10 4 0 6 5 11 10 11 6 0
10 -2 10 -4z m43 -96 c-3 -11 -7 -20 -9 -20 -2 0 -4 9 -4 20 0 11 4 20 9 20 5
0 7 -9 4 -20z m-12 -73 l-23 -22 17 28 c10 15 20 25 23 22 3 -3 -5 -16 -17
-28z m-984 -41 c-1 -19 -6 -32 -11 -29 -5 4 -7 -6 -4 -20 3 -16 0 -28 -8 -31
-9 -3 -11 0 -7 11 4 10 2 14 -4 10 -7 -4 -10 0 -8 10 1 10 -2 23 -6 29 -14 17
0 42 24 47 12 2 23 5 24 6 1 0 1 -14 0 -33z m-40 -110 c-3 -7 1 -24 10 -37
l15 -24 -21 23 c-17 20 -20 52 -4 52 3 0 3 -6 0 -14z m48 -16 c3 -5 1 -10 -4
-10 -6 0 -11 5 -11 10 0 6 2 10 4 10 3 0 8 -4 11 -10z m539 -18 c3 -5 -1 -9
-9 -9 -8 0 -12 4 -9 9 3 4 7 8 9 8 2 0 6 -4 9 -8z m177 -35 c-10 -9 -11 -8 -5
6 3 10 9 15 12 12 3 -3 0 -11 -7 -18z m174 -103 c6 -124 -15 -207 -86 -345
-46 -89 -56 -102 -112 -141 -148 -100 -218 -143 -234 -139 -7 1 -13 -5 -13
-13 0 -9 -12 -19 -27 -22 -16 -4 -44 -15 -64 -25 -56 -28 -150 -56 -194 -57
-35 -2 -37 0 -20 10 31 17 58 48 43 48 -9 0 -9 3 2 11 11 8 12 12 3 15 -8 4
-2 16 16 35 18 18 27 38 26 53 -2 19 1 23 13 19 11 -5 13 -3 7 7 -6 10 -2 12
18 8 16 -3 28 0 31 7 3 8 -2 11 -15 8 -33 -9 -21 12 26 46 48 35 69 59 42 48
-20 -8 -20 -8 -6 30 8 24 15 30 32 27 12 -2 16 -2 10 2 -18 8 -16 27 1 21 8
-3 17 1 20 9 3 9 10 12 16 9 5 -3 10 1 10 9 0 10 8 15 22 13 17 -1 24 4 26 21
2 13 14 27 27 32 13 5 28 17 33 27 6 10 33 31 61 48 28 16 51 35 51 42 0 7 4
13 9 13 17 0 91 74 153 152 34 43 63 76 65 74 2 -2 6 -48 8 -102z m-991 -90
c3 -8 2 -12 -4 -9 -6 3 -10 10 -10 16 0 14 7 11 14 -7z m696 8 c0 -4 -9 -13
-20 -20 -19 -12 -20 -11 -8 8 13 20 28 27 28 12z m-263 -331 c-3 -39 -21 -55
-41 -36 -10 10 -16 11 -18 3 -5 -14 -28 -2 -28 15 0 8 3 8 9 -2 6 -9 10 -10
16 -2 3 7 15 9 26 6 14 -5 20 0 25 19 8 34 14 33 11 -3z m-52 -70 c-3 -6 -11
-11 -17 -11 -6 0 -6 6 2 15 14 17 26 13 15 -4z m-979 -515 c3 -23 17 -83 30
-134 28 -104 29 -175 2 -82 -25 87 -69 296 -68 319 2 17 31 -68 36 -103z m306
-113 c10 -9 18 -21 18 -26 0 -6 -3 -8 -6 -4 -4 3 -22 -5 -40 -20 -37 -27 -40
-24 -28 36 7 35 27 40 56 14z"/>
<path d="M3030 3976 c0 -2 7 -12 16 -20 17 -18 39 -22 29 -6 -7 11 -45 33 -45
26z"/>
<path d="M2900 3756 c0 -23 16 -27 17 -5 1 10 -2 19 -8 19 -5 0 -9 -6 -9 -14z"/>
<path d="M2851 3694 c0 -11 3 -14 6 -6 3 7 2 16 -1 19 -3 4 -6 -2 -5 -13z"/>
<path d="M3640 3391 c0 -6 4 -13 10 -16 6 -3 7 1 4 9 -7 18 -14 21 -14 7z"/>
<path d="M3700 3289 c0 -11 36 -17 50 -9 7 5 0 9 -19 12 -17 2 -31 1 -31 -3z"/>
<path d="M3777 3279 c7 -7 15 -10 18 -7 3 3 -2 9 -12 12 -14 6 -15 5 -6 -5z"/>
<path d="M3173 3127 c3 -8 11 -33 18 -56 7 -23 17 -41 24 -41 20 0 25 12 9 27
-8 8 -12 18 -9 23 3 5 -7 21 -21 35 -15 15 -24 20 -21 12z"/>
<path d="M4251 2886 c-9 -10 -8 -15 2 -19 9 -3 16 -31 21 -78 7 -77 11 -88 25
-73 8 7 16 127 12 172 -1 16 -46 15 -60 -2z"/>
<path d="M3373 2853 c9 -2 23 -2 30 0 6 3 -1 5 -18 5 -16 0 -22 -2 -12 -5z"/>
<path d="M3438 2843 c12 -2 30 -2 40 0 9 3 -1 5 -23 4 -22 0 -30 -2 -17 -4z"/>
<path d="M3196 2609 c-26 -14 -35 -24 -27 -29 7 -4 12 -11 12 -16 -2 -16 52
-11 98 8 43 18 43 19 26 38 -23 25 -59 25 -109 -1z"/>
<path d="M4158 2556 c-3 -14 0 -27 6 -30 7 -3 6 -8 -4 -16 -13 -10 -13 -11 0
-7 8 2 16 16 18 31 5 37 -14 56 -20 22z"/>
<path d="M3276 2410 c-4 -34 -5 -65 -2 -68 3 -3 6 2 6 11 0 10 3 16 8 15 4 -1
18 4 31 11 22 12 23 12 17 -5 -6 -18 -5 -18 9 0 19 25 19 32 0 40 -8 3 -15 12
-15 20 0 8 -5 18 -12 22 -7 4 -8 3 -4 -4 4 -7 3 -12 -3 -12 -5 0 -14 7 -19 16
-7 12 -11 -1 -16 -46z"/>
<path d="M3364 2453 c4 -8 2 -13 -6 -13 -8 0 -6 -5 5 -11 9 -5 17 -19 17 -30
0 -11 -4 -17 -10 -14 -5 3 -10 -1 -10 -9 0 -9 4 -16 10 -16 5 0 6 -8 3 -17 -6
-15 -5 -16 9 -3 8 8 13 22 11 30 -3 8 5 4 18 -10 18 -20 21 -21 14 -5 -4 11
-7 29 -7 40 1 15 -1 17 -8 5 -7 -11 -10 -8 -15 13 -4 14 -14 32 -23 39 -12 10
-14 10 -8 1z"/>
<path d="M3982 2250 c0 -14 2 -19 5 -12 2 6 2 18 0 25 -3 6 -5 1 -5 -13z"/>
<path d="M3987 2203 c-3 -5 -2 -15 2 -22 7 -10 10 -10 16 -1 4 6 3 16 -3 22
-5 5 -12 6 -15 1z"/>
<path d="M3959 2198 c0 -2 -2 -26 -2 -55 -2 -39 -8 -58 -27 -79 -14 -16 -17
-22 -7 -15 14 11 17 11 17 0 1 -8 7 1 16 20 19 45 27 118 14 126 -5 3 -10 5
-11 3z"/>
<path d="M3927 2173 c-4 -3 -7 -13 -7 -22 1 -13 3 -13 11 2 11 19 8 33 -4 20z"/>
<path d="M3885 2150 c-4 -6 -11 -8 -16 -4 -8 4 -3 -41 5 -53 1 -1 6 14 12 33
11 34 11 43 -1 24z"/>
<path d="M3131 1993 c-1 -6 -4 -20 -7 -30 -5 -17 -5 -17 6 0 6 10 9 23 6 30
-3 9 -5 9 -5 0z"/>
<path d="M3083 1738 c-20 -26 -22 -35 -8 -35 8 0 12 4 9 9 -3 5 0 15 6 23 7 8
10 15 7 15 -2 0 -9 -6 -14 -12z"/>
<path d="M3645 1080 c-3 -5 -1 -10 4 -10 6 0 11 5 11 10 0 6 -2 10 -4 10 -3 0
-8 -4 -11 -10z"/>
<path d="M3657 964 c3 -9 9 -11 12 -6 3 5 13 12 21 15 9 3 4 6 -12 6 -21 1
-26 -3 -21 -15z"/>
<path d="M3515 890 c-3 -5 -1 -10 4 -10 6 0 11 5 11 10 0 6 -2 10 -4 10 -3 0
-8 -4 -11 -10z"/>
<path d="M3260 822 c0 -12 23 -32 37 -32 22 0 15 16 -12 28 -14 6 -25 8 -25 4z"/>
<path d="M3453 817 c-18 -6 -33 -17 -33 -25 0 -7 -13 -18 -29 -23 -39 -14 -46
-45 -15 -65 13 -9 24 -22 24 -29 0 -8 8 -11 19 -8 25 6 57 -47 38 -66 -14 -14
10 -15 32 -2 12 8 12 14 -1 43 -34 72 -38 109 -15 136 9 12 22 55 14 51 -1 -1
-17 -7 -34 -12z m2 -137 c3 -5 2 -10 -4 -10 -5 0 -13 5 -16 10 -3 6 -2 10 4
10 5 0 13 -4 16 -10z"/>
<path d="M3640 711 c0 -5 5 -13 10 -16 6 -3 10 -2 10 4 0 5 -4 13 -10 16 -5 3
-10 2 -10 -4z"/>
<path d="M3360 676 c0 -9 5 -16 10 -16 6 0 10 4 10 9 0 6 -4 13 -10 16 -5 3
-10 -1 -10 -9z"/>
<path d="M3537 660 c3 -11 9 -20 14 -20 5 0 9 9 9 20 0 11 -6 20 -14 20 -9 0
-12 -7 -9 -20z"/>
<path d="M3380 628 c1 -19 27 -51 34 -40 9 14 -5 52 -20 52 -8 0 -14 -6 -14
-12z"/>
<path d="M3135 520 c3 -5 11 -10 16 -10 6 0 7 5 4 10 -3 6 -11 10 -16 10 -6 0
-7 -4 -4 -10z"/>
<path d="M2775 470 c-3 -5 -3 -10 1 -10 4 0 -6 -10 -20 -21 -31 -24 -21 -39
26 -39 33 0 47 19 19 27 -16 4 -19 11 -15 29 6 24 0 32 -11 14z"/>
<path d="M2677 360 c-3 -11 -10 -19 -15 -18 -10 3 -12 -1 -12 -20 0 -13 69 -7
83 7 9 9 6 17 -13 31 -32 25 -36 25 -43 0z"/>
<path d="M2625 280 c-3 -5 -17 -10 -30 -10 -13 0 -26 -4 -29 -8 -6 -10 56 -42
79 -42 17 0 20 25 5 35 -5 3 -7 12 -3 20 6 17 -12 21 -22 5z"/>
<path d="M2590 210 c0 -5 -6 -10 -14 -10 -7 0 -19 -6 -25 -14 -8 -10 -21 -12
-39 -7 -15 4 -35 5 -45 3 -20 -4 -13 -22 9 -22 8 0 32 -11 52 -25 49 -33 78
-33 87 2 4 19 2 31 -9 39 -10 7 -14 18 -10 28 3 9 3 16 0 16 -3 0 -6 -4 -6
-10z"/>
<path d="M2638 154 c-16 -35 -3 -43 83 -47 41 -2 81 -7 88 -12 10 -5 12 -4 7
3 -9 14 -9 14 32 3 21 -6 32 -6 32 0 0 6 5 7 10 4 6 -4 7 -11 4 -17 -5 -7 -2
-8 5 -3 9 5 10 10 2 18 -6 6 -11 15 -11 21 0 6 5 5 12 -2 17 -17 24 -15 24 7
0 11 -4 18 -7 15 -4 -2 -11 1 -14 7 -4 5 -13 8 -21 5 -8 -3 -14 -1 -14 4 0 5
-7 7 -15 4 -8 -4 -23 -3 -32 1 -10 3 -53 8 -96 10 -75 3 -79 2 -89 -21z m237
-34 c3 -5 -1 -10 -9 -10 -9 0 -16 5 -16 10 0 6 4 10 9 10 6 0 13 -4 16 -10z"/>
<path d="M2946 142 c-8 -14 8 -24 28 -16 18 7 22 24 6 24 -5 0 -10 -6 -10 -12
0 -10 -3 -9 -9 1 -5 8 -11 9 -15 3z"/>
<path d="M3008 133 c7 -3 16 -2 19 1 4 3 -2 6 -13 5 -11 0 -14 -3 -6 -6z"/>
<path d="M2461 102 c-15 -29 -15 -28 26 -57 71 -48 87 -22 24 39 -38 37 -40
37 -50 18z"/>
</g>
</svg>
