<?xml version="1.0" standalone="no"?>
<!DOCTYPE svg PUBLIC "-//W3C//DTD SVG 20010904//EN"
 "http://www.w3.org/TR/2001/REC-SVG-20010904/DTD/svg10.dtd">
<svg version="1.0" xmlns="http://www.w3.org/2000/svg"
 width="600.000000pt" height="468.000000pt" viewBox="0 0 600.000000 468.000000"
 preserveAspectRatio="xMidYMid meet">

<g transform="translate(0.000000,468.000000) scale(0.100000,-0.100000)"
fill="#000000" stroke="none">
<path d="M2682 4053 c4 -86 22 -85 26 2 2 54 0 65 -13 65 -13 0 -15 -11 -13
-67z"/>
<path d="M3026 4113 c-11 -11 -6 -23 9 -23 8 0 15 4 15 9 0 13 -16 22 -24 14z"/>
<path d="M3726 4113 c-11 -11 -6 -23 9 -23 8 0 15 4 15 9 0 13 -16 22 -24 14z"/>
<path d="M3870 4050 c0 -40 4 -70 10 -70 6 0 10 30 10 70 0 40 -4 70 -10 70
-6 0 -10 -30 -10 -70z"/>
<path d="M3926 4113 c-11 -11 -6 -23 9 -23 8 0 15 4 15 9 0 13 -16 22 -24 14z"/>
<path d="M2073 4104 c-24 -10 -15 -54 12 -64 14 -5 25 -15 25 -21 0 -7 -10 -9
-25 -7 -16 3 -25 1 -25 -7 0 -19 27 -26 55 -15 35 13 32 46 -5 65 -35 18 -30
39 7 32 15 -3 22 0 20 7 -4 12 -44 18 -64 10z"/>
<path d="M2592 4048 c3 -60 19 -83 26 -38 2 12 11 20 23 20 10 0 19 7 19 15 0
8 -9 15 -20 15 -11 0 -20 7 -20 15 0 8 9 15 20 15 11 0 20 5 20 10 0 6 -16 10
-35 10 l-36 0 3 -62z"/>
<path d="M3342 4098 c-19 -19 -15 -31 20 -61 l33 -28 -32 4 c-21 2 -33 -1 -33
-9 0 -16 30 -23 56 -13 35 12 36 37 4 61 -37 27 -39 42 -5 36 17 -4 25 -1 25
8 0 17 -51 19 -68 2z"/>
<path d="M4053 4085 c-23 -40 20 -131 43 -93 4 6 2 14 -4 16 -15 5 -16 52 -2
52 6 0 5 8 -2 20 -15 24 -24 25 -35 5z"/>
<path d="M2160 4036 c0 -25 3 -46 8 -47 4 0 22 -2 40 -3 l32 -4 0 49 c0 27 -4
49 -10 49 -5 0 -10 -13 -10 -29 0 -16 -7 -34 -15 -41 -12 -10 -15 -7 -20 12
-4 13 -5 30 -3 37 2 8 -3 16 -9 18 -9 3 -13 -9 -13 -41z"/>
<path d="M2269 4075 c-5 -45 1 -130 10 -133 6 -2 11 8 11 23 0 15 5 25 13 24
26 -3 37 2 47 22 17 31 -13 74 -40 59 -14 -7 -20 -7 -20 0 0 10 -19 15 -21 5z
m61 -46 c0 -12 -7 -19 -20 -19 -22 0 -29 35 -7 43 18 6 27 -2 27 -24z"/>
<path d="M2389 4062 c-40 -33 -2 -94 47 -75 21 8 17 25 -5 18 -11 -3 -22 -1
-26 5 -4 6 4 10 19 10 19 0 26 5 26 20 0 31 -34 43 -61 22z m36 -12 c3 -5 -1
-10 -10 -10 -9 0 -13 5 -10 10 3 6 8 10 10 10 2 0 7 -4 10 -10z"/>
<path d="M2474 4065 c-8 -21 0 -80 11 -80 6 0 11 15 13 33 2 20 9 32 18 32 24
0 15 17 -12 23 -15 3 -28 0 -30 -8z"/>
<path d="M2752 4069 c-28 -11 -31 -64 -4 -78 27 -15 61 -2 68 25 12 46 -18 70
-64 53z m37 -55 c-14 -14 -17 -14 -29 0 -10 13 -10 19 0 32 12 14 15 14 29 0
14 -15 14 -17 0 -32z"/>
<path d="M2863 4069 c-31 -11 -32 -64 -2 -79 28 -15 72 12 67 42 -4 29 -38 48
-65 37z m37 -38 c0 -23 -9 -31 -26 -24 -17 6 -18 40 -1 46 17 6 27 -1 27 -22z"/>
<path d="M2950 4030 c0 -27 5 -50 10 -50 6 0 10 11 10 24 0 14 7 31 15 40 8 8
15 20 15 27 0 9 -4 8 -15 -1 -10 -9 -15 -9 -15 -1 0 6 -4 11 -10 11 -5 0 -10
-22 -10 -50z"/>
<path d="M3020 4029 c0 -62 21 -63 25 -2 2 29 -1 43 -11 47 -11 4 -14 -6 -14
-45z"/>
<path d="M3070 4028 c0 -35 4 -48 13 -46 6 3 12 16 12 29 1 13 4 30 9 37 12
20 26 3 26 -34 0 -19 5 -34 10 -34 11 0 14 90 3 91 -5 0 -23 2 -40 3 l-33 4 0
-50z"/>
<path d="M3215 4073 c-16 -3 -33 -10 -37 -16 -22 -35 7 -79 44 -69 21 5 22 4
9 -11 -8 -11 -21 -15 -32 -12 -23 8 -25 -10 -3 -19 9 -4 27 1 40 9 20 13 24
24 24 70 0 30 -3 54 -7 54 -5 -1 -21 -4 -38 -6z m13 -60 c-16 -15 -18 -15 -24
0 -3 9 -3 25 0 34 6 15 8 15 24 0 15 -16 15 -18 0 -34z"/>
<path d="M3435 4067 c-10 -26 -1 -120 13 -125 7 -2 12 6 12 23 0 17 5 25 13
22 42 -15 67 61 28 83 -14 7 -22 7 -26 0 -5 -8 -11 -7 -21 1 -11 9 -15 8 -19
-4z m65 -32 c0 -7 -7 -18 -15 -25 -12 -10 -16 -9 -21 4 -9 24 3 47 21 40 8 -3
15 -12 15 -19z"/>
<path d="M3557 4068 c-24 -13 -22 -65 2 -78 20 -10 51 -4 51 11 0 4 -6 6 -14
3 -8 -3 -17 -1 -21 5 -4 7 4 11 20 11 21 0 26 4 23 21 -4 26 -37 41 -61 27z
m38 -18 c3 -5 -3 -10 -15 -10 -12 0 -18 5 -15 10 3 6 10 10 15 10 5 0 12 -4
15 -10z"/>
<path d="M3663 4069 c-33 -12 -40 -49 -13 -71 13 -10 28 -17 33 -15 13 4 22
28 10 26 -22 -4 -33 3 -33 21 0 18 10 25 33 21 4 0 7 3 7 8 0 16 -13 19 -37
10z"/>
<path d="M3732 4071 c-17 -10 -12 -83 6 -89 8 -2 12 11 12 47 0 28 -1 51 -2
51 -2 0 -9 -4 -16 -9z"/>
<path d="M3973 4064 c-17 -13 -17 -15 5 -33 27 -24 28 -35 2 -28 -24 6 -27 -8
-4 -17 20 -8 54 10 54 29 0 7 -9 17 -20 20 -11 3 -20 11 -20 17 0 5 7 8 15 4
8 -3 15 -1 15 3 0 17 -28 20 -47 5z"/>
<path d="M835 4041 c-62 -36 -73 -48 -124 -141 -39 -71 -54 -101 -80 -160 -9
-22 -10 -20 -5 15 4 22 13 54 21 71 8 17 15 41 16 52 0 11 4 19 8 16 7 -4 39
51 39 68 0 15 -42 8 -76 -13 -19 -11 -38 -18 -44 -14 -7 4 -10 -151 -10 -474
l0 -481 258 1 c141 1 249 3 240 6 -10 2 -18 11 -18 19 0 20 -30 18 -46 -3 -7
-10 -14 -13 -14 -6 0 6 5 15 10 18 6 3 10 18 10 33 l-1 27 -15 -27 c-8 -16
-17 -28 -20 -28 -4 0 -3 12 1 28 25 95 27 122 15 172 -17 72 -5 195 19 197 12
1 21 -10 28 -35 10 -34 10 -33 7 23 -3 58 -3 59 7 20 9 -34 54 -187 64 -220 2
-5 4 2 4 17 1 16 -8 54 -18 85 -35 105 -42 175 -22 211 8 13 11 7 11 -28 l1
-45 20 60 c10 33 21 73 24 89 3 15 12 35 20 43 13 13 15 11 16 -14 l1 -28 8
30 c6 24 8 19 9 -29 1 -48 4 -57 13 -48 9 9 13 55 12 160 -1 129 -4 153 -23
192 -26 54 -115 125 -179 141 -23 6 -45 15 -48 20 -12 20 -89 9 -139 -20z
m105 -678 c6 -32 18 -86 26 -120 16 -70 18 -131 5 -151 -6 -10 -10 -6 -14 15
-3 15 0 31 5 34 9 6 6 44 -7 89 -7 25 -28 128 -28 138 0 17 -5 15 -18 -9 -8
-15 -8 -19 0 -15 6 4 11 0 11 -8 0 -9 -5 -16 -11 -16 -7 0 -9 -9 -6 -21 5 -17
3 -19 -6 -10 -16 16 -15 89 1 96 6 2 12 11 12 20 0 8 4 15 9 15 5 0 15 -26 21
-57z m-76 1 c3 -8 2 -12 -4 -9 -6 3 -10 10 -10 16 0 14 7 11 14 -7z m63 -66
c-3 -8 -6 -5 -6 6 -1 11 2 17 5 13 3 -3 4 -12 1 -19z m10 -130 c-3 -8 -6 -5
-6 6 -1 11 2 17 5 13 3 -3 4 -12 1 -19z m-10 -80 c-3 -7 -5 -2 -5 12 0 14 2
19 5 13 2 -7 2 -19 0 -25z"/>
<path d="M3774 4058 c-5 -8 -2 -9 10 -5 10 4 23 4 29 0 7 -4 2 -9 -13 -13 -25
-6 -43 -49 -21 -51 69 -6 80 3 67 57 -5 18 -13 24 -36 24 -16 0 -32 -5 -36
-12z m46 -36 c0 -13 -12 -22 -22 -16 -10 6 -1 24 13 24 5 0 9 -4 9 -8z"/>
<path d="M3920 4025 c0 -25 5 -45 10 -45 6 0 10 20 10 45 0 25 -4 45 -10 45
-5 0 -10 -20 -10 -45z"/>
<path d="M4117 4063 c-13 -13 -7 -32 13 -38 11 -3 20 -11 20 -17 0 -6 -9 -8
-20 -5 -11 3 -20 1 -20 -4 0 -5 6 -10 13 -10 45 -5 66 19 37 43 -24 19 -26 33
-5 24 8 -3 15 -1 15 4 0 11 -43 14 -53 3z"/>
<path d="M2653 3805 c0 -22 2 -30 4 -17 2 12 2 30 0 40 -3 9 -5 -1 -4 -23z"/>
<path d="M2713 3800 c0 -25 2 -35 4 -22 2 12 2 32 0 45 -2 12 -4 2 -4 -23z"/>
<path d="M2123 3795 c0 -22 2 -30 4 -17 2 12 2 30 0 40 -3 9 -5 -1 -4 -23z"/>
<path d="M2328 3823 c10 -4 10 -8 1 -19 -8 -10 -8 -14 0 -14 6 0 11 -5 11 -11
0 -6 -7 -8 -17 -4 -14 5 -15 4 -6 -6 9 -9 15 -9 26 -1 19 16 10 62 -12 61 -11
0 -12 -2 -3 -6z"/>
<path d="M3090 3796 c0 -35 15 -40 16 -5 1 16 -3 29 -7 29 -5 0 -9 -11 -9 -24z"/>
<path d="M2218 3783 c5 -21 7 -23 10 -9 2 10 0 22 -6 28 -6 6 -7 0 -4 -19z"/>
<path d="M2240 3801 c0 -5 5 -13 11 -17 8 -4 7 -9 -2 -15 -10 -6 -10 -9 -2 -9
20 0 25 19 9 36 -9 8 -16 11 -16 5z"/>
<path d="M2421 3793 c0 -13 -6 -23 -12 -23 -5 0 -7 5 -3 12 5 7 3 8 -5 3 -9
-5 -10 -10 -2 -18 15 -15 34 5 28 29 -4 16 -5 15 -6 -3z"/>
<path d="M2451 3800 c0 -8 3 -21 7 -28 6 -9 12 -5 20 15 11 25 11 26 -2 10
-14 -18 -14 -18 -19 0 -3 12 -5 13 -6 3z"/>
<path d="M2521 3793 c0 -13 -6 -23 -12 -23 -5 0 -7 5 -3 12 5 7 3 8 -5 3 -9
-5 -10 -10 -2 -18 15 -15 34 5 28 29 -4 16 -5 15 -6 -3z"/>
<path d="M2552 3785 c0 -16 2 -22 5 -12 2 9 2 23 0 30 -3 6 -5 -1 -5 -18z"/>
<path d="M2620 3791 c0 -12 -5 -21 -12 -21 -6 0 -9 -2 -6 -5 3 -3 13 -3 22 1
18 7 22 29 6 39 -5 3 -10 -3 -10 -14z"/>
<path d="M2684 3802 c4 -7 2 -21 -5 -30 -12 -15 -11 -15 6 0 16 15 17 20 6 30
-11 11 -13 10 -7 0z"/>
<path d="M2734 3795 c-7 -17 3 -35 19 -35 8 0 7 3 -2 9 -8 5 -11 16 -8 25 4 9
4 16 1 16 -2 0 -7 -7 -10 -15z"/>
<path d="M2811 3773 c0 -22 3 -32 7 -23 4 8 14 15 22 15 8 0 16 10 18 23 2 12
-1 22 -6 22 -6 0 -8 -10 -5 -21 4 -16 2 -20 -8 -17 -8 3 -13 13 -13 22 1 9 -2
16 -7 16 -5 0 -9 -17 -8 -37z"/>
<path d="M2870 3790 c0 -11 2 -20 4 -20 2 0 6 9 9 20 3 11 1 20 -4 20 -5 0 -9
-9 -9 -20z"/>
<path d="M2994 3795 c-7 -17 3 -35 19 -35 8 0 7 3 -2 9 -8 5 -11 16 -8 25 4 9
4 16 1 16 -2 0 -7 -7 -10 -15z"/>
<path d="M3045 3800 c-8 -12 12 -40 28 -40 6 0 3 6 -8 13 -10 8 -15 19 -11 25
4 7 5 12 2 12 -3 0 -8 -5 -11 -10z"/>
<path d="M2190 3775 c0 -8 4 -15 10 -15 5 0 7 7 4 15 -4 8 -8 15 -10 15 -2 0
-4 -7 -4 -15z"/>
<path d="M2945 3779 c-4 -6 -14 -8 -24 -4 -13 5 -14 4 -3 -6 10 -11 15 -10 29
4 10 9 14 17 11 17 -4 0 -10 -5 -13 -11z"/>
<path d="M3144 3782 c3 -5 0 -13 -6 -15 -9 -4 -10 -6 -1 -6 17 -1 25 16 12 25
-7 4 -9 3 -5 -4z"/>
<path d="M1304 3738 c5 -18 -8 -25 -17 -10 -2 4 -2 0 1 -8 2 -8 6 -32 9 -52 5
-31 10 -38 28 -38 12 0 29 7 36 16 11 14 10 19 -11 38 -14 11 -31 32 -38 46
-7 14 -10 17 -8 8z"/>
<path d="M2121 3668 c5 -18 9 -34 9 -36 0 -2 5 0 10 3 6 3 10 11 10 16 0 6 -4
7 -10 4 -5 -3 -10 3 -10 14 0 11 -4 22 -9 26 -6 3 -6 -7 0 -27z"/>
<path d="M2150 3686 c0 -8 5 -18 10 -21 6 -3 10 1 10 9 0 8 -4 18 -10 21 -5 3
-10 -1 -10 -9z"/>
<path d="M2273 3665 c0 -22 2 -30 4 -17 2 12 2 30 0 40 -3 9 -5 -1 -4 -23z"/>
<path d="M3227 3693 c-4 -3 -7 -20 -7 -36 0 -38 6 -32 13 11 5 33 5 36 -6 25z"/>
<path d="M3290 3675 c-14 -27 -13 -31 10 -37 17 -3 20 1 20 37 0 32 -13 32
-30 0z"/>
<path d="M3370 3685 c-6 -8 -10 -22 -8 -32 4 -23 42 -24 46 0 2 11 -3 17 -13
17 -14 0 -15 3 -5 15 7 8 8 15 2 15 -5 0 -15 -7 -22 -15z m30 -35 c0 -5 -4
-10 -10 -10 -5 0 -10 5 -10 10 0 6 5 10 10 10 6 0 10 -4 10 -10z"/>
<path d="M3433 3693 c11 -3 16 -10 13 -19 -3 -8 -9 -21 -12 -29 -3 -8 -2 -15
2 -15 5 0 14 16 20 35 11 34 10 35 -15 34 -18 -1 -21 -3 -8 -6z"/>
<path d="M3513 3684 c-4 -10 1 -20 13 -27 17 -10 17 -11 -1 -18 -19 -7 -18 -8
3 -8 26 -1 31 26 6 36 -15 6 -15 8 2 20 16 12 16 13 1 13 -10 0 -20 -7 -24
-16z"/>
<path d="M1274 3678 c3 -10 1 -18 -4 -18 -6 0 -10 -4 -10 -10 0 -5 7 -10 15
-10 17 0 19 19 4 40 -9 13 -10 12 -5 -2z"/>
<path d="M2186 3673 c-3 -10 -9 -24 -12 -30 -3 -7 -1 -13 4 -13 5 0 13 12 16
26 8 30 2 44 -8 17z"/>
<path d="M2237 3683 c-2 -5 -1 -19 3 -33 l6 -25 6 28 c5 26 -5 47 -15 30z"/>
<path d="M2957 3683 c-2 -5 -1 -19 3 -33 l6 -25 6 28 c5 26 -5 47 -15 30z"/>
<path d="M3566 3682 c-6 -10 4 -52 13 -52 8 0 7 47 -1 56 -3 3 -8 1 -12 -4z"/>
<path d="M2212 3655 c0 -16 2 -22 5 -12 2 9 2 23 0 30 -3 6 -5 -1 -5 -18z"/>
<path d="M2295 3670 c3 -5 8 -10 11 -10 2 0 4 5 4 10 0 6 -5 10 -11 10 -5 0
-7 -4 -4 -10z"/>
<path d="M2366 3673 c5 -5 12 -12 16 -18 4 -6 8 -2 8 8 0 9 -7 17 -17 17 -9 0
-12 -3 -7 -7z"/>
<path d="M2438 3653 c5 -21 7 -23 10 -9 2 10 0 22 -6 28 -6 6 -7 0 -4 -19z"/>
<path d="M2510 3673 c5 -2 8 -8 6 -12 -3 -4 0 -13 5 -21 8 -12 9 -9 7 9 -2 14
-9 26 -16 27 -7 1 -8 0 -2 -3z"/>
<path d="M2570 3667 c0 -9 -4 -17 -10 -17 -5 0 -10 -4 -10 -10 0 -5 4 -10 9
-10 12 0 25 39 17 47 -3 4 -6 -1 -6 -10z"/>
<path d="M2594 3665 c-4 -10 1 -23 12 -33 17 -16 17 -16 5 1 -12 14 -11 17 4
17 9 0 15 5 13 12 -7 19 -27 21 -34 3z"/>
<path d="M2696 3673 c6 -4 10 -16 8 -25 -1 -10 2 -18 8 -18 15 0 5 43 -12 47
-10 3 -11 2 -4 -4z"/>
<path d="M2737 3673 c-10 -10 -8 -43 2 -43 5 0 7 10 4 21 -4 16 -2 20 8 17 20
-7 20 -47 0 -58 -9 -5 -11 -10 -5 -10 31 -1 47 63 18 74 -19 7 -19 7 -27 -1z"/>
<path d="M2797 3674 c-11 -11 -8 -44 4 -44 5 0 7 5 4 10 -3 6 1 10 10 10 9 0
15 5 13 12 -5 14 -22 21 -31 12z"/>
<path d="M2872 3655 c0 -16 2 -22 5 -12 2 9 2 23 0 30 -3 6 -5 -1 -5 -18z"/>
<path d="M2916 3673 c5 -5 12 -12 16 -18 4 -6 8 -2 8 8 0 9 -7 17 -17 17 -9 0
-12 -3 -7 -7z"/>
<path d="M2992 3655 c0 -16 2 -22 5 -12 2 9 2 23 0 30 -3 6 -5 -1 -5 -18z"/>
<path d="M3048 3653 c5 -21 7 -23 10 -9 2 10 0 22 -6 28 -6 6 -7 0 -4 -19z"/>
<path d="M3073 3664 c-3 -8 0 -21 6 -27 9 -9 11 -8 5 7 -4 11 -2 21 7 27 10 6
11 9 1 9 -7 0 -15 -7 -19 -16z"/>
<path d="M3110 3663 c-1 -13 -3 -28 -4 -33 0 -6 -8 -15 -16 -20 -8 -5 -10 -10
-4 -10 20 0 36 28 31 57 -3 24 -4 25 -7 6z"/>
<path d="M3167 3673 c-10 -10 -8 -43 2 -43 5 0 7 9 4 20 -4 14 0 20 12 20 13
0 16 -6 12 -21 -4 -16 -3 -19 5 -11 6 6 8 18 5 26 -7 16 -28 21 -40 9z"/>
<path d="M3618 3672 c11 -7 11 -10 -2 -15 -23 -9 -20 -27 5 -27 15 0 20 5 17
22 -2 12 -10 23 -18 25 -12 4 -12 3 -2 -5z"/>
<path d="M3661 3650 c1 -18 3 -20 6 -7 3 11 10 16 20 13 8 -3 18 -6 21 -6 4 0
0 -5 -8 -10 -12 -8 -11 -10 8 -10 23 0 30 14 11 26 -8 4 -7 9 2 15 9 5 0 7
-24 6 -33 -2 -37 -5 -36 -27z"/>
<path d="M2412 3650 c0 -14 2 -19 5 -12 2 6 2 18 0 25 -3 6 -5 1 -5 -13z"/>
<path d="M3022 3650 c0 -14 2 -19 5 -12 2 6 2 18 0 25 -3 6 -5 1 -5 -13z"/>
<path d="M2907 3563 c-4 -3 -7 -22 -7 -41 0 -45 8 -38 13 11 4 39 4 41 -6 30z"/>
<path d="M1153 3533 c-18 -38 -16 -54 2 -19 9 16 14 33 13 37 -2 5 -9 -4 -15
-18z"/>
<path d="M2123 3528 c1 -25 7 -33 22 -33 15 0 20 7 21 30 1 28 1 28 -3 3 -6
-37 -30 -36 -37 2 -6 30 -6 30 -3 -2z"/>
<path d="M2480 3551 c0 -5 -9 -11 -21 -14 -22 -6 -24 -38 -1 -43 7 -1 8 0 2 3
-15 7 -12 33 4 33 8 0 17 -10 19 -22 3 -14 5 -9 6 15 0 20 -1 37 -4 37 -3 0
-5 -4 -5 -9z"/>
<path d="M2793 3525 c0 -22 2 -30 4 -17 2 12 2 30 0 40 -3 9 -5 -1 -4 -23z"/>
<path d="M2973 3551 c17 -6 17 -8 3 -20 -23 -19 -20 -41 7 -40 19 0 20 1 4 8
-17 6 -17 8 -3 20 23 19 20 41 -6 40 -20 0 -21 -1 -5 -8z"/>
<path d="M3030 3551 c12 -9 13 -12 1 -20 -11 -7 -11 -9 0 -14 12 -5 11 -7 -1
-17 -13 -9 -12 -11 5 -8 28 5 28 62 0 66 -17 3 -17 1 -5 -7z"/>
<path d="M3107 3552 c6 -4 13 -21 16 -37 l4 -30 2 32 c0 17 7 34 14 36 6 3 -1
6 -18 6 -16 0 -25 -3 -18 -7z"/>
<path d="M2358 3545 c-7 -7 3 -55 11 -55 4 0 6 14 3 30 -4 32 -5 33 -14 25z"/>
<path d="M2610 3527 c0 -14 4 -28 8 -31 9 -5 8 41 -1 51 -4 3 -7 -5 -7 -20z"/>
<path d="M2700 3540 c0 -5 5 -10 11 -10 5 0 7 5 4 10 -3 6 -8 10 -11 10 -2 0
-4 -4 -4 -10z"/>
<path d="M2192 3503 c1 -37 1 -37 5 -6 3 19 11 34 21 36 12 3 10 5 -5 6 -20 1
-23 -3 -21 -36z"/>
<path d="M2252 3517 c6 -15 12 -26 13 -25 1 2 8 14 14 28 10 22 10 23 -1 8
-13 -15 -15 -15 -26 0 -9 13 -9 11 0 -11z"/>
<path d="M2313 3533 c9 -2 17 -11 17 -19 0 -16 -11 -18 -28 -4 -7 5 -6 3 2 -6
17 -19 36 -11 36 17 0 13 -6 19 -22 18 -17 -1 -19 -2 -5 -6z"/>
<path d="M2392 3518 c2 -12 9 -23 16 -24 7 -1 8 0 2 3 -13 6 -13 33 1 33 5 0
7 -5 3 -12 -4 -7 -3 -8 5 -4 14 9 5 26 -15 26 -10 0 -14 -8 -12 -22z"/>
<path d="M2544 3524 c20 -19 20 -24 0 -24 -9 0 -12 5 -8 12 5 7 3 8 -5 3 -17
-10 3 -30 23 -22 18 7 10 47 -11 47 -12 0 -12 -2 1 -16z"/>
<path d="M2644 3525 c-4 -9 -2 -21 4 -27 15 -15 44 -1 40 19 -4 23 -36 29 -44
8z m36 -10 c0 -8 -7 -15 -15 -15 -8 0 -15 7 -15 15 0 8 7 15 15 15 8 0 15 -7
15 -15z"/>
<path d="M2748 3533 c15 -6 16 -33 1 -33 -5 0 -7 5 -3 12 4 7 3 8 -5 4 -14 -9
-5 -26 15 -26 8 0 14 10 14 25 0 17 -5 25 -17 24 -11 0 -13 -3 -5 -6z"/>
<path d="M2840 3531 c0 -5 9 -7 20 -4 11 3 20 7 20 9 0 2 -9 4 -20 4 -11 0
-20 -4 -20 -9z"/>
<path d="M3160 3514 c0 -14 4 -23 10 -19 6 3 10 15 10 26 0 10 -4 19 -10 19
-5 0 -10 -12 -10 -26z"/>
<path d="M3191 3513 c2 -23 2 -24 6 -5 2 12 9 22 14 22 5 0 9 -10 10 -22 0
-22 1 -22 11 2 11 25 11 25 15 3 3 -13 9 -23 14 -23 6 0 9 10 7 23 -2 18 -10
23 -40 25 -36 3 -38 2 -37 -25z"/>
<path d="M3284 3525 c-8 -19 3 -35 24 -35 13 0 14 2 4 9 -10 6 -9 10 7 14 23
6 39 -8 19 -16 -8 -4 -7 -6 4 -6 22 -1 34 19 18 29 -10 6 -9 9 1 13 11 4 10 6
-1 6 -9 1 -21 -4 -28 -11 -9 -9 -12 -9 -12 0 0 17 -29 15 -36 -3z"/>
<path d="M2219 3503 c-13 -16 -12 -17 4 -4 9 7 17 15 17 17 0 8 -8 3 -21 -13z"/>
<path d="M2875 3509 c-4 -6 -14 -8 -24 -4 -13 5 -14 4 -3 -6 10 -11 15 -10 29
4 10 9 14 17 11 17 -4 0 -10 -5 -13 -11z"/>
<path d="M1488 3292 c-16 -2 -28 -7 -28 -10 0 -4 -16 -16 -35 -26 -34 -19 -50
-44 -20 -32 9 3 15 0 15 -9 0 -19 -10 -24 -54 -27 -21 -1 -40 -6 -42 -10 -3
-4 -14 -8 -25 -8 -10 0 -20 -4 -20 -10 -1 -5 -3 -14 -4 -20 -1 -5 -3 -13 -4
-17 0 -4 -6 -2 -13 5 -17 17 -26 15 -24 -4 0 -9 -5 -19 -12 -21 -7 -3 -12 -1
-10 4 1 4 -2 18 -6 31 -6 19 -10 21 -22 11 -17 -14 -19 -49 -3 -49 7 0 1 -8
-12 -19 -13 -10 -34 -37 -47 -60 l-23 -41 370 0 371 0 0 104 c0 99 -1 104 -20
99 -16 -4 -20 0 -20 22 0 20 -4 26 -15 21 -8 -3 -15 -1 -15 4 0 15 -48 12 -52
-2 -3 -9 -9 -8 -22 5 -21 21 -46 22 -46 2 0 -24 -19 -17 -26 10 -6 26 -18 32
-29 14 -4 -5 -14 -9 -23 -7 -25 5 -65 -41 -51 -58 9 -11 8 -14 -4 -14 -8 0
-18 12 -21 26 -7 28 -2 39 17 39 14 0 22 34 10 44 -4 4 -20 5 -35 3z m138 -79
c15 -36 16 -37 25 -16 7 19 12 21 33 14 13 -6 27 -7 32 -3 4 4 4 -1 1 -10 -3
-10 -2 -20 4 -23 5 -4 7 -11 3 -16 -4 -6 -10 -7 -17 0 -17 13 -51 -13 -44 -34
8 -19 0 -19 -19 -1 -7 8 -23 12 -34 9 -13 -3 -20 0 -20 8 -1 10 -5 9 -14 -4
-12 -15 -15 -15 -26 -2 -10 12 -9 20 5 42 17 26 19 26 26 8 7 -17 8 -16 8 7 1
27 10 58 17 58 2 0 11 -17 20 -37z m174 -58 c0 -8 -4 -15 -10 -15 -5 0 -10 7
-10 15 0 8 5 15 10 15 6 0 10 -7 10 -15z m-489 -54 c6 -16 17 -32 25 -35 21
-8 54 15 60 42 6 23 19 29 29 13 3 -5 0 -13 -6 -17 -7 -4 -7 -9 -1 -13 5 -3
12 -15 16 -26 8 -29 -42 -50 -111 -46 -18 1 -23 7 -23 29 0 15 -5 33 -11 39
-11 11 -6 43 6 43 3 0 11 -13 16 -29z m166 -67 c2 -38 -1 -44 -17 -44 -11 0
-20 7 -20 15 0 8 5 15 11 15 7 0 9 9 6 21 -6 23 2 53 12 44 3 -4 7 -26 8 -51z
m267 41 c3 -8 13 -15 22 -15 16 0 16 -1 0 -19 -13 -15 -14 -20 -4 -24 7 -3 1
-6 -14 -6 -34 -1 -59 9 -52 20 3 5 16 9 30 9 27 0 32 15 8 24 -8 3 -22 -1 -31
-10 -8 -8 -18 -13 -21 -10 -5 6 38 45 49 46 4 0 9 -7 13 -15z m-458 -27 c4 -6
-1 -8 -13 -4 -18 6 -20 3 -15 -21 2 -16 1 -25 -3 -21 -5 4 -15 2 -23 -5 -13
-10 -15 -9 -9 7 4 10 2 25 -4 32 -9 11 -9 14 0 14 7 0 10 4 7 8 -3 5 8 6 25 4
16 -2 32 -9 35 -14z m351 16 c13 -4 20 -11 16 -20 -3 -8 0 -21 7 -29 7 -9 10
-18 7 -21 -3 -4 -18 8 -33 25 -14 17 -30 29 -35 26 -5 -4 -6 1 -3 9 7 18 9 18
41 10z m-107 -48 c0 -2 -7 -6 -15 -10 -8 -3 -15 -1 -15 4 0 6 7 10 15 10 8 0
15 -2 15 -4z"/>
<path d="M1073 3245 c0 -22 2 -30 4 -17 2 12 2 30 0 40 -3 9 -5 -1 -4 -23z"/>
<path d="M2061 3173 c1 -33 2 -35 8 -13 l7 25 6 -24 c7 -25 28 -20 28 7 0 13
-2 14 -9 4 -6 -10 -10 -7 -15 12 -10 39 -26 31 -25 -11z"/>
<path d="M2114 3188 c3 -13 6 -29 6 -35 0 -7 5 -13 10 -13 6 0 10 16 10 35 0
26 -4 35 -16 35 -12 0 -15 -6 -10 -22z"/>
<path d="M2333 3178 c1 -25 7 -33 22 -33 15 0 20 7 21 30 1 28 1 28 -3 3 -6
-37 -30 -36 -37 2 -6 30 -6 30 -3 -2z"/>
<path d="M2530 3202 c0 -4 -10 -13 -21 -21 -17 -10 -23 -10 -29 0 -11 17 -42
3 -38 -18 2 -10 12 -19 23 -21 17 -3 17 -1 5 7 -13 9 -13 11 2 11 9 0 20 -4
23 -10 3 -5 17 -10 31 -10 21 0 24 5 24 35 0 19 -4 35 -10 35 -5 0 -10 -3 -10
-8z m0 -37 c0 -8 -4 -15 -10 -15 -5 0 -10 7 -10 15 0 8 5 15 10 15 6 0 10 -7
10 -15z"/>
<path d="M2588 3203 c6 -2 12 -18 12 -34 0 -16 5 -29 10 -29 6 0 10 13 10 29
0 16 6 32 13 34 6 3 -4 5 -23 5 -19 0 -29 -2 -22 -5z"/>
<path d="M2258 3195 c-9 -10 4 -55 16 -55 14 0 14 52 0 57 -6 2 -13 1 -16 -2z"/>
<path d="M2154 3175 c-4 -9 -2 -21 4 -27 15 -15 44 -1 40 19 -4 23 -36 29 -44
8z m33 -21 c-9 -9 -28 6 -21 18 4 6 10 6 17 -1 6 -6 8 -13 4 -17z"/>
<path d="M2215 3181 c-3 -5 0 -13 6 -17 8 -4 7 -9 -2 -15 -10 -6 -8 -9 9 -9
23 0 30 14 12 25 -6 4 -8 11 -5 16 4 5 2 9 -4 9 -5 0 -12 -4 -16 -9z"/>
<path d="M2400 3175 c0 -8 6 -15 13 -15 8 0 7 -4 -3 -10 -13 -8 -12 -10 3 -10
9 0 17 7 17 15 0 8 -6 15 -12 15 -9 0 -8 4 2 10 13 8 12 10 -2 10 -10 0 -18
-7 -18 -15z"/>
<path d="M2648 3182 c11 -7 10 -10 -3 -16 -21 -8 -10 -26 16 -26 28 0 22 44
-6 48 -15 2 -16 1 -7 -6z"/>
<path d="M2694 3175 c-8 -19 3 -35 24 -35 15 -1 15 -2 -2 -15 -11 -8 -15 -15
-10 -15 18 0 34 24 34 52 0 21 -5 28 -20 28 -11 0 -23 -7 -26 -15z m30 -16
c-3 -5 -10 -7 -15 -3 -5 3 -7 10 -3 15 3 5 10 7 15 3 5 -3 7 -10 3 -15z"/>
<path d="M2755 3181 c-3 -5 0 -13 6 -17 8 -4 7 -9 -2 -15 -10 -6 -8 -9 9 -9
23 0 30 14 11 26 -8 4 -7 9 2 15 11 7 10 9 -3 9 -9 0 -19 -4 -23 -9z"/>
<path d="M1022 3110 c0 -19 2 -27 5 -17 2 9 2 25 0 35 -3 9 -5 1 -5 -18z"/>
<path d="M3342 2973 l-2 -73 -267 -3 -268 -2 268 -3 c218 -2 269 1 273 12 3 7
3 42 1 77 l-3 64 -2 -72z"/>
<path d="M4142 2973 l-2 -73 -332 -3 -333 -2 333 -3 c272 -2 334 0 338 12 3 7
3 42 1 77 l-3 64 -2 -72z"/>
<path d="M2672 2968 l-2 -68 -277 -3 -278 -2 278 -3 c227 -2 279 1 283 12 3 7
3 40 1 72 l-3 59 -2 -67z"/>
<path d="M2161 2973 c0 -21 3 -31 6 -23 3 8 11 18 17 22 8 5 7 8 -1 8 -19 0
-16 18 5 23 13 4 11 5 -5 6 -20 1 -23 -4 -22 -36z"/>
<path d="M2213 2975 c0 -22 2 -30 4 -17 2 12 2 30 0 40 -3 9 -5 -1 -4 -23z"/>
<path d="M2260 2995 c-15 -18 -10 -47 10 -52 12 -4 12 -3 2 5 -18 12 -11 46 9
50 21 4 33 -26 18 -44 -7 -9 -8 -14 -1 -14 16 0 23 30 12 51 -13 23 -33 25
-50 4z"/>
<path d="M2337 3003 c-14 -13 -7 -25 8 -13 18 15 35 5 35 -21 0 -20 -34 -27
-43 -9 -3 6 -4 5 -3 -2 2 -7 14 -13 27 -13 18 0 25 6 27 24 5 31 -31 55 -51
34z"/>
<path d="M2410 3001 c0 -6 7 -8 16 -4 13 5 15 2 10 -13 -3 -10 -2 -25 3 -33 6
-9 8 -2 7 20 -1 23 -7 35 -19 37 -9 2 -17 -1 -17 -7z"/>
<path d="M2473 2975 c0 -22 2 -30 4 -17 2 12 2 30 0 40 -3 9 -5 -1 -4 -23z"/>
<path d="M2491 2973 c2 -33 3 -34 6 -9 l5 29 23 -29 24 -29 -1 40 c0 36 -1 37
-7 11 l-6 -29 -14 26 c-20 38 -31 33 -30 -10z"/>
<path d="M2580 3000 c-24 -15 -7 -18 20 -3 14 7 18 13 10 13 -8 0 -22 -4 -30
-10z"/>
<path d="M2862 2973 c1 -37 1 -37 5 -5 2 17 9 32 15 32 5 0 8 -7 4 -15 -7 -18
3 -45 16 -45 5 0 6 6 1 13 -4 6 -8 21 -8 32 0 11 -8 21 -17 23 -15 3 -18 -3
-16 -35z"/>
<path d="M2921 2973 c1 -21 3 -30 6 -20 2 9 10 17 16 17 7 0 6 4 -3 10 -13 9
-13 11 0 20 13 8 12 10 -2 10 -14 0 -18 -8 -17 -37z"/>
<path d="M2971 2975 c1 -33 2 -36 8 -15 l7 25 8 -23 c7 -21 26 -22 26 -1 0 6
-4 7 -10 4 -5 -3 -10 -2 -10 2 0 5 -7 18 -15 29 -13 18 -14 16 -14 -21z"/>
<path d="M3028 2998 c-3 -7 -1 -24 3 -38 6 -22 7 -20 8 13 1 38 -3 47 -11 25z"/>
<path d="M3073 3003 c-7 -2 -13 -9 -13 -15 0 -6 6 -6 15 2 8 6 19 9 25 5 13
-8 13 -42 0 -48 -6 -3 -5 -4 2 -3 18 4 23 47 6 57 -14 10 -17 10 -35 2z"/>
<path d="M3139 3008 c-5 -15 -3 -60 2 -64 4 -2 6 10 5 26 -2 23 2 30 13 28 21
-4 27 -38 9 -50 -10 -8 -10 -9 2 -5 20 5 26 47 8 58 -12 8 -37 12 -39 7z"/>
<path d="M3211 2973 c1 -21 3 -30 6 -20 2 9 10 17 16 17 7 0 6 4 -3 10 -13 9
-13 11 0 20 13 8 12 10 -2 10 -14 0 -18 -8 -17 -37z"/>
<path d="M3263 2975 c0 -22 2 -30 4 -17 2 12 2 30 0 40 -3 9 -5 -1 -4 -23z"/>
<path d="M3522 2975 c0 -22 2 -32 5 -22 2 9 13 17 23 17 10 0 21 -8 23 -17 3
-10 5 0 5 22 0 22 -2 32 -5 23 -2 -10 -13 -18 -23 -18 -10 0 -21 8 -23 18 -3
9 -5 -1 -5 -23z"/>
<path d="M3610 3000 c0 -5 5 -10 10 -10 6 0 10 5 10 10 0 6 -4 10 -10 10 -5 0
-10 -4 -10 -10z"/>
<path d="M3660 2973 c0 -27 3 -34 9 -24 8 13 12 13 28 0 16 -13 17 -12 5 3 -9
11 -10 18 -2 23 14 9 -6 35 -26 35 -10 0 -14 -12 -14 -37z m35 17 c3 -5 -1
-10 -9 -10 -9 0 -16 5 -16 10 0 6 4 10 9 10 6 0 13 -4 16 -10z"/>
<path d="M3720 2975 c0 -19 4 -35 8 -35 5 0 7 14 4 30 -3 23 0 30 12 30 23 0
31 -27 15 -47 -12 -14 -12 -16 1 -11 35 11 17 68 -21 68 -15 0 -19 -7 -19 -35z"/>
<path d="M3791 2978 c5 -18 9 -34 9 -35 0 -2 5 -3 10 -3 6 0 10 7 10 16 0 8
-4 12 -10 9 -5 -3 -10 3 -10 14 0 11 -4 22 -9 26 -6 3 -6 -7 0 -27z"/>
<path d="M3820 3003 c0 -15 24 -63 32 -63 9 0 21 60 14 67 -3 4 -6 -3 -6 -15
0 -12 -4 -22 -10 -22 -5 0 -10 6 -10 14 0 8 -4 18 -10 21 -5 3 -10 2 -10 -2z"/>
<path d="M3890 2995 c-15 -18 -10 -47 10 -52 12 -4 12 -3 2 5 -21 14 -10 47
15 46 12 0 20 3 17 8 -8 13 -30 9 -44 -7z"/>
<path d="M3973 3003 c-7 -2 -13 -9 -13 -15 0 -6 6 -6 15 2 8 6 19 9 25 5 13
-8 13 -42 0 -48 -6 -3 -5 -4 2 -3 18 4 23 47 6 57 -14 10 -17 10 -35 2z"/>
<path d="M4042 2973 l1 -38 4 33 c3 20 9 32 16 29 18 -6 21 -38 5 -49 -10 -8
-10 -9 2 -5 20 5 26 47 8 58 -27 18 -38 9 -36 -28z"/>
<path d="M4330 2995 c-15 -18 -10 -47 10 -53 12 -4 13 -2 3 9 -19 20 -16 39
10 49 15 6 17 9 6 9 -9 1 -22 -6 -29 -14z"/>
<path d="M4407 3004 c-11 -11 -8 -26 3 -19 6 3 10 -1 10 -10 0 -11 -5 -15 -14
-12 -8 3 -16 0 -19 -6 -3 -8 6 -12 24 -12 24 0 28 3 23 20 -10 32 -20 46 -27
39z"/>
<path d="M4450 2973 c0 -27 3 -34 9 -24 7 11 13 12 23 4 10 -9 13 -5 13 20 0
26 -5 33 -22 35 -20 3 -23 -1 -23 -35z m31 14 c-1 -12 -15 -9 -19 4 -3 6 1 10
8 8 6 -3 11 -8 11 -12z"/>
<path d="M4517 3003 c-4 -3 -7 -19 -7 -35 0 -26 2 -28 15 -15 8 9 20 17 27 19
15 5 3 38 -15 38 -8 0 -17 -3 -20 -7z m24 -16 c-1 -12 -15 -9 -19 4 -3 6 1 10
8 8 6 -3 11 -8 11 -12z"/>
<path d="M4571 2973 c0 -21 3 -31 6 -23 3 8 11 18 17 22 8 5 7 8 -1 8 -19 0
-16 18 5 23 13 4 11 5 -5 6 -20 1 -23 -4 -22 -36z"/>
<path d="M4628 3003 c6 -2 18 -2 25 0 6 3 1 5 -13 5 -14 0 -19 -2 -12 -5z"/>
<path d="M4897 3002 c6 -4 13 -21 15 -37 3 -29 4 -29 9 8 4 32 2 37 -16 37
-12 0 -16 -3 -8 -8z"/>
<path d="M4953 2975 c0 -22 2 -30 4 -17 2 12 2 30 0 40 -3 9 -5 -1 -4 -23z"/>
<path d="M4970 2975 c0 -19 4 -35 8 -35 4 0 6 16 4 35 -2 19 -6 35 -8 35 -2 0
-4 -16 -4 -35z"/>
<path d="M5020 2975 c0 -19 5 -35 11 -35 5 0 7 5 3 11 -3 6 0 15 7 20 10 6 11
9 2 9 -19 0 -16 18 5 23 13 4 11 5 -5 6 -20 1 -23 -4 -23 -34z"/>
<path d="M4631 2974 c0 -11 3 -14 6 -6 3 7 2 16 -1 19 -3 4 -6 -2 -5 -13z"/>
<path d="M3598 2963 c-4 -14 1 -18 22 -18 21 0 26 4 22 18 -4 15 -7 16 -13 5
-8 -11 -10 -11 -18 0 -6 11 -9 10 -13 -5z"/>
<path d="M3932 2960 c-7 -11 -8 -20 -3 -20 9 0 24 30 18 36 -1 2 -8 -6 -15
-16z"/>
<path d="M2606 2955 c4 -8 8 -15 10 -15 2 0 4 7 4 15 0 8 -4 15 -10 15 -5 0
-7 -7 -4 -15z"/>
<path d="M3060 2961 c0 -6 4 -13 10 -16 6 -3 7 1 4 9 -7 18 -14 21 -14 7z"/>
<path d="M3960 2961 c0 -6 4 -13 10 -16 6 -3 7 1 4 9 -7 18 -14 21 -14 7z"/>
<path d="M2577 2949 c7 -7 15 -10 18 -7 3 3 -2 9 -12 12 -14 6 -15 5 -6 -5z"/>
<path d="M4393 2893 c59 -2 155 -2 215 0 59 1 10 3 -108 3 -118 0 -167 -2
-107 -3z"/>
<path d="M4913 2893 c37 -2 97 -2 135 0 37 2 6 3 -68 3 -74 0 -105 -1 -67 -3z"/>
<path d="M685 2878 c-27 -15 -35 -28 -35 -60 0 -17 9 -33 22 -42 30 -21 68
-21 68 0 0 10 -6 14 -14 11 -23 -9 -48 16 -44 44 2 18 10 25 31 27 16 2 27 8
24 15 -5 17 -28 19 -52 5z"/>
<path d="M1350 2825 c0 -37 4 -65 10 -65 6 0 10 28 10 65 0 37 -4 65 -10 65
-6 0 -10 -28 -10 -65z"/>
<path d="M1517 2868 c-18 -29 -11 -108 9 -108 9 0 14 12 14 34 0 19 6 37 13
40 10 5 10 7 0 12 -18 8 -16 24 3 24 8 0 12 5 9 10 -11 17 -34 11 -48 -12z"/>
<path d="M977 2856 c-15 -37 29 -115 51 -91 4 4 1 10 -5 12 -17 6 -17 50 -1
55 9 3 8 9 -4 21 -20 21 -34 22 -41 3z"/>
<path d="M1227 2857 c-15 -39 28 -117 50 -93 4 5 2 11 -4 13 -17 6 -17 50 -1
55 9 3 8 9 -4 21 -20 20 -34 22 -41 4z"/>
<path d="M772 2838 c-15 -15 -15 -51 0 -66 28 -28 78 -7 78 33 0 27 -18 45
-45 45 -12 0 -26 -5 -33 -12z m56 -31 c4 -21 -27 -35 -38 -17 -12 19 0 42 19
38 9 -2 17 -11 19 -21z"/>
<path d="M870 2804 c0 -32 4 -44 15 -44 10 0 15 11 15 35 0 24 5 35 15 35 10
0 15 -11 15 -35 0 -24 5 -35 15 -35 10 0 15 10 15 33 0 45 -10 55 -52 55 l-38
0 0 -44z"/>
<path d="M1050 2840 c0 -5 10 -10 23 -10 20 -1 20 -2 -6 -16 -41 -22 -32 -49
16 -50 34 -1 37 1 37 27 0 45 -10 59 -41 59 -16 0 -29 -4 -29 -10z m45 -50
c-3 -5 -10 -10 -16 -10 -5 0 -9 5 -9 10 0 6 7 10 16 10 8 0 12 -4 9 -10z"/>
<path d="M1150 2836 c-27 -34 8 -88 46 -71 18 8 18 8 -1 13 -38 8 -41 52 -4
52 10 0 19 5 19 10 0 15 -46 12 -60 -4z"/>
<path d="M1400 2805 c0 -33 4 -45 15 -45 11 0 15 11 15 36 0 45 24 42 28 -4 5
-48 24 -38 20 11 -3 41 -4 42 -40 44 l-38 2 0 -44z"/>
<path d="M1582 2838 c-29 -29 -7 -78 34 -78 42 0 63 59 30 82 -17 12 -51 9
-64 -4z m53 -33 c0 -28 -29 -25 -33 3 -3 19 0 23 15 20 10 -2 18 -12 18 -23z"/>
<path d="M1680 2834 c0 -9 5 -14 12 -12 18 6 21 28 4 28 -9 0 -16 -7 -16 -16z"/>
<path d="M1680 2774 c0 -9 5 -14 12 -12 18 6 21 28 4 28 -9 0 -16 -7 -16 -16z"/>
<path d="M2040 2559 c0 -104 3 -124 18 -135 16 -13 16 -13 0 -14 -20 0 -25
-20 -5 -20 8 0 8 -3 -2 -9 -8 -5 -12 -19 -9 -35 3 -14 2 -26 -2 -26 -8 0 -11
-330 -3 -374 4 -21 7 -25 14 -15 6 10 9 4 9 -19 0 -18 -4 -31 -9 -28 -16 10
-19 -82 -17 -699 l1 -610 1587 0 1588 0 -1 415 c0 232 -4 406 -9 394 -8 -21
-66 -44 -116 -44 -29 -1 -29 -1 -6 -13 23 -13 21 -30 -3 -21 -7 3 -16 0 -21
-7 -5 -8 -3 -10 7 -4 8 5 11 4 6 -1 -5 -5 -45 -10 -90 -12 -103 -3 -84 -4
-207 3 -123 7 -98 7 -235 -3 -129 -10 -248 -6 -275 8 -10 5 -32 10 -49 10 -16
0 -36 6 -43 13 -13 14 -21 17 -38 17 -5 0 -10 8 -10 18 0 13 -2 14 -9 4 -7
-11 -9 -11 -14 2 -8 21 -34 20 -46 -1 -9 -16 -11 -16 -19 6 l-9 25 -6 -24 c-5
-19 -8 -21 -20 -9 -7 8 -16 21 -20 29 -3 10 -6 7 -6 -7 -1 -29 -17 -30 -26 -2
-4 13 -12 18 -22 15 -8 -3 -21 1 -30 9 -14 14 -16 14 -28 -1 -11 -16 -13 -16
-23 2 -6 10 -12 14 -12 9 0 -11 -45 -13 -56 -3 -3 3 -17 3 -32 -1 -16 -5 -42
-3 -64 5 -30 10 -37 10 -42 -1 -5 -14 -22 -15 -43 -2 -8 5 -13 3 -13 -5 0 -10
-2 -10 -9 1 -5 7 -20 14 -35 14 -20 0 -26 5 -26 21 -1 19 -2 18 -18 -7 -9 -15
-22 -25 -29 -23 -6 3 -14 0 -16 -7 -3 -8 -11 -6 -26 7 -11 11 -21 14 -21 8 0
-6 -7 -9 -15 -6 -8 4 -15 1 -15 -5 0 -6 -4 -11 -10 -11 -5 0 -10 8 -10 17 0
15 -2 14 -15 -3 -9 -12 -14 -14 -15 -5 0 7 -6 11 -14 8 -8 -3 -17 -1 -20 6 -3
9 -8 8 -15 -3 -7 -10 -11 -11 -11 -2 0 6 -6 12 -14 12 -8 0 -17 -6 -20 -12 -5
-10 -7 -10 -12 -1 -3 7 -12 9 -21 6 -8 -3 -19 0 -23 7 -6 9 -10 7 -15 -9 -5
-17 -11 -20 -33 -14 -15 3 -28 10 -30 14 -2 4 -10 5 -18 2 -8 -3 -14 1 -14 7
0 10 -5 9 -17 -2 -22 -19 -81 -17 -94 3 -7 12 -9 12 -9 0 0 -8 -2 -12 -5 -10
-11 12 9 49 27 49 10 0 16 5 13 10 -4 6 -14 9 -23 8 -12 -2 -16 3 -14 20 2 12
-2 22 -8 22 -6 0 -8 10 -4 26 6 24 5 25 -15 15 -20 -11 -31 1 -12 14 11 6 4
77 -8 85 -4 3 -11 17 -15 33 -7 31 -22 36 -29 10 -4 -16 -5 -16 -6 -1 0 9 4
20 9 23 19 12 10 26 -12 19 -21 -6 -21 -5 -9 10 13 15 13 19 0 27 -8 5 -20 7
-26 4 -8 -3 -13 5 -13 19 0 13 -7 29 -15 36 -13 10 -15 9 -15 -9 0 -12 -7 -35
-15 -51 -14 -26 -13 -30 2 -38 15 -9 14 -11 -3 -20 -29 -15 -39 -3 -42 52 -2
27 -7 56 -11 64 -5 8 -6 -42 -4 -112 4 -83 2 -126 -5 -126 -6 0 -13 6 -15 13
-4 9 -6 9 -6 0 -1 -7 -6 -13 -12 -13 -6 0 -9 7 -6 15 4 8 2 17 -3 20 -5 3 -11
-4 -15 -15 -5 -16 -10 -18 -26 -10 -13 8 -19 7 -19 0 0 -6 -5 -8 -11 -5 -7 5
-6 12 4 23 22 26 32 46 19 38 -7 -4 -12 -1 -12 9 0 9 -5 13 -10 10 -6 -4 -7
-12 -4 -18 4 -7 3 -8 -2 -4 -14 13 -33 99 -34 157 -1 30 -4 49 -7 42 -2 -6 -9
-10 -14 -6 -12 7 -12 -9 0 -21 10 -11 3 -75 -9 -75 -4 0 -6 -18 -4 -40 4 -52
-14 -52 -22 0 -7 41 -19 58 -32 45 -4 -4 -1 -10 6 -12 6 -3 12 -9 12 -14 0 -4
-7 -6 -16 -2 -12 4 -14 0 -8 -22 6 -24 4 -27 -10 -22 -12 5 -16 1 -16 -15 l0
-22 -20 22 c-17 18 -23 20 -34 10 -8 -7 -12 -15 -11 -18 2 -3 0 -12 -5 -20 -9
-15 -40 -23 -40 -10 0 5 -3 15 -6 24 -4 11 -1 16 11 16 12 0 15 5 10 21 -4 12
-8 28 -9 36 -1 8 -7 18 -13 21 -18 12 -21 37 -5 55 14 15 13 17 -2 17 -12 0
-16 7 -14 23 2 16 11 23 33 25 17 2 35 8 40 14 7 7 -1 8 -26 4 -48 -8 -54 2
-21 32 25 24 26 25 4 20 -20 -6 -22 -2 -23 30 -1 21 -3 29 -6 19 -2 -9 -9 -15
-14 -12 -5 4 -9 1 -9 -4 0 -6 4 -11 10 -11 5 0 7 -7 4 -15 -5 -11 -9 -12 -18
-2 -15 15 -20 87 -6 87 6 0 10 5 10 11 0 5 -4 8 -9 5 -10 -7 -17 29 -20 96 -1
27 3 49 10 54 8 5 9 3 4 -6 -5 -9 -4 -11 3 -6 16 10 15 53 -2 63 -7 4 -15 20
-18 35 -3 15 -1 25 3 22 5 -3 9 -14 9 -25 0 -20 0 -20 27 1 21 16 35 20 60 15
18 -3 33 -3 33 0 0 13 -58 28 -99 26 -40 -2 -43 0 -31 14 8 9 22 14 33 11 10
-2 30 -1 43 4 19 7 26 5 38 -11 11 -17 17 -19 28 -10 7 7 20 17 28 24 8 7 13
11 11 10 -2 -2 -13 7 -23 19 -21 24 -8 38 16 18 10 -7 16 -8 21 0 3 5 -4 14
-17 19 -18 8 -9 10 42 11 36 0 85 2 110 4 57 4 170 36 170 47 0 5 10 9 23 9
33 0 67 11 62 20 -2 4 10 10 28 13 17 4 72 15 122 26 49 10 94 17 99 14 4 -3
11 -1 15 5 4 6 29 13 57 15 28 2 55 7 60 10 6 3 57 7 114 8 58 1 109 4 114 7
5 3 50 5 100 5 76 0 83 1 41 7 l-50 7 47 1 c26 1 49 -2 53 -7 3 -5 42 -10 88
-10 45 0 116 -5 157 -11 41 -5 103 -13 137 -16 34 -4 60 -10 58 -14 -5 -8 99
-25 123 -21 8 1 25 -5 39 -14 14 -10 41 -17 59 -18 19 -1 34 -5 34 -10 0 -4 5
-5 10 -2 6 3 10 1 10 -4 0 -6 3 -10 8 -9 8 2 45 -8 77 -21 11 -5 39 -14 63
-21 23 -7 42 -19 42 -25 0 -11 61 -35 91 -35 8 0 25 -9 39 -20 14 -11 36 -20
48 -20 14 0 26 -7 28 -17 6 -20 66 -63 89 -63 8 0 15 -6 15 -14 0 -8 15 -17
34 -20 22 -4 37 -14 41 -26 4 -11 15 -20 26 -20 11 0 22 -7 25 -15 4 -8 15
-15 26 -15 10 0 16 -4 13 -10 -3 -5 1 -10 10 -10 11 0 15 -5 11 -15 -3 -8 -1
-15 4 -15 12 0 60 -48 60 -60 0 -6 9 -10 19 -10 11 0 23 -9 26 -21 8 -25 41
-59 57 -59 6 0 8 -3 5 -7 -4 -3 -1 -14 7 -22 8 -9 16 -39 19 -66 2 -28 4 142
5 378 l2 427 -1585 0 -1585 0 0 -121z m210 -115 c60 -7 73 -12 65 -25 -15 -24
-55 -29 -93 -12 -20 10 -46 18 -57 19 -11 0 -28 2 -39 3 -16 1 -17 3 -5 17 10
12 22 14 49 10 19 -4 55 -9 80 -12z m-70 -110 c0 -13 -26 -30 -40 -26 -13 5
-13 3 -1 -11 7 -9 18 -14 24 -10 6 4 7 1 3 -6 -6 -9 -13 -9 -29 2 -26 17 -37
53 -15 44 8 -3 21 -1 29 4 16 10 29 12 29 3z m-100 -18 c0 -3 -4 -8 -10 -11
-5 -3 -10 -1 -10 4 0 6 5 11 10 11 6 0 10 -2 10 -4z m94 -101 c-4 -8 -11 -12
-16 -9 -6 4 -5 10 3 15 19 12 19 11 13 -6z m31 -43 c-8 -8 -25 10 -19 20 4 6
9 5 15 -3 4 -7 6 -15 4 -17z m-45 -37 c0 -4 -7 -4 -16 -1 -8 3 -12 2 -9 -3 9
-15 -15 -24 -30 -11 -17 14 -9 38 13 42 16 4 42 -13 42 -27z m20 25 c0 -5 -2
-10 -4 -10 -3 0 -8 5 -11 10 -3 6 -1 10 4 10 6 0 11 -4 11 -10z m30 -71 c0
-21 -3 -39 -7 -40 -5 0 -16 -2 -26 -4 -9 -2 -15 1 -11 6 3 5 -8 9 -25 9 -16 0
-33 5 -36 10 -3 6 -1 10 5 10 6 0 18 7 27 15 14 14 17 14 32 0 26 -23 34 -18
27 15 -3 19 -2 29 4 25 6 -3 10 -24 10 -46z m-70 -59 c0 -5 -7 -10 -15 -10 -8
0 -18 0 -22 -1 -4 0 -9 4 -11 10 -2 6 8 11 22 11 14 0 26 -4 26 -10z m-43
-102 c2 -17 0 -19 -7 -8 -5 8 -6 18 -4 22 8 12 10 10 11 -14z m53 -8 c0 -5 -5
-10 -11 -10 -5 0 -7 5 -4 10 3 6 8 10 11 10 2 0 4 -4 4 -10z m58 -18 c9 9 12
5 12 -15 0 -15 -6 -27 -12 -27 -10 0 -10 -2 -1 -8 15 -9 22 -76 8 -79 -5 -2
-9 11 -9 27 2 22 -2 28 -17 27 -11 -1 -22 -11 -25 -24 -7 -26 -24 -31 -24 -7
0 13 -7 15 -30 11 -34 -7 -37 -1 -13 33 15 21 15 23 0 17 -11 -4 -14 -2 -10 9
3 7 10 14 17 14 6 0 4 5 -4 10 -13 8 -12 10 3 10 9 0 17 -4 17 -10 0 -5 9 -10
20 -10 11 0 20 7 20 15 0 12 4 13 18 6 13 -7 23 -6 30 1z m49 -14 c-3 -8 -6
-5 -6 6 -1 11 2 17 5 13 3 -3 4 -12 1 -19z m3 -53 c0 -14 -4 -25 -10 -25 -5 0
-10 11 -10 25 0 14 5 25 10 25 6 0 10 -11 10 -25z m-66 -40 c3 -8 1 -15 -3
-15 -5 0 -11 7 -15 15 -3 8 -1 15 3 15 5 0 11 -7 15 -15z m16 -79 c0 -3 -4 -8
-10 -11 -5 -3 -10 -1 -10 4 0 6 5 11 10 11 6 0 10 -2 10 -4z m506 -25 c-4 -5
-2 -11 4 -13 5 -1 7 -13 4 -25 -4 -13 -10 -20 -15 -17 -10 6 -12 48 -2 57 9
10 15 8 9 -2z m2129 -515 c12 -12 6 -39 -9 -36 -3 1 -21 -4 -40 -11 -33 -12
-33 -12 -29 -66 5 -51 3 -55 -31 -87 -51 -49 -122 -80 -193 -85 -6 -1 -15 -10
-18 -21 -4 -11 -10 -18 -15 -15 -4 3 -13 -2 -20 -10 -7 -8 -21 -15 -32 -15
-11 0 -22 -8 -25 -18 -3 -14 -16 -19 -50 -21 -25 -1 -55 -8 -67 -15 -11 -8
-50 -16 -85 -20 -35 -3 -70 -11 -77 -17 -7 -6 -17 -8 -23 -5 -5 3 -20 2 -34
-3 -54 -21 -374 -53 -532 -53 -196 -1 -491 17 -532 31 -2 1 -9 1 -17 1 -8 0
-17 14 -21 30 -4 16 -13 30 -21 30 -8 0 -14 4 -14 10 0 5 7 7 15 3 10 -3 15 0
13 8 -2 8 3 13 11 11 8 -2 11 3 8 12 -4 9 1 17 11 19 13 4 11 5 -5 6 -12 0
-24 -5 -26 -11 -3 -7 -6 -3 -6 10 -1 12 3 22 9 22 6 0 6 9 0 26 -9 22 -8 25 5
20 15 -5 23 -1 58 30 7 6 23 14 35 18 12 3 30 8 41 11 13 4 20 -1 25 -17 5
-18 8 -20 15 -9 5 7 13 11 19 7 6 -3 14 -1 18 5 5 9 11 7 19 -5 12 -15 14 -15
28 -1 12 11 17 12 20 2 4 -8 8 -8 14 -2 13 16 45 18 54 3 6 -9 9 -5 9 12 1 22
2 23 11 7 6 -9 14 -15 19 -12 5 3 12 0 15 -5 5 -8 14 -5 27 7 17 14 22 15 26
4 3 -10 6 -11 12 -1 6 9 14 1 29 -26 20 -38 20 -39 21 -10 0 20 4 27 14 23 7
-3 23 1 35 9 16 12 21 12 21 2 0 -10 2 -10 8 -1 9 14 44 11 50 -5 2 -8 12 -7
33 3 16 9 31 15 34 15 2 -1 18 -5 35 -10 16 -5 30 -5 30 0 0 4 15 6 33 5 17
-1 35 2 38 7 4 5 13 3 22 -6 14 -15 17 -15 31 0 9 8 20 13 25 9 5 -3 17 5 26
17 12 18 17 20 24 10 7 -11 11 -11 24 2 20 21 27 20 27 -1 1 -17 1 -17 11 0
12 21 29 22 29 2 0 -20 26 -19 34 1 3 8 10 12 16 9 5 -3 10 1 10 9 0 9 5 16
10 16 6 0 10 6 10 14 0 10 -7 13 -22 10 -38 -9 -98 -11 -98 -4 0 4 -6 7 -12 8
-7 0 -47 3 -88 7 -41 3 -104 8 -140 11 -36 3 -99 7 -140 8 -41 2 -109 8 -150
13 -41 6 -91 9 -110 7 -19 -1 -80 2 -135 8 -55 5 -115 10 -133 10 -27 0 -33 3
-30 20 3 19 15 19 543 24 297 2 543 8 548 13 4 4 154 6 333 4 252 -3 329 -6
339 -17z"/>
<path d="M2078 443 c-3 -4 -5 -20 -6 -35 -1 -23 2 -28 22 -28 32 0 53 26 39
48 -11 18 -48 28 -55 15z m37 -28 c0 -10 -6 -20 -12 -22 -8 -3 -13 5 -13 22 0
17 5 25 13 23 6 -3 12 -13 12 -23z"/>
<path d="M2358 415 c-2 -19 0 -35 4 -35 4 0 8 6 8 14 0 8 6 17 13 19 10 4 10
6 0 6 -19 1 -16 19 5 24 13 4 12 5 -4 6 -18 1 -23 -6 -26 -34z"/>
<path d="M2575 418 c-7 -18 -11 -35 -8 -38 3 -3 8 1 10 8 5 14 33 16 33 2 0
-5 4 -10 9 -10 5 0 4 15 -2 35 -13 44 -24 44 -42 3z"/>
<path d="M2835 418 c-16 -38 -12 -46 11 -27 13 11 18 11 21 2 3 -7 8 -13 13
-13 4 0 3 16 -3 35 -13 44 -24 44 -42 3z"/>
<path d="M3008 431 c-27 -26 -23 -51 7 -51 22 0 25 4 25 35 0 39 -7 42 -32 16z
m13 -34 c-13 -13 -26 -3 -16 12 3 6 11 8 17 5 6 -4 6 -10 -1 -17z"/>
<path d="M3200 415 c0 -19 5 -35 10 -35 6 0 10 16 10 35 0 19 -4 35 -10 35 -5
0 -10 -16 -10 -35z"/>
<path d="M3230 415 c0 -19 5 -35 10 -35 6 0 10 16 10 35 0 19 -4 35 -10 35 -5
0 -10 -16 -10 -35z"/>
<path d="M3290 417 c0 -34 3 -38 22 -35 28 4 36 36 11 45 -10 4 -21 11 -25 17
-4 6 -8 -6 -8 -27z m26 -24 c-10 -10 -19 5 -10 18 6 11 8 11 12 0 2 -7 1 -15
-2 -18z"/>
<path d="M3108 435 c-9 -10 4 -55 16 -55 14 0 14 52 0 57 -6 2 -13 1 -16 -2z"/>
<path d="M2157 424 c-4 -4 -7 -16 -7 -26 0 -14 6 -19 23 -16 14 2 22 10 22 23
0 20 -25 32 -38 19z m23 -19 c0 -8 -4 -15 -10 -15 -5 0 -10 7 -10 15 0 8 5 15
10 15 6 0 10 -7 10 -15z"/>
<path d="M2210 406 c0 -32 17 -34 23 -3 l4 22 2 -22 c0 -13 6 -23 12 -23 21 0
4 45 -18 48 -19 3 -23 -1 -23 -22z"/>
<path d="M2277 423 c-16 -16 -6 -43 16 -42 21 0 21 1 2 9 -19 8 -19 9 2 9 16
1 21 6 17 16 -6 16 -26 20 -37 8z"/>
<path d="M2406 414 c-8 -21 1 -34 24 -34 25 0 35 17 20 35 -16 20 -36 19 -44
-1z m34 -9 c0 -8 -4 -15 -10 -15 -5 0 -10 7 -10 15 0 8 5 15 10 15 6 0 10 -7
10 -15z"/>
<path d="M2471 401 c1 -17 3 -20 6 -8 2 9 9 17 14 17 5 0 9 4 9 8 0 5 -7 9
-15 9 -10 0 -15 -9 -14 -26z"/>
<path d="M2510 419 c0 -5 5 -7 10 -4 6 3 10 8 10 11 0 2 -4 4 -10 4 -5 0 -10
-5 -10 -11z"/>
<path d="M2641 403 l0 -28 11 25 c11 25 11 25 15 3 3 -13 9 -23 14 -23 22 0 4
45 -18 48 -19 3 -23 -1 -22 -25z"/>
<path d="M2697 405 c3 -14 10 -25 15 -25 13 0 6 43 -8 47 -7 2 -10 -6 -7 -22z"/>
<path d="M2730 405 c0 -14 5 -25 10 -25 6 0 10 11 10 25 0 14 -4 25 -10 25 -5
0 -10 -11 -10 -25z"/>
<path d="M2760 403 c0 -12 5 -23 10 -23 6 0 10 4 10 9 0 5 2 16 5 24 4 8 0 14
-10 14 -9 0 -15 -9 -15 -24z"/>
<path d="M2901 403 l0 -28 11 25 c11 25 11 25 15 3 3 -13 9 -23 14 -23 22 0 4
45 -18 48 -19 3 -23 -1 -22 -25z"/>
<path d="M2957 405 c3 -14 10 -25 15 -25 13 0 6 43 -8 47 -7 2 -10 -6 -7 -22z"/>
<path d="M3068 421 c11 -7 11 -9 -2 -14 -23 -9 -20 -27 4 -27 15 0 20 7 20 25
0 17 -5 25 -17 25 -14 0 -15 -2 -5 -9z"/>
<path d="M3146 415 c-8 -23 1 -35 27 -34 21 0 21 1 2 9 -18 8 -18 9 -2 9 10 1
17 7 15 14 -7 19 -35 20 -42 2z"/>
<path d="M3262 405 c0 -16 2 -22 5 -12 2 9 2 23 0 30 -3 6 -5 -1 -5 -18z"/>
<path d="M2082 238 c-7 -7 -12 -20 -12 -30 0 -21 36 -43 45 -28 4 6 3 10 -2 9
-38 -7 -47 36 -10 51 13 5 16 9 7 9 -9 1 -21 -4 -28 -11z"/>
<path d="M2323 215 c0 -22 2 -30 4 -17 2 12 2 30 0 40 -3 9 -5 -1 -4 -23z"/>
<path d="M2343 215 c0 -22 2 -30 4 -17 2 12 2 30 0 40 -3 9 -5 -1 -4 -23z"/>
<path d="M2471 218 c0 -21 4 -38 12 -41 25 -8 37 6 36 42 l-2 36 -6 -33 c-8
-42 -24 -42 -32 0 l-6 33 -2 -37z"/>
<path d="M2543 234 c-4 -10 1 -20 11 -26 9 -5 14 -14 11 -19 -4 -5 -11 -6 -17
-3 -7 4 -8 2 -4 -4 8 -13 36 -5 36 10 0 6 -8 17 -17 24 -16 12 -16 15 -3 24
11 7 11 10 2 10 -7 0 -15 -7 -19 -16z"/>
<path d="M2160 205 c0 -14 3 -25 8 -25 4 0 7 11 7 25 0 14 -3 25 -7 25 -5 0
-8 -11 -8 -25z"/>
<path d="M2191 225 c0 -5 4 -19 8 -30 5 -11 4 -25 -1 -32 -7 -9 -7 -13 0 -13
18 0 22 31 7 58 -8 15 -14 23 -14 17z"/>
<path d="M2227 223 c-4 -3 -7 -11 -7 -17 0 -6 5 -4 10 4 8 13 11 11 16 -7 4
-13 10 -23 15 -23 5 0 3 11 -3 25 -11 26 -19 30 -31 18z"/>
<path d="M2370 215 c-11 -13 -10 -19 5 -33 18 -16 18 -16 6 1 -12 15 -11 17 9
17 12 0 20 5 18 12 -7 19 -24 20 -38 3z"/>
<path d="M2142 200 c0 -14 2 -19 5 -12 2 6 2 18 0 25 -3 6 -5 1 -5 -13z"/>
<path d="M2292 200 c0 -14 2 -19 5 -12 2 6 2 18 0 25 -3 6 -5 1 -5 -13z"/>
</g>
</svg>
