<?xml version="1.0" encoding="UTF-8"?>
<!DOCTYPE svg  PUBLIC '-//W3C//DTD SVG 20010904//EN'  'http://www.w3.org/TR/2001/REC-SVG-20010904/DTD/svg10.dtd'>
<svg width="640pt" height="427pt" version="1.0" viewBox="0 0 640.000000 427.000000" xmlns="http://www.w3.org/2000/svg">
<g transform="translate(0 427) scale(.1 -.1)">
<path d="m0 4236v-34l72 14c39 8 90 20 112 28 23 8 50 17 61 19 11 3-40 5-112 6l-133 1v-34z"/>
<path d="m1401 4248c20-38 101-173 108-178 3-3 23-31 43-62 22-33 62-75 95-100 32-23 73-55 92-71 63-54 75-53 134 6 29 29 81 77 117 106 36 30 68 62 72 72 11 29 48 25 48-5 0-19-20-40-84-90-47-36-87-66-91-66-7 0-30-19-53-42-9-10-22-18-29-18s-17-9-23-20-16-20-22-20-39 25-74 56-64 52-64 48c0-18 66-108 103-139 46-40 51-41 69-18 29 37 143 143 155 143 24 0 13-22-42-79-41-43-56-67-61-97-5-37-3-43 30-72 20-18 40-32 45-32 4 0 13-10 20-22 7-13 34-36 60-52 26-15 56-42 66-60 68-117 214-246 328-287 28-10 54-19 57-19s11 14 17 30c20 52 73 38 116-31 112-183 155-234 186-224 14 4 23 0 31-16 16-30 29-13 37 49 4 38 2 58-10 76-15 23-13 36 5 36 5 0 16-16 24-36 12-29 13-45 3-92-7-31-13-74-13-94-2-47-13-58-25-24-11 27-25 33-36 16-6-9 16-43 59-90 7-8 18-30 24-48 12-34 55-98 123-182 20-25 60-85 90-135 29-49 67-108 85-130 17-22 39-55 50-72 10-18 21-33 25-33 3 0 17-11 30-24s32-22 42-20c9 1 17-2 17-7s-7-9-16-9c-14 0-14-3 3-29 41-63 87-111 95-98 5 7 6 2 3-13-5-21 2-35 37-72 98-104 194-212 216-241 13-19 30-31 40-29 18 4 85 51 90 64 2 4 10 8 18 8s14 5 14 10c0 6 8 10 17 10 15 0 14 2-3 14-18 14-18 15 0 22 11 4 21 2 27-7 8-12 12-11 23 4 7 9 18 17 25 17 6 0 11 5 11 10 0 6 7 10 15 10s15 5 15 10c0 6 6 10 14 10s17 11 20 24c4 15 15 26 29 29 40 7-56-3-115-12-75-12-81-17-62-47 14-20 14-24 2-24-15 0-32 26-43 67-7 24-21 20 160 48 112 18 205 43 205 56 0 5 15 15 34 23 18 8 37 19 40 25 10 15 49 14 44-1-2-7-40-35-84-62-43-27-71-46-61-43 9 4 17 4 17 2 0-9-119-85-133-85-7 0-24-12-38-26-13-14-77-62-141-106-110-75-132-98-109-113 10-6 159-190 240-298 29-38 47-54 55-48 6 5 142 106 301 226 160 119 295 221 300 227 7 6 4 13-8 19-9 6-15 14-12 19 6 10 45 1 45-11 0-5 7-9 15-9s15-7 15-15-4-15-10-15c-5 0-10-7-10-16 0-10-6-14-15-10-20 7-19-1 5-26 11-12 20-19 20-16s22-15 49-40c41-39 47-49 35-58-8-6-14-16-14-23 0-6-9-11-20-11s-20-4-20-10c0-5-9-10-21-10-11 0-17-4-14-10 3-5-3-10-14-10-12 0-21-4-21-10 0-5-9-10-20-10s-20-4-20-10c0-5-9-10-20-10s-20-4-20-10c0-5-7-10-15-10-9 0-18-6-21-14s-12-12-20-9c-9 3-14-1-14-12s-5-15-15-11c-9 3-18-1-22-10-3-8-12-13-20-10-7 3-16-1-20-10-3-8-11-13-18-10-7 2-22-2-33-10-14-9-28-11-43-6-24 9-17 14 121 90 102 56 263 151 274 162 8 8-2 23-36 56-46 43-68 54-68 34 0-5-9-10-20-10-28 0-25-25 7-45 22-15 24-19 10-27-20-10-55 20-49 43 2 9-1 8-11-3-8-10-19-18-26-18-6 0-11-4-11-9s-8-12-17-14c-15-4-15-6 5-12 22-7 30-39 12-50-5-3-7 0-5 8 6 15-41 45-52 33-5-4 3-16 16-27l23-19-33-14c-30-13-36-13-51 1-17 15-18 14-18-10 0-15-5-27-11-27-5 0-7 5-4 10 3 6-1 10-9 10-9 0-16-7-16-15 0-9-6-12-15-9-11 5-13 2-8-11 5-15 2-17-15-13-15 4-22 2-22-8 0-8-7-14-15-14s-15-4-15-10c0-5-9-10-20-10s-20-7-20-15c0-9-6-12-15-9-9 4-15 0-15-10 0-9-7-16-15-16s-15-4-15-10c0-5-9-10-21-10-15 0-19-4-15-16 5-12 2-15-9-10-9 3-18-1-21-9-4-8-12-15-20-15s-14-4-14-9-3-16-6-25c-4-10 5-22 26-34 18-12 26-22 19-24-8-3 17-39 63-94 41-49 104-129 141-179 98-134 117-155 139-155 17 0 18-3 8-15s-9-16 4-21c10-4 29 8 56 37 71 78 97 104 118 118 12 8 19 17 18 20-2 3 2 12 10 19s14 10 14 7c0-4 7 1 16 9 8 9 12 21 8 28-5 8-2 9 9 5 12-4 14-2 10 11-3 9-3 14 2 10 9-8 35 15 35 32 0 6 5 8 10 5 6-3 10 1 10 9 0 20 26 10 60-21 14-13 30-23 37-23s16-6 20-13c4-6 28-23 53-36 41-23 57-25 185-27 169-2 158-1 152-18-3-8 5-25 18-38 14-13 25-29 25-35 0-7 5-13 10-13 6 0 10-7 10-15s5-15 10-15c6 0 10-6 10-14s3-16 8-18c4-2 20-29 36-60s34-54 39-51c6 3 7 1 3-5s1-26 10-44c10-18 19-27 21-20 3 6 9 10 13 7 5-3 7-12 3-20-3-10 1-15 12-15 9 0 13-5 10-10-4-6 11-32 32-58 21-25 38-50 38-53 0-4 13-19 28-33s26-30 22-35c-3-5 3-12 14-16 17-5 35-38 32-58-1-4 6-10 14-13 8-4 15-12 15-20s6-14 14-14c9 0 16-12 18-28 2-21 8-27 26-25 15 2 22-3 22-15 0-14 2-15 10-2 8 12 12 11 30-8 11-12 27-22 35-22s15-4 15-10c0-5 7-10 15-10s15 5 15 10c0 6 25 10 56 10 32 0 53-4 49-10-3-5 60-9 165-9h170v121 120l-24-6c-13-3-26-2-28 4-2 5-21 11-43 14-22 2-48 7-57 11s-21 4-27 1c-5-4-13-1-16 5-4 6-18 8-31 5-15-4-24-2-24 5 0 6-9 9-20 6-10-3-25 1-31 9-8 10-15 11-24 4-10-8-15-8-20 0-4 7-16 10-26 7s-23 1-29 8c-6 8-17 12-25 9-18-7-31 16-14 27 12 8 12 11-1 19-10 7-12 12-4 17 6 5 10 25 10 46-1 21 2 41 7 44 4 2 3 11-3 18-8 10-8 15 0 20s7 11-1 22c-9 10-9 17-2 21 5 4 9 24 9 45-1 21 2 41 7 44 4 2 3 11-3 18-8 10-8 15 0 20s7 11-2 23c-9 11-10 16-2 19 7 2 10 13 7 23-3 12 0 20 7 20 10 0 9 4-1 16s-10 17 0 23c9 6 8 11-5 22s-18 11-21 2c-3-7-13-13-24-13s-19-7-19-16c0-8-4-13-10-9-11 7-51-14-63-32-4-7-14-10-21-7s-16-2-19-10c-4-9-13-13-20-10-8 3-17-2-20-10-4-9-13-13-22-10-9 4-15 0-15-10s-5-13-16-9c-10 4-20 0-26-10-4-9-15-14-23-11-10 4-15 0-15-11 0-12-5-15-16-11-9 3-20 6-26 6s-7 7-4 16c4 11-1 18-15 21-12 4-18 11-15 20 3 7-1 16-9 19-8 4-15 12-15 19s-7 16-16 19c-9 4-14 13-10 21 4 11-2 15-24 15-17 0-30 4-30 10 0 5 5 9 11 7 6-1 14 4 16 11 3 6-2 12-11 12s-16 8-16 20c0 11-4 20-10 20-5 0-10 7-10 15 0 9-7 18-15 21-8 4-15 15-15 25s-4 19-10 19c-5 0-10 7-10 15s-7 15-15 15-15 9-15 21c0 16-5 19-22 15-13-3-17-3-10 0 17 8 15 44-2 44-9 0-16 12-18 27-2 19-9 28-23 30-16 1-16 1-2-3 20-6 23-24 3-24-9 0-13-8-10-22l5-23-10 23c-6 12-19 22-30 22-24 0-32 11-21 29 13 22 84 17 114-8 13-11 16-9 22 13 6 25 7 26 21 9 10-13 16-15 19-5 3 6 12 12 20 12s14 5 14 10c0 6 9 10 20 10s20 5 20 10c0 6 9 10 20 10s20 3 21 8c0 4 2 17 5 30 2 14-1 22-10 22-12 0-26 20-26 36 0 2 11 4 24 4 20 0 23 4 20 23-3 17-2 16 7-5 5-15 16-25 23-22s12-4 12-15c0-14-4-17-12-11-6 6-14 7-17 3-11-10-8-53 3-53 6 0 10 5 10 11s7 8 15 5c9-3 18 1 22 9 3 10 12 13 24 10 15-5 17-3 12 11-5 13-2 15 17 9 15-5 20-4 16 4-5 7 2 11 17 11 14 0 27 7 31 15 3 8 12 12 21 9 10-4 15-1 13 12-4 49 0 54 47 54 33 0 45 4 45 15 0 8 8 15 18 16 13 0 12 3-5 11-23 11-31 28-15 28 10 0 42-33 42-43 0-4-7-7-15-7s-15-9-15-20 5-20 10-20c6 0 10-9 10-20s5-20 10-20c6 0 10-7 10-15 0-9 7-18 15-21 8-4 15-12 15-19s7-15 15-19c8-3 12-12 9-21-4-10 0-15 10-15 9 0 16-8 16-20s7-20 16-20c10 0 14-6 11-15-8-19 11-31 26-16 8 8 8 11-1 11-19 0-14 30 6 31 27 1 55 6 82 13 18 5 40-1 75-20 28-14 52-29 55-33s31-19 63-34c53-24 65-36 52-49-4-3-24-1-47 4-27 6-45 5-52-2-10-10 15-15 57-11 28 3 19-8-20-24-32-14-45-14-81-4-50 14-64 29-28 29 18 0 24 4 20 15-4 8-1 15 7 15 7 0 10 3 6 6-3 3-15 0-26-8-24-17-75-12-93 9-9 11-9 19 0 34 10 16 9 19-5 19-31 0-63-12-57-21 3-5 0-9-7-9s-10-2-7-5 17-1 32 4c22 9 26 8 26-7 0-10 5-23 12-30 9-9 7-13-5-17-9-3-24-7-33-10-32-10-8-14 31-5 33 7 48 5 83-13 53-26 61-37 28-37-14 0-26-5-26-11 0-8-5-7-15 1-13 11-14 10-9-4 4-9 1-16-6-16-8 0-10-9-6-24 5-21 2-25-24-31-41-9-38-25 4-18 29 4 34 2 39-18 10-36 9-39-14-39-20 0-49-21-49-35 0-4 9-5 21-2 16 4 18 3 9-8-8-9-5-14 10-18s24 1 30 16c7 20 9 21 15 4 7-17 16-18 99-12 50 3 99 9 108 11 16 5 17 27 18 243v237l-43-6c-23-3-57-2-75 3-28 7-35 4-57-19-14-15-25-23-25-19s-7 2-15-5c-10-9-15-9-15-1 0 6-3 10-7 10-5-1-19-1-33 0-18 1-21 4-11 10 7 5 10 14 7 20-4 6-3 11 3 11 5 0 12-4 15-9s20-6 38-2c36 7 66 49 67 93 1 16 9 32 20 38 21 11 54 3 45-11-3-5 1-9 8-9s-4-10-25-23c-29-18-35-25-25-35 7-7 16-12 22-12 5 0 17-7 27-16 16-14 19-14 38 5 12 12 26 21 31 21 6 0 10 9 10 20s-4 20-9 20c-6 0-22 11-36 24l-25 24 35 6 35 7-1 73-1 74-97 7c-72 4-110 2-154-9-80-22-82-21-100 24-15 38-17 40-36 28-12-7-21-16-21-21 0-4 4-6 8-3 5 3 6-8 4-25-2-16-8-29-12-29-5 0-4-16 2-36 12-44-7-124-28-124-17 0-18 17-1 23 9 4 9 8-2 15-8 6-11 17-8 26 3 8 2 18-3 21-6 4-10 15-10 26 0 10-4 19-9 19s-7 9-4 20c3 12 0 20-7 20s-9 8-5 20 2 20-5 20-9 7-6 17c4 9 1 20-5 24-20 12-2 41 21 34 15-5 20-2 20 11 0 17 1 17 13 1 6-9 27-20 45-23 26-5 32-3 32 11 0 15 2 15 16 4 13-10 17-10 24 1s11 11 23 1c9-7 18-8 21-2 3 5 23 8 44 6 20-1 40 2 44 8 4 7 11 7 21-2 11-8 17-9 22-1 4 6 15 8 25 5s21-1 25 5c3 6 12 7 18 3 14-9 47-8 70 2 15 6 17 22 17 125 0 127-4 150-26 150-20 0-30 30-13 41 11 6 6 17-24 47l-39 39 26 26c14 14 26 32 26 39 0 10-2 10-9-1-7-12-13-12-40 0-17 8-31 17-31 21 0 5-7 8-15 8s-19 9-25 20-19 20-29 20c-9 0-31 15-47 33-16 17-42 41-59 51-16 11-34 25-38 33-4 7-15 13-22 13-8 0-15 5-15 10 0 6-6 10-12 10-7 0-26 14-42 30-30 30-46 38-46 21 0-5 17-38 38-72 87-144 114-199 100-203-14-5-120-12-304-23-150-8-177-2-194 42-8 19-17 35-21 35s-10 13-14 30-11 30-16 30-9 5-9 10c0 6-9 19-20 30s-20 27-20 35-5 15-11 15-9 7-5 15c7 20-17 31-84 40-30 3-71 11-90 17-19 5-49 12-67 14-17 2-44 11-60 19-15 8-34 15-40 15-14 0-16 10-7 34 7 18 34 22 34 5 0-7 10-9 24-5 29 7 56-1 56-18 0-6 28-17 63-23 34-7 78-15 97-19l35-7-25 20c-14 11-34 23-45 27-17 6-17 9-5 15 8 5 25 12 38 15 18 6 22 3 22-13 0-22 32-45 46-33 5 4 3 0-3-8-21-23-16-27 38-34 29-4 64-9 79-12 23-5 30-1 47 28 23 40 39 93 24 84-6-4-22-4-36 0-27 7-33 31-14 65 7 15 7 24-1 34-11 14-3 38 28 76 10 13 10 16 0 16-7 0-23 3-35 7-14 5-23 3-23-3s-7-11-16-11c-34 0-94-24-94-37 0-22-28-15-61 15-24 21-32 37-31 59 1 28-3 31-36 37-20 3-50 13-66 21-16 9-37 13-47 10-12-4-22 1-29 15-15 27-80 29-80 2 0-28-6-30-60-19-49 9-50 9-87-27-21-20-44-36-51-36-10 0-12-6-7-17 16-39 17-64 1-88-12-19-13-25-4-26 7-1 22-3 33-5s40-6 65-10c56-7 70-18 70-56 0-16 6-31 15-34 21-8 19-21-5-27-16-4-20-13-19-54 1-26-2-77-6-113-13-130-10-190 10-190 8 0 15-4 15-10 0-5 6-10 14-10s17-7 20-16c3-8 10-13 15-9 5 3 12 1 16-4 3-6 26-13 50-17 25-3 45-11 45-16 0-6 6-8 14-5 7 3 18 1 23-4s27-11 47-13c21-2 42-10 47-17 4-7 11-10 15-6s13 2 20-4c8-6 20-9 28-6s17 0 19-8c3-7 24-16 46-20 23-4 43-11 47-16 3-5 10-7 15-3 5 3 16 1 23-5s21-9 30-5 16 1 16-6 8-10 20-7c10 3 21 0 23-7 8-22-6-46-27-46-17 0-19-2-6-11 11-7 12-12 3-15-7-3-9-12-6-20s0-14-6-14-11-7-11-15-5-15-11-15-9-7-5-15c3-8 1-15-4-15-6 0-10-7-10-15s-4-15-10-15c-5 0-10-7-10-15s-5-15-11-15c-5 0-7-4-4-10 3-5-3-19-14-31s-18-26-15-31c3-4 0-8-6-8-7 0-9-7-6-15 3-9-1-18-11-22-14-5-13-8 6-15 12-4 20-12 16-17-3-5-1-12 5-16 22-14 7-22-44-24-30-1-57 3-61 9-3 5 3 10 14 10 28 0 27 18-1 23l-23 4 23 2c12 0 22 7 22 15 0 9-7 12-19 9-10-3-22 0-25 6-4 6-16 11-27 11-10 0-19 5-19 11s-9 8-20 4c-12-4-20-2-20 5 0 6-8 10-17 9-19-2-45 6-76 22-11 6-21 8-24 5-3-2-20 4-39 15-19 10-42 19-50 19-18 0-44-24-44-40 0-6-7-13-15-16-8-4-12-11-8-17 4-7 0-8-13-2-43 17-62 17-83-4-12-12-28-21-36-21s-15-4-15-10c0-18-22-11-59 20-20 17-40 34-46 38-5 4-25 20-44 35-26 22-41 27-63 23-35-7-58 2-58 21 0 10 6 13 15 9 43-17 50-18 30-2-11 9-30 25-41 36-12 11-24 17-28 13-11-11-6-23 9-23 8 0 15-4 15-10 0-16-36-12-51 6-11 13-10 17 4 25s15 13 4 29c-12 21-47 28-47 10 0-5 7-10 15-10s15-7 15-15c0-18-14-19-38-4-16 10-17 16-8 45 10 31 25 40 59 35 4 0 7 8 7 20s8 23 20 26c11 3 17 9 14 14s4 9 15 9c12 0 21 4 21 9s9 11 20 14 23 13 27 23c10 27 63 75 74 68 6-3 9 0 8 7-3 22 12 49 28 49 8 0 11 4 8 10-3 5 1 20 9 32 14 20 14 24-1 40-14 16-15 23-5 38 6 11 8 22 3 24-9 6-6 176 4 206 4 12-1 19-15 23-18 5-21 12-18 49l3 43-37-3c-23-2-49 3-67 14-26 15-35 16-91 4-54-11-63-17-72-42-12-34-18-35-48-3-16 17-26 22-31 14-7-12-80 2-123 24-18 9-18 10-2 19 9 5 31 6 48 3 22-5 29-4 23 5-5 8-27 9-74 5-54-6-64-5-53 6 17 18 15 27-9 34-14 5-18 10-11 17 10 10 187 6 257-6 17-3 59-7 95-11 36-3 86-8 111-10 52-5 68 6 73 49 1 14 9 34 18 43 8 10 27 47 42 83 30 72 64 140 77 154 5 5 13 5 21-1 7-6 51-21 98-33s95-29 107-36c12-8 30-14 40-14 22 0 142-29 168-40 11-5 40-12 65-16 25-3 54-8 65-11 11-2 31-6 45-8 14-3 52-10 85-15 33-6 80-14 105-18 40-6 45-10 48-35 2-16-6-48-17-73-12-24-21-51-21-61 0-9-7-25-17-35-24-27-9-33 48-20 28 7 63 12 78 12 26 0 28 4 45 78 9 42 19 97 21 122 7 81 28 215 35 223 3 4 33-6 66-22 32-16 127-48 209-71 83-23 158-45 168-47 9-3 17-11 17-18 0-10-17-8-72 7-40 10-99 23-130 29-31 5-77 18-102 29-59 25-116 36-116 21 0-17 47-43 68-37 11 4 24 0 31-8 8-10 23-13 41-9 18 3 39-1 59-13 42-25 40-44-4-44-19 0-35-4-35-10 0-5-11-10-25-10-29 0-33 15-7 25 16 6 15 7-3 18-11 6-32 12-47 12-26 0-26-1-21-47 4-37 3-48-8-48-8 0-20-4-28-9-12-8-12-12-2-25 21-25 63-19 98 14 38 36 68 38 100 8 27-25 116-53 110-34-2 6-17 13-33 16s-29 11-28 18c3 33 5 34 42 28 24-4 32-3 23 3-36 24 22 41 73 21 26-9 26-9 26 43-1 51-23 97-49 97-11 0-119 84-138 108-16 19-2 46 41 81 17 14 57 50 89 80l57 54v519 518h-1253-1253l13-102c23-167 21-163 79-161 27 1 73 4 102 8 34 4 58 3 66-4 21-17 16-368-4-381-8-5-67-9-130-9-63 1-147-4-187-10-107-16-140 4-131 79 3 24 1 25-52 25-30 1-63-3-72-7-16-8-14-14 17-61 20-28 38-59 42-67 6-14 74-114 128-189 29-40 32-61 8-61-10 0-103-30-208-66-104-36-215-75-245-85s-64-23-75-28c-57-27-117-50-146-56-19-4-46-14-61-21-23-12-29-12-44 3-9 9-21 29-26 45-6 15-14 28-19 28s-9 7-9 14c0 8-13 35-30 59-16 25-44 71-60 103-17 33-51 91-75 129-47 74-55 105-29 105 18 0 101 25 149 45 30 12 66 22 175 50 30 8 84 23 120 35s103 34 150 49l85 28-1 54c0 49-2 54-22 52-25-3-214-73-354-131-121-51-303-112-331-112-25 0-56 27-147 130-99 111-141 150-162 150-33 0-16 33 22 45 19 6 44 15 55 21s32 14 48 18c15 3 27 11 27 16 0 6 13 10 29 10 35 0 109 25 131 44 8 8 28 18 44 22s41 13 55 20c14 8 31 14 36 14 14 0 136 51 229 95 90 43 100 41 153-26 56-71 164-182 170-176 3 4-2 56-12 117-9 60-15 117-11 125 5 13-108 15-995 15h-1e3l12-22zm3929-28c0-5-4-10-9-10-6 0-13 5-16 10-3 6 1 10 9 10 9 0 16-4 16-10zm-3384-79c21-15 48-38 58-50 19-21 19-21 0-21-20 0-114 75-114 91 0 15 15 10 56-20zm3445 14c20-3 135-7 255-11 304-7 453-19 469-35 8-8 18-43 23-79s20-135 32-221c13-86 20-164 17-173-6-14-22-15-129-10-68 3-273 6-456 7-283 2-335 5-342 17-15 28-42 477-30 500 11 21 28 21 161 5zm-767-190c-4-8-12-15-20-15s-14 7-14 15 9 15 20 15c13 0 18-5 14-15zm131 4c10-15-1-23-20-15-9 3-13 10-10 16 8 13 22 13 30-1zm-2604-27c-28-4-40 6-21 18 9 6 20 4 29-3 12-10 11-13-8-15zm2604-152c3-5-1-10-10-10s-13 5-10 10c3 6 8 10 10 10s7-4 10-10zm295-41c0-5-7-9-15-9-15 0-20 12-9 23 8 8 24-1 24-14zm140-9c0-5-11-10-25-10s-25 5-25 10c0 6 11 10 25 10s25-4 25-10zm-360-15c7-8 8-15 2-15-5 0-15 7-22 15s-8 15-2 15c5 0 15-7 22-15zm-80-37c0-13-23-5-28 10-2 7 2 10 12 6 9-3 16-11 16-16zm-2350-3c8-9 8-15 2-15-18 0-42 12-42 21 0 14 26 10 40-6zm128-3c3-9-2-13-14-10-9 1-19 9-22 16-3 9 2 13 14 10 9-1 19-9 22-16zm1977-12c-3-5-10-10-16-10-5 0-9 5-9 10 0 6 7 10 16 10 8 0 12-4 9-10zm-2197-16c-9-9-21-13-27-10-20 13-11 26 16 26 25 0 26-1 11-16zm-331-51c-3-10-5-4-5 12 0 17 2 24 5 18 2-7 2-21 0-30zm3648-3c3-5-1-10-10-10s-13 5-10 10c3 6 8 10 10 10s7-4 10-10zm145-10c0-5-2-10-4-10-3 0-8 5-11 10-3 6-1 10 4 10 6 0 11-4 11-10zm150-16c0-10-7-14-22-12-32 5-35 28-4 28 17 0 26-5 26-16zm-3495-4c-3-5-10-10-16-10-5 0-9 5-9 10 0 6 7 10 16 10 8 0 12-4 9-10zm155-11c0-5-9-9-20-9-19 0-26 11-14 23 8 8 34-3 34-14zm1340-9c0-5-5-10-11-10-5 0-7 5-4 10 3 6 8 10 11 10 2 0 4-4 4-10zm120-15c0-8-4-15-10-15-5 0-10 7-10 15s5 15 10 15c6 0 10-7 10-15zm927-11c-3-3-12-4-19-1-8 3-5 6 6 6 11 1 17-2 13-5zm673-4c0-5-7-10-16-10-8 0-12 5-9 10 3 6 10 10 16 10 5 0 9-4 9-10zm-585-39c50-11 140-29 200-41 142-28 151-36 121-103-8-18-16-45-19-62-9-58-30-150-38-170-7-19-12-40-26-108-7-37-35-51-76-38-18 6-57 15-87 20-115 21-217 40-264 49-50 10-100 47-80 60 12 8 49 118 59 177 4 22 14 47 22 56 7 9 11 24 7 33-3 9-2 22 4 29 5 6 13 34 16 60 6 36 13 50 29 57 12 5 27 7 32 5 6-2 51-12 100-24zm-2651 3c9-3 14-10 11-15-7-10-35 0-35 12 0 11 3 11 24 3zm153-20c-3-3-12-4-19-1-8 3-5 6 6 6 11 1 17-2 13-5zm3322-21c2-2-5-3-17-3-14 0-22 6-22 16 0 14 3 15 18 3 9-7 19-15 21-16zm191 23c0-11-19-15-25-6-3 5 1 10 9 10 9 0 16-2 16-4zm-3348-21c0-5-5-11-11-13s-11 4-11 13 5 15 11 13 11-8 11-13zm3278-15c0-21-15-27-25-10-7 12 2 30 16 30 5 0 9-9 9-20zm-220 0c0-5-4-10-10-10-5 0-10 5-10 10 0 6 5 10 10 10 6 0 10-4 10-10zm-1760-61c0-5-7-9-15-9-15 0-20 12-9 23 8 8 24-1 24-14zm113 6c8-18-11-31-25-17-11 11-3 32 12 32 4 0 10-7 13-15zm1507-21c0-18-34-18-49 0-10 11-8 16 6 24 20 12 43-1 43-24zm233 29c-7-2-19-2-25 0-7 3-2 5 12 5s19-2 13-5zm137-3c13-9 12-12-4-25-33-25-44-17-30 19 7 19 13 20 34 6zm-202-12c24-24 13-38-28-38h-40l16 25c18 27 34 31 52 13zm-1538-7c0-6-5-13-10-16-15-9-43 3-35 15 8 13 45 13 45 1zm1690-26c0-16-27-32-37-22-3 4-3 13 0 22 8 20 37 20 37 0zm-1470-15c0-5-4-10-10-10-5 0-10 5-10 10 0 6 5 10 10 10 6 0 10-4 10-10zm1219-11c-16-10-23-4-14 10 3 6 11 8 17 5 6-4 5-9-3-15zm-3176-26c-7-2-19-2-25 0-7 3-2 5 12 5s19-2 13-5zm67-33c0-5-5-10-11-10-5 0-7 5-4 10 3 6 8 10 11 10 2 0 4-4 4-10zm1666-20c10-10 94-17 245-19 51-1 92-6 102-13 10-9 21-47 32-113 30-190 42-280 37-293-6-16-193-10-403 13l-56 6v-33c0-54-15-138-24-138-5 0-9-15-9-32 0-61-10-80-36-74-31 8-32-10-1-18 20-6 20-7 5-17-10-5-18-21-18-34 0-20 7-26 43-36 23-6 46-14 52-17 5-3 19-7 32-8 20-2 22 2 25 48 2 33 8 53 17 56 11 4 13-8 9-61l-6-65 29-4c27-4 29-2 29 31 0 50 10 81 25 81 9 0 13-16 13-51 0-27 3-53 6-56 12-12 28 14 33 56 8 60 23 56 37-11 4-16 13-28 21-28s15-9 15-20 5-20 10-20c6 0 10-4 10-10 0-5-9-10-20-10s-20 7-20 15-4 15-10 15c-5 0-9-6-7-12 1-8-11-14-28-16-16-2-34-7-38-12-5-4-22-3-39 4-28 10-31 9-66-33-20-25-52-59-69-77-18-18-33-37-33-44 0-6-4-8-10-5-5 3-10-1-10-9 0-9-4-16-10-16-5 0-10-7-10-15s-8-15-17-15-14-3-11-6-8-20-25-37c-30-30-67-38-75-16-2 5-7 7-12 4-4-3-21 2-36 10-16 8-34 15-40 15-7 0-25 7-40 15-16 8-46 18-67 21-20 4-40 11-43 15-9 16-64 10-64-6 0-8 5-15 10-15 6 0 10 5 10 11 0 5 5 7 10 4 18-11 11-45-9-45-19 0-35 28-36 59 0 8-6 16-14 19-10 3-12 0-8-11 3-9 1-18-6-20-8-3-6-10 6-24 17-19 17-21 1-27-21-8-26-4-30 32-5 42-22 82-35 82-7 0-9-9-6-22 19-79 19-98 2-98-13 0-16 6-12 21 3 11-2 34-11 50-17 30-17 30 18 59 19 16 41 30 48 30 15 0 15 15 2 41-12 22-7 25 12 5 11-11 17-11 31-1 16 12 16 14-2 36-18 23-20 23-39 6-14-12-22-15-27-7-4 6-16 8-27 4-18-5-20-3-15 15 5 21 2 21-113 21-106 0-147 8-122 24 5 3 46 8 91 12 117 10 116 27-2 23-52-2-99-1-103 4-4 4 4 8 17 8 120 7 251 17 300 23 33 4 36 2 49-32 7-20 14-48 15-61 1-33 20-37 42-10 10 12 44 49 76 82 31 33 55 62 53 64-5 5-81 10-169 12l-58 1 7 38c3 20 13 44 21 52 12 13 16 13 31-6 25-31 53-36 103-19 24 9 54 13 67 10 12-3 22-1 22 5 0 16 32 11 70-11l35-20-46 5c-53 6-158-27-126-39 9-4 37-2 62 4 24 6 64 11 89 11 59 0 76 8 76 34 0 11 7 46 15 76l15 55-38 35c-45 41-86 65-100 56-10-6-27-72-23-93 1-6-3-14-9-18-5-3-10-16-10-27 0-38-28-58-82-58-69 0-72 18-23 133 5 12 3 17-7 17-9 0-28-30-46-71-20-44-37-69-44-67-21 7-20 43 1 81 11 19 17 38 13 41-12 12-9 52 6 81 9 18 11 30 4 33-14 4 6 68 29 88 15 14 27 14 90 4 40-6 79-16 86-22 7-5 24-7 38-4 14 4 34 1 45-6 18-11 23-10 36 7s17 18 47 6c17-8 52-16 77-19 24-2 49-11 55-19 12-17 49-7 42 12-6 15 30 38 38 25 9-15 25-12 25 4 0 9-15 17-40 21-22 4-42 11-46 16-9 15-22 10-29-11-8-26-36-41-62-34-23 6-26 17-44 164-19 155-22 144 36 151 28 3 52 7 56 7 3 1 10-3 15-8zm1292-8c2-7-4-15-13-18-20-8-27-1-19 20 7 18 25 17 32-2zm152-3c0-5-7-9-15-9s-15 7-15 15c0 9 6 12 15 9 8-4 15-10 15-15zm-2120-9c0-5-16-12-35-16-19-3-35-11-35-17s-3-7-7-4c-11 12 29 47 54 47 12 0 23-4 23-10zm2290-11c0-5-7-9-15-9-9 0-12 6-9 15 6 15 24 11 24-6zm-1988-12c-12-6-25-7-29-3-11 10 18 25 35 18 13-4 11-8-6-15zm1588 13c0-5-5-10-11-10-5 0-7 5-4 10 3 6 8 10 11 10 2 0 4-4 4-10zm543-32c-5-10-33 10-33 23 0 5 9 4 19-3 11-7 17-16 14-20zm-218 12c3-5-3-10-14-10s-23 5-26 10c-3 6 3 10 14 10s23-4 26-10zm-2150-20c0-9-11-16-28-18-26-3-28-2-17 18 13 23 45 23 45 0zm75-54c0-9-30-14-35-6-4 6 3 10 14 10 12 0 21-2 21-4zm-215-15c3-5 1-13-5-16-15-9-43 3-35 15 8 13 32 13 40 1zm148-5c16-13 16-14 1-20-19-7-54 1-54 13 0 23 27 27 53 7zm-246-42c-3-3-12-4-19-1-8 3-5 6 6 6 11 1 17-2 13-5zm2301-12c2-7-6-12-17-12-21 0-27 11-14 24 9 9 26 2 31-12zm-1978-7c0-8-9-15-20-15s-20 7-20 15 9 15 20 15 20-7 20-15zm-386-32c-2-37-1-38 27-20 17 10 22 9 33-5 7-10 21-18 31-18s36-15 59-33c23-19 49-36 59-40 9-3 17-11 17-16s11-12 25-15c31-8 94-50 112-75 11-17 8-23-30-59-23-22-55-51-70-64-21-17-29-35-34-73-3-27-7-52-9-54-7-7-139-7-150 1-6 4-35 10-65 13s-117 14-193 23l-140 18 1 122c2 201 5 208 78 203 23-2 39 7 65 32 60 59 122 97 155 94 27-2 30-5 29-34zm2141 27c4-6-5-10-20-10s-24 4-20 10c3 6 12 10 20 10s17-4 20-10zm145-21c0-12-27-11-35 1-11 17 5 32 21 19 8-6 14-15 14-20zm235 21c3-5-3-10-15-10s-18 5-15 10c3 6 10 10 15 10s12-4 15-10zm-55-36c0-2-7-4-15-4s-15 4-15 10c0 5 7 7 15 4 8-4 15-8 15-10zm-2158-16c-6-6-20-7-33-2l-24 8 25 6c30 8 46 2 32-12zm1756 5c2-8-6-13-22-13-19 0-24 4-19 15 6 18 34 16 41-2zm150 0c2-8-5-13-17-13s-21 6-21 16c0 18 31 15 38-3zm-1758 3c0-3-4-8-10-11-5-3-10-1-10 4 0 6 5 11 10 11 6 0 10-2 10-4zm1925-26c3-5-1-10-9-10-9 0-16 5-16 10 0 6 4 10 9 10 6 0 13-4 16-10zm-405-10c12-8 11-10-7-10-13 0-23 5-23 10 0 13 11 13 30 0zm560-10c0-5-2-10-4-10-3 0-8 5-11 10-3 6-1 10 4 10 6 0 11-4 11-10zm-400-9c0-5-9-7-20-4s-20 7-20 9 9 4 20 4 20-4 20-9zm135-11c3-5 1-10-4-10-6 0-11 5-11 10 0 6 2 10 4 10 3 0 8-4 11-10zm-775-41c0-5-9-9-20-9-22 0-27 16-7 23 15 5 27-1 27-14zm720 1c0-5-9-10-21-10-11 0-17 5-14 10 3 6 13 10 21 10s14-4 14-10zm175-10c3-6-1-13-10-16-19-8-30 0-20 15 8 14 22 14 30 1zm523-67c-2-10-10-18-18-18s-16 8-18 18c-2 12 3 17 18 17s20-5 18-17zm-1063-50c-8-36-18-45-38-37-14 5-14 9 5 35 27 37 42 37 33 2zm-1150-23c-3-5-11-10-16-10-6 0-7 5-4 10 3 6 11 10 16 10 6 0 7-4 4-10zm5-71c0-5-4-9-10-9-5 0-10 7-10 16 0 8 5 12 10 9 6-3 10-10 10-16zm1088-40c-21-38-38-34-38 9 0 48 9 58 32 34 16-16 17-21 6-43zm82 11c0-5-8-10-17-10-15 0-16 2-3 10 19 12 20 12 20 0zm230-43c0-5-7-4-15 3s-15 20-15 29c1 13 3 13 15-3 8-11 15-24 15-29zm-1100-48l45-19-40 6c-67 9-135 27-135 36 0 12 78-2 130-23zm-140-89c0-5-4-10-10-10-5 0-10 5-10 10 0 6 5 10 10 10 6 0 10-4 10-10zm567-154c0-120-1-124-21-123-12 0-26 5-33 10s-17 6-22 3c-5-4-13-2-16 4-4 6-15 8-25 5s-21-1-25 5c-5 8-10 8-20 0s-15-8-20 0c-4 6-14 9-23 5-8-3-19 0-24 7-6 10-10 10-18-2-7-11-12-12-21-3-6 6-18 9-26 6s-19 0-25 8c-7 10-11 11-14 2-9-20-34-2-34 23 0 21 5 24 34 24 19 0 36-6 39-12 3-10 8-10 21 1 14 12 18 12 31-5 8-10 15-14 15-8 0 15 53 12 73-4 12-10 16-10 20 0s9 8 17-5c9-14 15-15 33-5 12 7 29 12 37 13 11 0 17 21 24 88 4 48 12 87 16 87s7-56 7-124zm-197 84c0-20-5-30-15-30-18 0-20 31-3 48s18 16 18-18zm-1025-45c0-5-10-11-22-13-16-2-23 2-23 13s7 15 23 13c12-2 22-7 22-13zm-105-4c0-10-26-9-36 2-4 4 2 7 14 7s22-4 22-9zm1040-20c25-5 35-9 23-10-12 0-25-6-28-12-5-7-13-4-26 7-11 10-28 15-44 12-14-3-25-1-25 3 0 11 39 10 100 0zm70-22c0-6-4-7-10-4-5 3-10 11-10 16 0 6 5 7 10 4 6-3 10-11 10-16zm-162-42c3-25 1-27-22-21-14 3-37 7-51 8-31 1-31 3-2 27 33 28 71 21 75-14zm962-23c0-8-6-14-14-14-9 0-12 7-9 20 6 22 23 18 23-6zm-1770 6c0-5-4-10-10-10-5 0-10 5-10 10 0 6 5 10 10 10 6 0 10-4 10-10zm1570 0c0-5-4-10-10-10-5 0-10 5-10 10 0 6 5 10 10 10 6 0 10-4 10-10zm110-60c0-5-2-10-4-10-3 0-8 5-11 10-3 6-1 10 4 10 6 0 11-4 11-10zm-1700-20c0-17-28-18-33-1-3 14 0 17 14 14 11-3 19-9 19-13zm-90-4c0-2-7-7-16-10-8-3-12-2-9 4 6 10 25 14 25 6zm1886-25c-4-6-17-11-28-11-21 0-21 1-3 20 19 21 44 13 31-9zm-1939 13c-3-3-12-4-19-1-8 3-5 6 6 6 11 1 17-2 13-5zm393-16c0-13-23-5-28 10-2 7 2 10 12 6 9-3 16-11 16-16zm-376-23c-4-9-19-15-36-15s-27 4-23 10 11 8 16 5c5-4 17-1 26 4 23 14 23 14 17-4zm72 2c3-3 1-8-5-12-6-3-11 0-11 7 0 10-2 10-9-1-9-14-31-7-31 9 0 9 47 7 56-3zm64 3c0-5-6-10-14-10s-18 5-21 10c-3 6 3 10 14 10 12 0 21-4 21-10zm1060-20c12-8 9-10-12-10-16 0-28 5-28 10 0 13 20 13 40 0zm-200-10c13-9 13-10 0-10-8 0-22 5-30 10-13 9-13 10 0 10 8 0 22-5 30-10zm1447 4c-3-3-12-4-19-1-8 3-5 6 6 6 11 1 17-2 13-5zm-393-29c3-10-1-15-14-15-20 0-33 13-23 24 11 11 31 6 37-9zm131 4c11-16 1-19-13-3-7 8-8 14-3 14s13-5 16-11zm-2158-71c-3-7-5-2-5 12s2 19 5 13c2-7 2-19 0-25zm2503 12c0-5-2-10-4-10-3 0-8 5-11 10-3 6-1 10 4 10 6 0 11-4 11-10zm220-30c0-5-2-10-4-10-3 0-8 5-11 10-3 6-1 10 4 10 6 0 11-4 11-10zm-339-18c-7-2-18 1-23 6-8 8-4 9 13 5 13-4 18-8 10-11zm-1491-12c18-18 18-21 5-26-18-7-58 24-49 37 8 14 23 10 44-11zm1445 0c18-8 17-9-7-9-16-1-28 4-28 9 0 12 8 12 35 0zm190 0c3-5-1-10-9-10-9 0-16 5-16 10 0 6 4 10 9 10 6 0 13-4 16-10zm169-6c23-9 20-23-4-17-11 3-20 9-20 14 0 11 3 11 24 3zm-189-14c3-5-1-10-9-10-9 0-16 5-16 10 0 6 4 10 9 10 6 0 13-4 16-10zm-9-57c-1 0-12-3-26-5-16-2-25 2-25 11 0 8-6 15-13 17-7 1-8 0-2-3 5-2 8-9 5-14-4-5-12-3-19 3-10 10-9 15 7 28 19 15 22 15 47-9 15-14 27-27 26-28zm-1550 33c19-19 18-26-5-26-21 0-45 23-34 33 10 11 23 8 39-7zm1368-1c19-15 19-15-1-15-11 0-26 7-33 15-17 20 7 20 34 0zm231 5c3-6-1-7-9-4-18 7-21 14-7 14 6 0 13-4 16-10zm-1538-55c3-9 3-18 0-21-7-8-47 15-47 26 0 16 40 11 47-5zm1273-12c13-13 12-14-10-8-14 4-32 14-40 22-13 13-12 14 10 8 14-4 32-14 40-22zm127-9c9-24-3-27-36-9-32 16-43 32-15 21 12-4 15-2 10 9-5 13-2 14 15 5 11-6 23-18 26-26zm-1567 11c11-13 10-14-4-9-9 3-16 10-16 15 0 13 6 11 20-6zm37 9c-3-3-12-4-19-1-8 3-5 6 6 6 11 1 17-2 13-5zm1663-13c0-5 8-11 19-13 12-2 16-8 12-19-5-13-10-11-29 13-13 15-19 28-13 28s11-4 11-9zm-323-7c-3-3-12-4-19-1-8 3-5 6 6 6 11 1 17-2 13-5zm533-14c13-8 13-10-2-10-9 0-20 5-23 10-8 13 5 13 25 0zm-1970-10c20-12 6-24-46-38-60-17-62-15-24 18 38 32 47 35 70 20zm47 4c-3-3-12-4-19-1-8 3-5 6 6 6 11 1 17-2 13-5zm77-9c16-12 17-15 4-15-8 0-21 7-28 15-16 19-1 19 24 0zm-204-5c-8-5-19-10-25-10-5 0-3 5 5 10s20 10 25 10c6 0 3-5-5-10zm153-22c7-24-8-39-29-31-13 5-13 20-1 41 12 18 24 15 30-10zm1912 12c3-5 2-10-4-10-5 0-13 5-16 10-3 6-2 10 4 10 5 0 13-4 16-10zm-428-6c-3-3-12-4-19-1-8 3-5 6 6 6 11 1 17-2 13-5zm-1327-13c0-4-21-14-47-21-27-6-54-14-60-16-7-2-13 3-13 11 0 9 10 15 28 16 15 0 36 4 47 9 27 11 45 12 45 1zm1221-3c52-15 49-25-5-24-48 1-62 8-51 25 8 14 9 14 56-1zm279 3c0-5-9-7-20-4s-20 7-20 9 9 4 20 4 20-4 20-9zm177-23c-16-10-21-2-13 19 6 15 9 15 16 3 6-9 5-17-3-22zm-330-4c-3-3-12-4-19-1-8 3-5 6 6 6 11 1 17-2 13-5zm483 2c0-3-4-8-10-11-5-3-10-1-10 4 0 6 5 11 10 11 6 0 10-2 10-4zm-2046-35c-2-3-12 3-22 13-16 17-16 18 5 5 12-7 20-15 17-18zm1508 3c-24-17-39-14-27 5 3 6 16 11 28 11h21l-22-16zm279-2c-7-2-18 1-23 6-8 8-4 9 13 5 13-4 18-8 10-11zm-1751-12c0-5-5-10-11-10-5 0-7 5-4 10 3 6 8 10 11 10 2 0 4-4 4-10zm45-18c-8-8-25 10-19 20 4 6 9 5 15-3 4-7 6-15 4-17zm123 2c8-6-94-30-108-25-9 4-5 7 13 9 20 3 27 8 23 18-5 12 1 14 32 8 20-4 39-8 40-10zm1318 7c-3-5-15-11-26-14-17-4-19-3-9 9 12 15 44 20 35 5zm-1476-23c-1-23-27-51-35-38-6 9-10 9-16-1s-9-11-9-2c0 18 32 53 47 53 7 0 13-6 13-12zm200-7c0-11-8-27-17-37-17-17-18-17-21 5-4 22 13 51 29 51 5 0 9-9 9-19zm1190-20c0 7 10 9 27 4 35-8 33-7 26-33-4-16-13-22-35-22-18 0-27 4-23 10s16 8 28 4c18-5 20-4 9 7-7 8-27 14-44 14s-33 6-35 13c-4 9 1 10 21 2 18-6 26-6 26 1zm168-4c10 4 13 1 10-8s-15-13-34-11c-27 3-28 3-10-11 18-13 18-14-3-20-17-4-21-1-21 17 0 27 20 50 33 37 5-5 16-7 25-4zm-248-11c0-3-4-8-10-11-5-3-10-1-10 4 0 6 5 11 10 11 6 0 10-2 10-4zm-80-16c0-6-11-10-25-10s-25 4-25 8 11 9 25 10 25-3 25-8zm255-23c0-16 6-22 22-22 11 0 25-3 29-7 4-5 1-8-7-8-12 0-12-2 1-10 12-8 12-10-2-15-9-4-33-5-54-3-44 3-51 22-20 52 14 14 16 21 7 24-11 4-11 6 0 13 17 10 24 3 24-24zm-1475-17c0-23-16-43-29-36-7 5-6 15 6 34l17 27-22-19c-25-22-30-6-6 19 14 13 19 14 25 3 5-7 9-20 9-28zm1260 36c0-2-7-7-16-10-8-3-12-2-9 4 6 10 25 14 25 6zm-572-24c6-18-15-14-22 4-4 10-1 14 6 12 6-2 14-10 16-16zm47 8c3-5-1-10-9-10-9 0-16 5-16 10 0 6 4 10 9 10 6 0 13-4 16-10zm583-23c57-19 40-38-34-36-52 2-64 5-60 16 4 8 6 19 6 24 0 11 46 9 88-4zm-578-7c12-8 11-10-7-10-13 0-23 5-23 10 0 13 11 13 30 0zm175-10c3-5-3-10-14-10-12 0-21 5-21 10 0 6 6 10 14 10s18-4 21-10zm1106-22c13-24 1-39-12-15-9 15-14 15-42 4-37-15-72-9-72 13 0 32 109 31 126-2zm-1124-12c12-4 23-17 25-29s13-26 26-32c26-11 29-25 6-25-10 0-14-6-10-15 6-17-30-21-54-5-12 8-10 10 10 11 17 1 19 3 8 6-25 6-22 23 3 23 18 0 19 2 9 15-7 8-28 15-47 15-27 0-34 3-29 15 7 20-11 19-22-1-5-9-15-15-23-12-9 3 1 14 26 30 22 14 42 22 45 18s15-10 27-14zm796-2c-4-10-9-12-15-6-12 12-1 35 12 27 5-3 6-13 3-21zm86 9c-12-14-12-16 0-9 9 6 12 4 9-5-5-16-48-25-48-10 0 13 29 41 42 41 6 0 5-7-3-17zm51-10c0-13-3-13-15-3-8 7-12 16-9 21 8 13 24 1 24-18zm50 11c0-8-9-14-20-14s-20 6-20 13 9 13 20 14 20-4 20-13zm-485-54c-5-15-2-20 13-20 11 0 23 6 25 13 4 7 6 8 6 1 2-27-28-37-69-25-22 6-40 16-40 21 0 17-28 11-39-7-11-20-14-9-5 23 4 16 12 20 40 18 20-2 32 1 29 6-4 6-1 10 5 10s8 6 4 13c-4 6 3 2 15-11 15-15 20-29 16-42zm-326 41c16-4 25-15 26-29 1-18-3-22-29-22-49 0-75 10-69 26 3 8-1 14-8 14s-9 3-6 6c4 4 14 1 22-6 9-7 15-9 14-4-4 25 4 28 50 15zm174-6c28-11 34-19 30-35-5-17-14-20-64-20-41 0-59 4-59 13 1 19 24 44 38 40 6-3 12 0 12 6 0 14 1 14 43-4zm-1284-11c-9-8-23-16-32-18-9-1-25-10-37-21-27-24-26-5 1 24 15 16 24 19 29 12 5-9 10-7 20 4 7 8 17 15 23 15s4-7-4-16zm731-4c0-5-4-10-10-10-5 0-10 5-10 10 0 6 5 10 10 10 6 0 10-4 10-10zm446-25c-5-21-3-25 16-25 13-1 34-7 46-14 22-12 23-14 7-29-18-19-110-24-120-7-4 6 7 10 24 10s31 4 31 9-14 8-31 7c-18 0-34 5-36 12-3 7 4 12 16 12s21 5 21 10c0 10 21 39 29 40 2 0 0-11-3-25zm343-1c-14-18-24-11-15 11 3 9 11 13 16 10 8-5 7-11-1-21zm-1174 6c-27-12-43-12-25 0 8 5 22 9 30 9 10 0 8-3-5-9zm471-25c-3-8 2-21 10-30 14-13 12-14-18-9-51 9-60 13-52 25 4 8 3 9-4 5s-12-3-12 3c0 12 18 19 54 20 21 1 27-3 22-14zm584-36c12-7 12-8-4-9-16 0-17-2-5-16s11-16-6-12c-11 2-19 9-18 15s-7 13-18 16c-16 4-19 2-14-14 7-21-3-23-45-9-25 8-25 8 5 10 17 1 23 4 15 7-8 2-22 7-30 9-11 4-12 7-2 13 15 9 101 3 122-10zm320 2c-13-26-13-31 4-31 14 0 26-29 26-62 0-31-37-21-54 14-9 17-16 36-15 42 0 6 4 2 9-9 7-16 9-13 9 16 1 36 7 49 23 49 5 0 4-9-2-19zm-634-20c-4-6-14-7-23-4-15 6-14 7 3 13 22 9 29 6 20-9zm-436-39c30-13 44-20 30-16-14 3-41 5-60 5-26-1-31 1-20 9 12 8 9 10-13 10-23 0-26 2-15 14 7 8 15 11 18 7s30-17 60-29zm246 9c-3-4 11-8 32-7 25 1 36-3 35-11-2-7 4-13 12-13s15-4 15-8c0-12-114-2-122 11-9 15 2 37 19 37 8 0 12-4 9-9zm277-33c-3-16-10-28-15-28s-6-5-2-11c4-8 9-7 15 2 6 10 13 7 28-12 26-31 26-36-4-42-30-5-79 28-71 49 6 16-11 23-49 17-16-3-41 0-55 6-23 9-22 10 15 11 22 1 33 4 25 7-44 14-45 16-17 24 35 10 58 2 50-17-3-8 1-14 10-14s24-3 34-6c11-3 8 1-7 11l-25 16 28-4c22-3 27 0 27 16 0 13 4 17 9 12 5-6 7-22 4-37zm147 11c0-6-4-7-10-4-5 3-10 11-10 16 0 6 5 7 10 4 6-3 10-11 10-16zm-763 5c-3-3-12-4-19-1-8 3-5 6 6 6 11 1 17-2 13-5zm123-52c0-7-3-12-7-10-51 24-62 32-52 38 15 10 59-12 59-28zm177-2c3-11 12-20 19-20 8 0 14-4 14-10 0-14-23-12-56 5-16 8-37 15-46 15-10 0-18 5-18 11 0 5 4 7 10 4 5-3 18-1 27 4 28 16 44 13 50-9zm898-10c4-6-7-10-24-10s-31 5-31 10c0 6 11 10 24 10 14 0 28-4 31-10zm-1096-34c0-7-2-7-5 1-3 7-11 11-17 9-7-1-9-1-4 1 4 3 4 10 0 16-4 7 1 6 10-2 9-7 17-19 16-25zm125-5c-10-2-20 2-22 8-3 9-9 8-21-3s-25-13-45-8c-25 7-26 9-12 21 10 8 26 11 42 7 18-5 24-3 18 5-4 7 8 3 25-7 26-15 29-20 15-23zm250-3c-22-6-84 13-84 25 0 2 25-2 56-7 49-9 52-11 28-18zm765 23c7-5 9-11 5-14-17-10-84-11-83-2 0 6 11 9 25 8 13-1 24 2 24 8 0 11 11 11 29 0zm-720-42c-22-14-33-10-19 6 7 8 17 12 22 9 6-4 5-10-3-15zm-1045 5c9-3 16-10 16-15 0-4-6-6-12-4-7 3-25-6-40-20s-32-25-38-25c-5 0-10-4-10-10 0-5-7-10-15-10-9 0-12 6-9 15 4 9 0 15-7 15-8 0 9 13 36 29 57 33 58 33 79 25zm962-21c-7-7-26 7-26 19 0 6 6 6 15-2 9-7 13-15 11-17zm-136-19c0-2-24-3-52-3-43 1-47 3-23 8 28 6 75 3 75-5zm-243 0c-3-3-12-4-19-1-8 3-5 6 6 6 11 1 17-2 13-5zm287-10c9-8 16-30 15-47l-1-32-10 35c-5 19-17 41-26 48-8 6-11 12-5 12 7 0 19-7 27-16zm-84-14l25-8-25-1c-14 0-32 4-40 9-13 9-13 10 0 9 8-1 26-5 40-9zm-245-49c3-5 1-12-5-16-5-3-10 1-10 9 0 18 6 21 15 7zm175-17c0-2-18-4-40-4s-40 3-40 8c0 4 18 6 40 4s40-6 40-8zm93-24c3-11 1-18-4-14-5 3-9 12-9 20 0 20 7 17 13-6zm112 10c15-6 8-9-27-9-26-1-50 4-53 9-8 12 52 12 80 0zm-202-7c-7-2-19-2-25 0-7 3-2 5 12 5s19-2 13-5zm247-33c0-5-2-10-4-10-3 0-8 5-11 10-3 6-1 10 4 10 6 0 11-4 11-10zm-147-17c-7-2-19-2-25 0-7 3-2 5 12 5s19-2 13-5zm-6-29c-3-3-12-4-19-1-8 3-5 6 6 6 11 1 17-2 13-5zm53-4c0-5-5-10-11-10-5 0-7 5-4 10 3 6 8 10 11 10 2 0 4-4 4-10zm33-20c3-11 1-18-4-14-5 3-9 12-9 20 0 20 7 17 13-6zm169-52c-2-5-13-8-25-8-20 1-20 2-4 11 10 6 18 23 18 42l2 32 6-35c4-19 5-38 3-42zm-125 56c-3-3-12-4-19-1-8 3-5 6 6 6 11 1 17-2 13-5zm-37-44c0-5-8-10-17-10-15 0-16 2-3 10 19 12 20 12 20 0zm1060-18c0-5-7-17-16-28-15-18-15-18-10 0 5 13 2 17-9 12-15-5-21 5-8 17 9 10 43 9 43-1zm-1023-16c4-4-9-6-30-4-20 1-37 6-37 10 0 9 57 4 67-6zm951-6c-8-12-15-15-19-8-4 6-12 7-18 4-6-4-11-3-11 2 0 15 12 22 37 22 21 0 22-2 11-20zm-831-6c-3-3-12-4-19-1-8 3-5 6 6 6 11 1 17-2 13-5zm963-46c0-18-17-7-29 19-13 28-13 28 8 9 12-11 21-23 21-28zm23 35c-7-2-19-2-25 0-7 3-2 5 12 5s19-2 13-5zm-1023-23c18-12 2-12-25 0-13 6-15 9-5 9 8 0 22-4 30-9zm1040 0c0-5-5-10-11-10-5 0-7 5-4 10 3 6 8 10 11 10 2 0 4-4 4-10zm-180-11c0-6 7-9 15-5 8 3 15 1 15-5 0-14-42-7-48 9-2 6 1 12 7 12s11-5 11-11zm100 1c0-11-22-18-37-12-21 7-15 17 12 18 14 1 25-2 25-6zm-470-180c0-11-7-20-15-20-15 0-21 21-8 33 12 13 23 7 23-13zm-91-116c10-9-35-3-49 6-11 8-7 9 15 4 17-4 32-8 34-10zm-224-24c3-5 1-10-4-10-6 0-11 5-11 10 0 6 2 10 4 10 3 0 8-4 11-10zm475-204c0-3-4-8-10-11-5-3-10-1-10 4 0 6 5 11 10 11 6 0 10-2 10-4zm137-22c-3-3-12-4-19-1-8 3-5 6 6 6 11 1 17-2 13-5zm-34-41c3-5-9-9-26-10-26-1-28 0-12 7 26 11 33 12 38 3zm-98-43c18-19 17-20-6-20-19 0-21 2-9 10 10 6 11 10 3 10-7 0-13 5-13 10 0 14 5 13 25-10zm270 10c3-5 1-10-4-10-6 0-11 5-11 10 0 6 2 10 4 10 3 0 8-4 11-10zm-381-25c16-12 17-15 4-15-8 0-21 7-28 15-16 19-1 19 24 0zm256-16c0-5-7-9-15-9-15 0-20 12-9 23 8 8 24-1 24-14zm220-9c8-5 11-10 5-10-5 0-17 5-25 10s-10 10-5 10c6 0 17-5 25-10zm-453-46c-3-3-12-4-19-1-8 3-5 6 6 6 11 1 17-2 13-5zm373-4c0-5-2-10-4-10-3 0-8 5-11 10-3 6-1 10 4 10 6 0 11-4 11-10zm25-30c3-5 1-10-4-10-6 0-11 5-11 10 0 6 2 10 4 10 3 0 8-4 11-10zm-290-10c3-5-1-10-9-10-9 0-16 5-16 10 0 6 4 10 9 10 6 0 13-4 16-10z"/>
<path d="m4941 3400c-4-3-11-18-14-35-3-16-8-45-12-63-7-34-1-39 67-56 22-5 30-2 39 16 10 19 8 25-20 47-17 14-31 32-31 39 0 15 89 16 123 1 18-8 30-8 47 1 12 6 19 14 16 17-8 9-206 39-215 33z"/>
<path d="m5205 3340c-21-23-15-55 15-88 11-12 17-22 13-22-4-1 6-7 22-14 17-7 33-11 37-7 3 3 13 30 22 60 17 58 12 71-28 71-16 0-15-2 5-19 22-17 22-21 9-45-11-22-20-26-44-24-38 4-47 37-18 66 15 15 17 23 9 31-15 15-21 14-42-9z"/>
<path d="m4880 3198c0-7-3-22-6-34-5-18 1-22 43-32 26-6 59-13 73-17 24-6 24-6-5 19-16 14-41 37-55 51-28 27-50 33-50 13z"/>
<path d="m5184 3182c-5-4-10-28-11-54-1-39 2-47 20-52 52-14 66-8 77 35 6 22 14 47 17 55 4 12 0 14-19 9-13-3-35-2-49 4-14 5-30 6-35 3z"/>
<path d="m4415 3078c-38-14-55-27-55-44 0-21 20-17 62 12 55 39 52 53-7 32z"/>
<path d="m4287 3010c-24-28-21-33 8-14 14 9 25 20 25 25 0 15-15 10-33-11z"/>
<path d="m4325 2990c3-5 11-10 16-10 6 0 7 5 4 10-3 6-11 10-16 10-6 0-7-4-4-10z"/>
<path d="m3940 2899c0-5 5-7 10-4 6 3 10 8 10 11 0 2-4 4-10 4-5 0-10-5-10-11z"/>
<path d="m3835 2880c-28-31-9-37 21-7 18 19 22 27 12 27-8 0-23-9-33-20z"/>
<path d="m4155 2860c3-5 16-15 28-21 22-12 22-12 3 10-19 21-43 30-31 11z"/>
<path d="m4180 2734c0-8 5-12 10-9 6 3 10 10 10 16 0 5-4 9-10 9-5 0-10-7-10-16z"/>
<path d="m4166 2675c-3-8-1-15 4-15 6 0 10 7 10 15s-2 15-4 15-6-7-10-15z"/>
<path d="m4020 2491c0-5 13-12 30-16 16-4 32-11 35-16 11-16 25-10 25 11 0 11-6 20-12 21-7 0-28 2-45 5-18 2-33 0-33-5z"/>
<path d="m3925 2438c-38-20-134-113-196-190l-30-37 23-15c13-8 57-27 98-41 195-67 222-75 239-75 26 0 231 217 231 245 0 13-25 32-38 27-6-2-12 2-12 8 0 7-11 4-27-8-16-10-57-30-93-44-54-21-70-34-95-71-28-42-69-78-106-92-23-9-79 41-79 71 0 13-5 24-11 24-8 0-8 5 1 15 7 8 24 15 37 15 17 0 23 4 20 14-7 17 21 26 80 26 25 0 45 6 50 14 4 7 28 26 53 41s47 29 49 31c7 7-33 33-41 28-5-3-8-2-8 3 0 4-12 9-26 10-15 0-30 6-34 13-6 9-9 9-15 1-4-8-11-9-18-2-8 6-26 2-52-11zm60-48c-3-5-10-10-16-10-5 0-9 5-9 10 0 6 7 10 16 10 8 0 12-4 9-10z"/>
<path d="m3605 2420c-18-8-18-9 5-8 14 0 39 4 55 8l30 8h-35c-19 0-44-3-55-8z"/>
<path d="m4035 2320c4-6 11-8 16-5 14 9 11 15-7 15-8 0-12-5-9-10z"/>
<path d="m3920 2290c-19-6-12-8 29-9 30-1 52 1 50 3-11 9-57 13-79 6z"/>
<path d="m3230 2873c-1-29-45-108-61-108s-14 53 2 70c5 5 9 18 9 29 0 35-24-2-46-69-10-33-23-63-27-66-11-8-4-119 8-122 6-1 11 13 13 31 4 38 23 39 32 1 5-20 14-25 58-33 29-5 55-6 58-3s-13 24-35 47c-23 23-41 51-41 62 0 53 52 80 69 36l9-23 10 25c5 14 8 30 5 36-2 6 3 17 12 24 8 7 15 21 15 32 0 17-3 18-15 8-8-7-15-18-15-24 0-21-17-37-33-30-13 5-15 15-10 50 4 30 2 44-6 44-6 0-11-8-11-17zm-60-158c0-7-7-12-15-11-20 3-28 13-21 25 9 13 36 3 36-14z"/>
<path d="m3366 2844c-3-9-6-25-6-37 0-20 0-20 15-1 16 21 20 54 6 54-5 0-12-7-15-16z"/>
<path d="m3442 2838c-6-6-12-21-12-32 0-20 1-19 16 2 18 26 15 49-4 30z"/>
<path d="m3511 2832c-7-13-11-31-9-40 3-14 6-13 17 6 7 13 11 31 9 40-3 14-6 13-17-6z"/>
<path d="m3342 2763c-6-12-12-30-12-39 0-17 1-17 16-2 9 8 14 26 12 39l-3 24-13-22z"/>
<path d="m3566 2765c-3-8-1-15 4-15 6 0 10 7 10 15s-2 15-4 15-6-7-10-15z"/>
<path d="m3406 2757c-17-13-17-14-1-30 21-22 35-22 35 1 0 32-14 44-34 29z"/>
<path d="m3487 2754c-4-4-7-14-7-23 0-11 3-12 11-4 6 6 10 16 7 23-2 6-7 8-11 4z"/>
<path d="m3510 2689c0-5 5-7 10-4 6 3 10 8 10 11 0 2-4 4-10 4-5 0-10-5-10-11z"/>
<path d="m3495 2570c3-5 8-10 11-10 2 0 4 5 4 10 0 6-5 10-11 10-5 0-7-4-4-10z"/>
<path d="m4230 1770c0-5 5-10 11-10 5 0 7 5 4 10-3 6-8 10-11 10-2 0-4-4-4-10z"/>
<path d="m5205 1470c28-12 37-12 30 0-3 6-16 10-28 9-21 0-21-1-2-9z"/>
<path d="m5510 1450c0-5 5-10 11-10 5 0 7 5 4 10-3 6-8 10-11 10-2 0-4-4-4-10z"/>
<path d="m5540 1446c0-2 9-6 20-9s20-1 20 4-9 9-20 9-20-2-20-4z"/>
<path d="m5488 1373c6-2 18-2 25 0 6 3 1 5-13 5s-19-2-12-5z"/>
<path d="m5060 1406c0-2 7-7 16-10 8-3 12-2 9 4-6 10-25 14-25 6z"/>
<path d="m3809 4246c-2-2-80-9-174-15-93-7-173-15-177-19s-2-43 3-87c6-44 14-137 18-207l7-128 33-29c35-31 29-31 146-12 35 6 40 10 47 41 4 19 5 74 2 121-8 103-4 108 87 99 42-4 63-2 66 6 7 19-31 227-43 231-5 2-12 2-15-1zm-26-97c29-31 36-76 15-97-20-20-34-14-49 20-13 31-17 33-69 35-46 1-57-2-77-23-40-43-83-23-83 39 0 22 8 27 53 41 106 32 169 27 210-15zm-88-129c-3-5-14-10-23-10-15 0-15 2-2 10 20 13 33 13 25 0z"/>
<path d="m3113 3889c-37-11-42-28-14-46 16-10 27-9 55 2 39 16 43 24 24 43-14 14-21 14-65 1z"/>
<path d="m3838 3853c-23-6-23-28 1-62 11-15 21-42 23-60 3-38 26-58 53-47 17 6 17 7 1 25-10 11-20 42-22 73-8 82-9 83-56 71z"/>
<path d="m1860 3680c0-5 5-10 10-10 6 0 10 5 10 10 0 6-4 10-10 10-5 0-10-4-10-10z"/>
<path d="m3300 3668c-30-11-59-24-64-29-6-5-24-9-41-9s-55-12-84-26c-28-15-54-24-57-21-10 9-64-14-64-28 0-7 19-23 43-34 51-25 58-26 51-8-9 23 23 42 50 29 29-13 89 5 109 33 12 15 17 16 36 5 30-15 46 0 46 43 0 24 5 32 23 37 22 5 33 23 15 26-4 1-33-7-63-18z"/>
<path d="m3509 3678c0-2-2-32-5-67-3-41-12-73-25-90-13-18-20-44-21-83-1-57-2-57-40-73-21-8-45-15-54-15-8 0-13-4-10-9 6-9 69 4 181 38 33 10 79 24 103 30 23 7 42 15 42 20 0 19-167 263-171 249z"/>
<path d="m3380 3600c0-5 3-10 8-11 4 0 17-2 30-3 12-2 22 1 22 5 0 3-10 9-22 13-32 8-38 7-38-4z"/>
<path d="m2930 3539c0-5 5-7 10-4 6 3 10 8 10 11 0 2-4 4-10 4-5 0-10-5-10-11z"/>
<path d="m3332 3508c5-15 37-18 41-3 1 6-9 12-22 13-16 3-22-1-19-10z"/>
<path d="m318 3502c-24-10-60-60-53-72 4-6 1-18-6-26-15-18-3-32 13-16 17 17 77 15 84-3 4-8 10-15 15-15s28-12 50-26c23-14 43-23 45-21 3 2-1 17-7 33s-13 23-16 17c-7-18-23-16-23 2 0 8 5 15 10 15 16 0 12 36-5 50-9 7-14 19-11 27 4 9-3 13-19 13s-25 6-25 15c0 16-23 19-52 7z"/>
<path d="m1285 3455c-44-30-81-59-83-64s5-12 15-15c13-5 25 2 44 25 22 27 33 32 76 35 52 2 93 17 93 34 0 11-40 40-55 40-5 0-46-25-90-55z"/>
<path d="m2956 3478c-9-36-8-38 27-31 44 8 46 11 17 33-32 25-36 25-44-2z"/>
<path d="m3233 3488c-6-7-13-21-16-30-9-26 29-24 43 2 17 32-6 55-27 28z"/>
<path d="m3405 3470c-3-5-1-10 4-10 6 0 11 5 11 10 0 6-2 10-4 10-3 0-8-4-11-10z"/>
<path d="m2830 3460c0-3 20-44 45-90 24-47 54-104 67-128 12-24 25-45 28-47 11-7 254 76 270 91 12 12 10 14-15 14-27 1-28 2-12 14 24 18 21 26-8 26-14 0-25 5-25 10 0 6-13 10-30 10-16 0-30-4-30-10 0-5 13-10 29-10s31-6 35-15c13-35-71-10-116 35-20 21-40 30-64 31-49 2-52 3-65 17-7 6-26 12-42 12-18 0-36 9-48 23-10 12-18 20-19 17z"/>
<path d="m3100 3445c0-8 5-15 10-15 6 0 10 7 10 15s-4 15-10 15c-5 0-10-7-10-15z"/>
<path d="m480 3415c0-9 5-15 11-13s11 8 11 13-5 11-11 13-11-4-11-13z"/>
<path d="m1418 3397c-16-13-28-28-28-34s-11-20-25-31-25-29-25-40c0-16-9-20-51-25-29-4-54-8-56-11-13-12 11-43 42-55 31-11 37-10 57 8 26 25 44 27 52 6s28-19 24 3c-1 9 5 28 15 42 21 30 43 21 69-30 21-41 49-54 84-38 20 9 30 9 46-1 32-20 40 1 13 33-13 15-29 43-35 60-6 18-28 45-50 62-21 16-44 39-51 52-16 28-46 28-81-1zm142-127c0-5-2-10-4-10-3 0-8 5-11 10-3 6-1 10 4 10 6 0 11-4 11-10z"/>
<path d="m3097 3406c-6-15 1-26 15-26 11 0 10 27-1 34-5 3-11 0-14-8z"/>
<path d="m3234 3395c-18-14-18-14 3-15 23 0 39 15 25 24-5 3-18-1-28-9z"/>
<path d="m903 3341c-5-34-6-64-2-67 16-9 81 26 118 65 44 45 44 45-50 56l-56 7-10-61z"/>
<path d="m3303 3383c-29-3-43-9-43-19 0-8 5-14 11-14 23 0 89 23 89 32 0 4-3 7-7 6-5-1-27-3-50-5z"/>
<path d="m256 3334c5-21 2-31-17-45l-24-19h22c12 0 33-11 47-25 25-25 26-25 44-7 10 10 21 26 25 35 3 9 14 17 23 17 14 0 11 7-12 30-29 29-57 42-35 17 6-8 8-16 5-19-7-8-64 21-64 33 0 5-5 9-10 9-6 0-8-11-4-26z"/>
<path d="m1730 3310c0-5 7-10 15-10 11 0 15-8 13-27-2-20 2-28 12-28 8 0 15 6 14 13-1 6-2 23-2 37-2 20-7 25-27 25-14 0-25-4-25-10z"/>
<path d="m430 3280c0-5 7-10 16-10 8 0 12 5 9 10-3 6-10 10-16 10-5 0-9-4-9-10z"/>
<path d="m159 3243c-13-15-12-15 9-4 23 12 28 21 13 21-5 0-15-7-22-17z"/>
<path d="m470 3251c0-5-16-12-35-15-21-4-35-13-35-21 0-22 53-19 73 3 19 21 22 42 7 42-5 0-10-4-10-9z"/>
<path d="m919 3209c-108-74-108-74-75-100 22-18 25-24 14-36-11-14-9-15 19-9 22 5 34 3 40-7 4-8 17-16 28-18 11-3 21-14 23-26 2-14 9-19 20-16 9 2 26-3 37-11 11-9 31-24 44-34 24-19 25-19 63 1 21 12 38 26 38 32s21 26 46 43c38 27 44 35 34 47-7 8-18 15-26 15-7 0-15 9-19 20-5 16-35 45-80 78-72 51-106 72-117 72-8 0-48-23-89-51zm166-118c3-5 1-12-5-16-5-3-10 1-10 9 0 18 6 21 15 7z"/>
<path d="m1438 3245c-10-10 4-55 18-55 8 0 14 3 14 8-1 14-26 53-32 47z"/>
<path d="m555 3227c-22-11-62-83-52-93 7-7 55 47 74 83 13 25 9 26-22 10z"/>
<path d="m394 3139c-3-6 1-18 10-27s16-11 16-5-6 14-12 16c-10 4-10 6 0 6 14 1 17 21 3 21-6 0-13-5-17-11z"/>
<path d="m267 3093c-6-32-3-38 12-28 13 8 15 55 2 55-5 0-11-12-14-27z"/>
<path d="m1733 3105c9-22-3-24-56-10-46 12-50 11-73-10-13-12-24-25-24-28 0-17 156-29 168-13 15 18 11 76-6 76-8 0-12-6-9-15z"/>
<path d="m744 3085c-3-8 4-29 17-46 20-29 23-30 29-14 7 19-18 75-33 75-4 0-10-7-13-15z"/>
<path d="m197 3066c-6-16 2-28 14-20 12 7 11 34 0 34-5 0-11-6-14-14z"/>
<path d="m384 3065c25-19 36-19 36 0 0 10-10 15-27 15-27-1-27-1-9-15z"/>
<path d="m2610 3047c0-14 31-47 44-47 4 0-1 14-11 30-18 32-33 39-33 17z"/>
<path d="m2130 3040c0-5 5-10 11-10 5 0 7 5 4 10-3 6-8 10-11 10-2 0-4-4-4-10z"/>
<path d="m248 3033c7-3 16-2 19 1 4 3-2 6-13 5-11 0-14-3-6-6z"/>
<path d="m1960 3029c-30-4-61-6-68-4-7 3-20 1-30-4-21-12-139-31-212-36-30-2-63-6-73-10-9-4-25-5-35-3-23 6-42-15-42-47 0-16-6-25-16-25-18 0-14-33 11-84 8-15 17-43 21-62 3-19 12-34 19-34 8 0 23-13 35-30 17-24 25-28 44-21 12 5 48 12 79 16 32 4 60 11 63 16 3 6 21 7 40 3 19-3 34-2 34 3s26 11 58 11c97 3 146 9 175 21 16 6 43 11 61 11 19 0 48 3 65 6 29 6 31 9 26 35-5 23-3 31 14 37 20 7 19 9-17 83-29 58-41 74-55 71-13-3-22 5-30 27-11 29-14 31-62 30-27-1-75-5-105-10z"/>
<path d="m1220 3e3c-13-9-13-10 0-10 8 0 22 5 30 10 13 9 13 10 0 10-8 0-22-5-30-10z"/>
<path d="m260 2959c0-5-15-9-32-10l-33-1 31-11c17-7 29-18 27-24-6-16-4-16 36-2 20 7 31 18 31 30 0 23 13 24 31 3 13-16 6-25-26-37-5-3-7-8-3-12 8-9 60 16 65 31 8 24-26 42-77 42-27 0-50-4-50-9zm30-19c0-5-5-10-11-10-5 0-7 5-4 10 3 6 8 10 11 10 2 0 4-4 4-10z"/>
<path d="m410 2949l24-21-24-18c-14-10-23-21-20-23 10-10 70 22 70 37 0 22-28 46-53 46-22-1-22-1 3-21z"/>
<path d="m460 2960c0-5 9-14 20-20 27-14 25-28-5-36-28-7-34-24-9-24 51 0 71 47 32 74-26 18-38 20-38 6z"/>
<path d="m540 2951c0-5 7-14 16-22 14-11 13-15-8-31l-23-19 29 3c16 2 34 11 40 21 9 15 7 22-13 38-25 20-41 24-41 10z"/>
<path d="m1170 2919c0-5 5-7 10-4 6 3 10 8 10 11 0 2-4 4-10 4-5 0-10-5-10-11z"/>
<path d="m1308 2877c-16-24-16-25 5-31 28-7 31-3 20 30l-9 27-16-26z"/>
<path d="m1219 2803c-6-16-13-40-16-54-5-24-2-27 39-34 23-4 56-9 72-10 16-2 35-10 41-19 11-14 14-14 29 3 16 17 14 19-26 34-28 11-56 14-80 11-38-7-38-6-38 28 0 32 3 36 31 42 17 3 43 6 58 7l26 1-25 8c-14 4-42 8-63 9-32 1-39-3-48-26z"/>
<path d="m2250 2791c0-5 5-13 10-16 6-3 10-2 10 4 0 5-4 13-10 16-5 3-10 2-10-4z"/>
<path d="m1285 2780c4-6 11-8 16-5 14 9 11 15-7 15-8 0-12-5-9-10z"/>
<path d="m5960 2780c0-5 5-10 10-10 6 0 10 5 10 10 0 6-4 10-10 10-5 0-10-4-10-10z"/>
<path d="m1358 2738c5-5 16-8 23-6 8 3 3 7-10 11-17 4-21 3-13-5z"/>
<path d="m6388 2733c-2-5-1-24 3-43l6-35 2 43c1 39-3 52-11 35z"/>
<path d="m2244 2721c-17-4-36-11-43-15-6-4-50-9-97-10-48-2-89-7-93-12-8-12-141-94-198-123-24-12-44-27-44-34-1-6-2-28-3-47s-5-42-9-50c-6-12 0-15 25-17 18-1 96-8 173-14 77-7 151-13 164-13 18-1 31 12 60 58 33 55 44 64 147 120 115 62 214 126 214 137 0 15-249 32-296 20zm176-81c0-5-4-10-10-10-5 0-10 5-10 10 0 6 5 10 10 10 6 0 10-4 10-10zm-210-45c-7-9-27-14-51-13-50 2-51 16-1 21 20 2 43 4 51 5 11 2 11-1 1-13zm-123-21c-3-3-12-4-19-1-8 3-5 6 6 6 11 1 17-2 13-5zm-290-116c-3-7-5-2-5 12s2 19 5 13c2-7 2-19 0-25zm96 0c-3-15-12-29-20-33-13-4-13-3-4 9 9 11 9 15-1 19-9 3-7 9 7 20 24 19 24 19 18-15zm141-6c3-5-8-9-25-9-19 0-25 3-17 9 17 10 35 10 42 0zm23-44c-3-8-6-5-6 6-1 11 2 17 5 13 3-3 4-12 1-19z"/>
<path d="m1248 2693c7-3 16-2 19 1 4 3-2 6-13 5-11 0-14-3-6-6z"/>
<path d="m1889 2665c-3-2-31-7-64-10-32-3-62-10-65-15-4-6-14-8-22-5-9 4-19 2-23-4-3-7 3-11 17-12 13-1 43-3 68-5 37-3 50 1 74 22 15 14 26 27 24 30-3 2-7 2-9-1z"/>
<path d="m5992 2651c4-13 18-16 19-4 0 4-5 9-11 12-7 2-11-2-8-8z"/>
<path d="m1680 2630c0-5 5-10 11-10 5 0 7 5 4 10-3 6-8 10-11 10-2 0-4-4-4-10z"/>
<path d="m2376 2564c-54-29-103-54-108-54s-6-4-3-10c3-5-1-10-9-10-9 0-16-7-16-15s-4-15-10-15c-5 0-7-7-4-15 4-10 0-15-11-15-9 0-15-6-12-12 2-7 11-11 18-9 8 2 33 6 56 8 24 3 40 10 37 14-10 17 19 77 47 93 35 21 69 21 69 0 0-8 5-12 10-9 8 5 7 12-1 21-10 13-6 21 27 49 56 50 24 42-90-21z"/>
<path d="m6163 2489c-36-23-39-29-22-46s43-5 28 13c-9 12-4 14 31 14 42 0 43 0 25 20-22 25-22 25-62-1z"/>
<path d="m2366 2484c-7-17 0-34 13-34 5 0 8 7 7 16 0 9 5 19 13 22 10 3 12 0 8-11-5-13-1-14 24-5 32 11 41 23 10 13-11-3-22-1-26 5-10 16-42 12-49-6z"/>
<path d="m5702 2474c2-24-1-29-19-29-26 0-32-18-8-23s76 21 73 37c-2 7-14 21-26 29-23 15-24 15-20-14z"/>
<path d="m2330 2469c0-5 5-7 10-4 6 3 10 8 10 11 0 2-4 4-10 4-5 0-10-5-10-11z"/>
<path d="m2405 2418c-16-6-39-17-50-24-33-23 5-16 60 10 51 25 45 33-10 14z"/>
<path d="m5737 2368c2-34 0-46-5-34-7 16-13 7-32-43-25-68-21-86 13-53 12 12 16 22 9 22-15 0-16 37 0 46 6 4 14 2 16-4 8-25 21 0 15 29-4 21-1 34 8 41 11 7 11 11 2 15-7 2-13 11-13 19s-3 14-7 14c-5 0-7-24-6-52z"/>
<path d="m5610 2385c-7-8-18-15-26-15-7 0-15-3-17-7-3-5 15-7 40-6l44 1-3-63c-1-35 1-67 5-71 6-6 13 101 9 148-1 9 6 19 16 21 9 3 1 5-19 6-22 1-42-5-49-14z"/>
<path d="m6210 2385c7-8 19-15 27-15s27-7 43-16c28-17 72-12 54 5-9 9-109 41-127 41-5 0-4-7 3-15z"/>
<path d="m2267 2236c-22-77-25-100-16-120 16-35 38-40 60-14 14 17 18 19 19 8 0-9-6-22-12-28-8-8-12-37-12-72 1-65-9-76-29-32-6 15-16 30-21 33-5 4-6 12-2 18s-2 20-12 31c-19 21-19 21-36-47-9-37-19-76-22-85-4-12 0-18 10-18 9 0 16 6 16 13 0 8 4 7 10-3s10-11 10-2c0 6 5 12 12 12 6 0 8-3 5-6-3-4-2-16 4-27 9-15 8-18-3-12-7 3-5 0 5-8 10-9 17-28 17-51 0-24 4-36 13-35 22 3 37-1 37-9 0-5-13-7-28-4-35 5-64-22-33-31 14-3 18-1 14 9-6 17 9 18 24 3 9-9 6-17-10-31l-22-19 22 10c12 6 32 11 45 12 21 0 21 1 4 8-14 5-16 10-7 15 6 4 19 2 27-5 8-6 18-8 22-4s1 10-5 12c-7 3-13 11-13 19s-4 14-10 14c-5 0-10 5-10 10 0 19 17 10 28-15 10-21 15-23 37-15 14 5 25 6 25 0 0-5 8-11 18-13 9-2 1-2-18 0-23 2-30 1-22-5 9-6-1-13-35-21-69-18-135-42-158-58-27-18-43-17-19 3 19 15 18 15-3 9-12-3-25-1-29 6s-3 9 4 6c18-12 41 3 35 21-6 15-4 15 14 0 11-10 26-18 34-18 12 0 12 2 0 9-10 6-10 10-1 16 8 5 6 10-6 19-15 12-15 14 2 30 12 12 14 20 6 25-6 3-14 26-18 49s-9 44-13 46c-11 7-111-16-111-26 0-5-4-6-10-3s-7-1-4-9c3-9 10-16 16-16 5 0 7-4 4-9-10-15-15-81-6-81 4 0 6-18 3-40-4-26-2-40 6-40 6 0 11 5 11 10 0 6 5 10 10 10 15 0 12-16-6-34-12-13-12-16-2-16 8 0 20 6 27 13 11 10 11 8 2-10-14-27-9-28 27-7l27 16-25-21c-15-13-33-19-46-16-14 3-24-1-28-11-3-8-10-13-15-9-5 3-15-20-21-51-10-46-9-58 2-65 24-15 27-10 23 46-3 56 6 69 24 38 9-16 10-16 11-1 0 9-6 18-12 21-7 2-9 8-5 13s12 2 17-6c12-18 9-70-3-70-13 0-3-63 11-68 9-3 12 4 11 19-4 49 1 69 16 63 8-4 15-12 15-20s-7-14-15-14c-17 0-20-16-5-25 7-4 6-13-1-26-6-11-7-28-3-37s8-21 10-27c10-32 31-86 37-91 4-4 7-18 7-31 0-14 5-34 11-45 6-12 17-53 23-92 11-62 15-71 35-74 13-2 28 1 34 7s26 11 43 11c18 0 36 5 39 10 3 6 17 10 31 10 13 0 24 4 24 10 0 5 7 7 15 4 8-4 15-15 15-25s5-19 11-19 9 7 5 15c-4 10 1 15 15 15 16 0 20-5 16-19-3-14-1-18 9-14 8 3 14 10 14 17 0 6 5 3 11-7 6-9 15-15 21-11 7 4 6 9-3 15-7 4-10 11-6 15 3 4 13 1 22-6 12-10 18-10 32 1 14 12 16 12 9 0-6-9-5-12 5-9 19 6 42-19 35-37-3-8-1-15 5-15 7 0 9 12 5 33-7 40 26 81 74 92 18 4 49 22 69 40 26 23 44 32 64 29 15-1 25 1 22 7-3 5 1 6 9 3 9-3 16-1 16 5s3 10 8 9c7-1 74 10 105 19 10 2 17 12 15 21-1 9 1 23 5 30 5 7 4 12-2 12s-11 5-11 10c0 6 7 10 15 10s15 7 15 16c0 14 3 14 15 4s15-10 15 0c0 7 7 10 15 7 8-4 17-2 20 3 3 4-1 11-7 13-10 4-10 6-1 6 17 1-4 58-24 65-9 4-13 13-9 22 6 16-22 75-61 130-13 17-23 36-23 42 0 7-4 12-8 12-9 0-35 55-48 99-5 19-8 21-16 10-7-10-8-6-4 14 4 15 2 27-3 27s-11 26-14 58c-12 121-20 153-38 165-11 7-19 23-19 39 0 38-16 74-36 82-28 11-29-2-3-30 20-23 21-25 4-16-11 5-23 11-27 11-4 1-15 4-24 8-8 3-26 1-39-5-18-8-25-8-29 1-3 9-5 9-5 0-1-7-6-13-12-13-5 0-7 5-4 10 3 6-1 10-10 10-8 0-18-7-21-15-4-8-12-15-20-15s-14-5-14-12c0-6-3-8-7-5-3 4-12 2-20-5-16-13-15-8 17 110 13 45 14 65 6 67-30 11-186 41-186 36 0-3 15-20 33-39 20-22 25-31 12-24-11 6-35 27-54 49-23 25-36 33-39 25-2-8 1-19 7-25s11-18 11-26c0-11-3-11-13 4-8 10-19 15-26 11-8-6-10-1-6 17 7 27 4 29-61 42l-31 6-26-95zm83 34c12-6 17-16 13-26-3-8-2-14 3-12 16 4 54-13 49-22-8-14-64-3-101 20-40 25-41 28-11 40 29 11 26 11 47 0zm100-75c-8-9-8-15-2-15 20 0-19-60-48-75-36-18-40-19-40-1 0 16 78 106 92 106 6 0 5-6-2-15zm150-26c0-5-7-9-15-9-9 0-29-10-45-22-24-18-35-20-62-12l-33 10 28 19c45 30 127 39 127 14zm-40-87c-11-2-20-10-20-17 0-16-49-45-75-45-8 0-15 6-15 13 0 20 31 44 67 52 18 3 36 11 39 17 4 6 10 5 15-3 6-10 3-15-11-17zm155-21c3-5 1-12-5-16-5-3-10 1-10 9 0 18 6 21 15 7zm-125-20c0-4-11-7-24-7-14 0-22 5-19 12 4 12 43 7 43-5zm58-6c-3-3-9 2-12 12-6 14-5 15 5 6 7-7 10-15 7-18zm-32-12c-2-12-13-18-34-20-41-4-41 10 1 24 17 5 33 11 34 12 1 0 0-7-1-16zm-74-29c5-8 3-14-7-18-12-4-15 2-14 27 0 18 3 25 6 17s10-20 15-26zm372 10c3-8 2-12-4-9s-10 10-10 16c0 14 7 11 14-7zm-470-10c3-8 10-14 16-14s8 5 4 12c-5 8-2 9 11 4 11-4 22-2 27 6 6 10 8 9 8-4 0-9-4-20-10-23-5-3-11-21-11-38-2-30-2-31-6-4-5 32-11 34-29 10-8-11-13-13-14-5 0 6-5 12-11 12s-8-7-5-16c4-9 0-26-7-38s-13-38-12-59c1-27-1-34-7-23-5 9-7 34-4 56s1 40-5 40c-17 0-24 2-43 12-13 7-16 7-12-1 4-6 3-18-2-27-8-14-12-12-30 11-13 16-26 24-33 19-8-4-9-3-5 4s23 12 42 12 34 5 34 10c0 6 7 10 15 10 9 0 12-6 8-17-3-10-3-15 1-11 4 3 9 12 10 20 7 43 58 74 70 42zm-94-131c0-24-3-33-8-25-11 17-42 4-35-14 3-8 0-14-6-14-13 0-13 36-1 65l9 20 1-20c1-19 2-19 18 2 9 12 18 22 20 23 1 0 2-17 2-37zm93-150c-7-2-21-2-30 0-10 3-4 5 12 5 17 0 24-2 18-5zm-53-8c0-8-52-26-58-20-3 2 6 9 19 14 28 11 39 13 39 6zm102-22c-6-2-10-9-6-14 3-5 0-9-5-9-12 0-14 13-4 23 3 4 11 7 17 6 6 0 5-3-2-6zm-168-11c3-5-1-9-9-9s-12 4-9 9c3 4 7 8 9 8s6-4 9-8zm-18-49c-7-7-26 7-26 19 0 6 6 6 15-2 9-7 13-15 11-17zm-34-2c9-11 14-22 11-25-4-3-12 3-20 14-16 23-38 27-30 6 4-9-2-13-18-13h-24l22 18c28 23 39 23 59 0zm255 13c-3-3-12-4-19-1-8 3-5 6 6 6 11 1 17-2 13-5zm-187-44c13-8 13-10-2-10-9 0-20 5-23 10-8 13 5 13 25 0zm-45-40c3-5 1-10-4-10-6 0-11 5-11 10 0 6 2 10 4 10 3 0 8-4 11-10zm209-15c3-8 1-15-4-15-6 0-10 7-10 15s2 15 4 15 6-7 10-15zm-140-27c-4-5-15-7-26-5-15 4-19 2-15-12 2-11-1-18-10-18-14 0-15 37 0 48 13 9 57-2 51-13zm91-8c3-5 1-10-4-10-6 0-11 5-11 10 0 6 2 10 4 10 3 0 8-4 11-10zm-8-36c-3-3-12-4-19-1-8 3-5 6 6 6 11 1 17-2 13-5zm-59-19c10-10-10-23-27-18-16 4-19 1-14-19 5-21 4-22-10-8-11 10-14 23-10 38 5 20 10 22 32 17 14-4 28-8 29-10zm182-15c0-5-7-7-15-4-8 4-12 10-9 15 6 11 24 2 24-11zm-120-10c0-5-12-10-26-10s-23 4-19 10c3 6 15 10 26 10 10 0 19-4 19-10zm95-10c3-5-1-10-10-10s-13 5-10 10c3 6 8 10 10 10s7-4 10-10zm30-40c-3-5-12-7-20-3-21 7-19 13 6 13 11 0 18-4 14-10zm35 0c0-5-4-10-10-10-5 0-10 5-10 10 0 6 5 10 10 10 6 0 10-4 10-10zm-354-56c11 4 12 2 1-15-10-16-13-17-15-4-2 8-7 13-12 10-4-3-5 5-2 17 5 20 7 20 10 5 2-11 9-16 18-13zm320-8c21-21 17-32-4-13-14 13-21 14-30 5-7-7-12-8-12-2 0 26 24 31 46 10zm-94-48c-8-8-9-4-5 13 4 13 8 18 11 10 2-7-1-18-6-23zm276-39c-7-4-15-3-19 3-4 7-9 7-13 0-8-13 26-25 48-16 11 4 16 1 16-10 0-9-6-16-12-14-7 1-26-3-43-9-45-18-118-37-132-34-7 1-13-3-13-9s-4-9-9-6c-5 4-21 2-34-3-19-7-27-6-31 4-3 10 3 13 22 12 23-2 27 1 24 22-3 16 1 22 10 19 7-3 13-12 12-20-1-12 16-16 46-9 3 1-4 9-15 17-20 15-20 15 0 30 17 13 20 13 27-3 3-10 7-12 7-5 1 14 41 17 41 2 0-5-4-10-10-10-5 0-10-5-10-12 0-9 3-9 12 0 7 7 22 12 35 12s23 5 23 11-7 8-16 5c-8-3-12-2-9 4s-6 11-22 11c-21 1-23 3-8 6 11 3 29 11 39 19 15 10 23 11 33 2 11-9 11-13 1-19zm-493 1c3-5 1-10-4-10-6 0-11 5-11 10 0 6 2 10 4 10 3 0 8-4 11-10zm228-82c-20-22-33-23-33-2 0 11 5 14 16 10 12-4 15-2 10 9-18 45-18 48 2 25 19-23 19-26 5-42zm61 3c-7-9-24 13-24 32 0 21 1 21 13-3 8-14 12-27 11-29zm-109-32c4-5-5-9-19-9s-26 4-26 8c0 11 39 12 45 1zm250-9c-3-5-11-10-16-10-6 0-7 5-4 10 3 6 11 10 16 10 6 0 7-4 4-10z"/>
<path d="m5835 2270c3-5 11-10 16-10 6 0 7 5 4 10-3 6-11 10-16 10-6 0-7-4-4-10z"/>
<path d="m5615 2220c-3-5-1-10 4-10 6 0 11 5 11 10 0 6-2 10-4 10-3 0-8-4-11-10z"/>
<path d="m6375 2180c-16-17-16-20-3-15 9 4 19 13 22 21 7 19 2 18-19-6z"/>
<path d="m4850 2149c0-5 5-10 10-10 14-2 22-5 43-14 12-5 24-2 35 9 15 15 15 16-3 17-11 1-35 2-52 4-18 1-33-1-33-6z"/>
<path d="m4850 2111c0-6-6-11-14-11-12 0-32-29-24-35 2-1 18-9 37-18 36-18 78-24 53-8-10 6-8 10 8 14 12 3 19 10 15 16-9 15 5 13 35-4s40-18 40-6c0 5-10 13-22 16-13 4-36 12-53 20-51 22-75 27-75 16zm30-40c0-6-4-13-10-16-5-3-10 1-10 9 0 9 5 16 10 16 6 0 10-4 10-9z"/>
<path d="m6370 2091l-25-21 25-21c16-14 26-17 28-9 3 7-1 16-8 20-10 6-10 8 0 12 7 2 11 12 9 22-4 17-6 17-29-3z"/>
<path d="m685 2062c-19-45-23-82-9-82 7 0 11 6 8 14s-1 17 5 20c6 4 7 14 4 22-3 9 0 20 7 24 7 5 8 10 2 14-5 3-13-2-17-12z"/>
<path d="m5020 2050c0-7 24-20 36-20 13 0 1 19-16 23-11 3-20 2-20-3z"/>
<path d="m4790 2040c0-5 5-10 11-10 5 0 7 5 4 10-3 6-8 10-11 10-2 0-4-4-4-10z"/>
<path d="m4960 2033c0-3 7-14 15-23 15-16 13-17-24-7-33 9-42 8-56-7-9-9-15-25-12-36 3-12 0-17-8-14-7 3-15-2-19-12-4-12-2-15 9-10 8 3 15 1 15-3 0-5-6-12-12-14-7-3-1-6 15-6 26-1 40-21 14-21-7 0-22-7-35-15-18-14-20-19-9-35 6-11 21-20 32-20 28 0 67 29 61 46-3 7-1 16 4 19 10 6 15-14 11-49-1-19-1-19 19-1 14 12 17 21 9 25-7 5-5 9 5 13s13 13 10 24c-4 12 3 8 18-9 28-33 91-40 106-11 12 21-16 82-38 83-8 0-24 8-35 16-19 15-18 16 13 9 33-7 46 9 15 18-10 2-42 14-70 26-29 11-53 18-53 14zm147-133c11-16 10-21-6-30-31-16-69 7-41 25 6 4 17 1 25-5 18-15 20 1 3 18-7 7-8 12-2 12 5 0 15-9 21-20z"/>
<path d="m5080 2022c0-5 16-16 35-25 42-20 47-8 6 16-32 19-41 21-41 9z"/>
<path d="m5175 2020c3-5 8-10 11-10 2 0 4 5 4 10 0 6-5 10-11 10-5 0-7-4-4-10z"/>
<path d="m5250 1990c0-5 5-10 10-10 6 0 10 5 10 10 0 6-4 10-10 10-5 0-10-4-10-10z"/>
<path d="m501 1941c-25-27-99-105-163-174-65-68-118-132-118-141s57-54 142-111c79-52 136-95 128-96-8 0 3-7 25-16s55-27 74-39c37-25 61-22 61 6 0 10 7 20 17 22s-10 21-57 52c-63 42-78 48-100 40-29-11-60-7-60 7 0 6 5 7 11 3 6-3 28-2 48 4s56 16 81 22c59 15 85 26 198 82 76 38 98 45 114 37 11-6 22-8 25-6 3 3-8 12-24 21-23 13-25 15-8 16 11 0 47-25 80-55 32-30 55-55 50-55s-26 17-47 37-38 33-38 27c0-17 76-85 85-77 4 5 5 0 2-10-5-13 2-26 23-43 29-25 29-26 12-50-9-13-22-22-27-20-6 2-21-5-33-15l-23-18 53-30c29-17 58-31 63-31 6 1 25 20 43 44 24 33 38 43 52 39 11-3 27 0 35 7 28 23 15 1-34-58-28-33-47-62-44-66 6-6 120 130 147 174 8 14 12 31 8 37-12 18-725 483-741 483-8 0-35-22-60-49zm107 9c12-11 25-20 30-20 11-1 72-44 72-52 0-4-14-15-30-25-17-10-28-23-26-30 3-7 2-13-3-13-4 0-6-11-3-25 6-32-11-32-33 1-9 14-19 23-22 20s2-17 11-30c14-22 14-25 1-20-8 4-22 1-29-5-11-9-15-9-19 1-3 8-9 3-15-12-12-31 2-38 29-14 10 9 22 14 27 10 12-13-32-37-58-32-45 8-150-69-150-111 0-13 5-23 11-23 5 0 8-4 5-9s6-12 21-16c19-4 29-2 35 9 11 19 38 21 38 4 0-7 7-4 15 7 15 19 16 19 37-3 12-12 19-24 15-28-3-3-31-7-61-8-34 0-58-6-61-13-14-37-80 22-72 64 3 18-7 29-51 59l-55 36 80 81c44 45 100 104 124 131 71 80 78 86 97 86 10 0 28-9 40-20zm161-121c-11-7-11-9 1-9 8 0-5-13-30-30-24-16-46-27-48-25-9 8 30 57 49 62 10 3 19 10 19 15s5 6 11 2c8-4 7-9-2-15zm-5-69c-5-4-20-11-34-15-24-6-24-6 5 18 17 14 32 21 34 15 2-5-1-13-5-18zm156-15c10-12 6-14-27-11-43 4-63-2-63-16 0-7 16-9 40-5 52 7 61-8 15-27-19-8-35-20-35-25 0-25-251-132-258-111-3 7-13 21-24 32-17 17-18 22-7 29s9 9-6 9c-14 0-16 3-8 11s19 8 42-2c30-14 41-29 20-29-5 0-7-4-4-10 11-18 26-10 36 19 6 15 21 33 34 39s32 24 42 39c23 37 34 43 59 37 12-3 36 3 55 15 40 25 72 27 89 6zm-240-34c0-5 3-17 7-27 4-11 3-15-4-11-14 9-24 47-12 47 5 0 9-4 9-9zm-36-54c-29-10-62 9-45 26 7 7 16 5 27-4 16-13 17-12 11 11l-6 25 19-25c19-25 19-25-6-33zm322 24c-1-7 5-16 13-19 10-3 11 0 5 9-7 12-5 12 9 0 9-7 15-17 12-21-3-5 21-34 52-66 32-31 47-49 33-38-14 10-31 25-38 34-7 8-16 15-20 15s-28 23-54 50c-35 38-42 51-29 51 10 0 18-7 17-15zm-463-28c-7-2-19-2-25 0-7 3-2 5 12 5s19-2 13-5zm-43-23c0-5-2-10-4-10-3 0-8 5-11 10-3 6-1 10 4 10 6 0 11-4 11-10zm40 0c0-5-5-10-11-10-5 0-7 5-4 10 3 6 8 10 11 10 2 0 4-4 4-10zm21-17c-8-15-10-15-11-2 0 17 10 32 18 25 2-3-1-13-7-23zm584-11c-3-3-11 0-18 7-9 10-8 11 6 5 10-3 15-9 12-12zm56-33l24-20-30 17c-39 24-40 24-28 24 6 0 21-9 34-21zm-66-63c4-13 8-16 12-8 7 17 27 15 46-5 14-16 14-20 1-38-14-19-15-19-37 3-12 12-35 32-50 44l-28 23 25 1c17 1 26-5 31-20zm111-9c8 3 14-1 14-10 0-8 6-17 13-20 13-5-35-27-60-27-14 0-13 3 3 21 14 16 16 23 6 26-6 3-9 10-5 16 5 8 8 8 10 0 3-7 11-9 19-6zm-572-105c3-5-1-9-9-9s-12 4-9 9c3 4 7 8 9 8s6-4 9-8z"/>
<path d="m560 1953c8-3 18-11 22-17s10-7 15-3c9 10-16 27-37 26-13-1-13-1 0-6z"/>
<path d="m631 1913c0-4 4-17 9-28 8-19 9-19 9 2 1 12-3 25-9 28-5 3-10 3-9-2z"/>
<path d="m531 1851l24-19-40-7c-66-11-71-13-37-14 40-1 34-17-9-26-20-5-28-10-21-17 13-13 132 47 132 67 0 16-30 35-55 35-14 0-12-4 6-19z"/>
<path d="m460 1850c0-11 48-25 57-16 9 8 3 12-29 20-17 4-28 2-28-4z"/>
<path d="m414 1805c-25-18-16-25 24-17 30 6 31 8 13 19-15 9-23 9-37-2z"/>
<path d="m473 1733c-7-3-13-11-13-20 0-12 2-12 16 2 18 17 16 25-3 18z"/>
<path d="m750 1689c0-5 5-7 10-4 6 3 10 8 10 11 0 2-4 4-10 4-5 0-10-5-10-11z"/>
<path d="m790 1685c8-9 16-12 19-6 3 5 20 11 36 14 21 3 15 4-19 6-43 1-47-1-36-14z"/>
<path d="m730 1642c0-7-5-11-11-9-6 1-14-4-16-10-3-7 0-13 5-13 14 0 36 29 28 37-3 3-6 1-6-5z"/>
<path d="m1126 1476c3-9 11-16 16-16 13 0 5 23-10 28-7 2-10-2-6-12z"/>
<path d="m5287 1966c-3-8 5-18 21-26 15-7 35-16 45-21 13-7 17-5 17 11 0 13-12 25-36 35-44 18-41 18-47 1z"/>
<path d="m5166 1943c7-31 21-50 29-41 8 7-15 68-26 68-5 0-6-12-3-27z"/>
<path d="m780 1940c0-6 7-10 15-10s15 2 15 4-7 6-15 10c-8 3-15 1-15-4z"/>
<path d="m800 1916c0-9 30-14 35-6 4 6-3 10-14 10-12 0-21-2-21-4z"/>
<path d="m5500 1906c38-14 46-13 35 3-3 6-21 11-38 10l-32-1 35-12z"/>
<path d="m5563 1883c4-3 2-12-4-20-7-8-8-13-1-13 5 0 15 6 21 13 11 14 5 27-12 27-6 0-7-3-4-7z"/>
<path d="m1344 1868c-4-6-3-8 4-4 6 3 18-1 26-10 9-8 16-11 16-5 0 17-38 33-46 19z"/>
<path d="m5159 1859c-9-17-8-23 2-30 15-9 6-13-23-10-16 2-23-10-19-32 1-5-3-6-8-2-6 3-24-7-42-23l-31-28 28 1c22 0 29-4 28-17-1-10 2-18 7-18s9 7 9 15 5 15 11 15c5 0 7 5 4 10-4 6 14 32 39 57 26 25 44 49 41 52-4 3-10-1-15-9s-12-11-16-7-2 13 4 19c14 14 16 28 2 28-5 0-14-10-21-21zm-49-109c0-5-7-7-15-4-8 4-15 8-15 10s7 4 15 4 15-4 15-10z"/>
<path d="m5210 1870c0-5 5-10 11-10 5 0 7 5 4 10-3 6-8 10-11 10-2 0-4-4-4-10z"/>
<path d="m5492 1855c-14-31-6-32 19-3 23 25 23 28 6 28-8 0-19-11-25-25z"/>
<path d="m827 1863c-4-3-7-11-7-17s5-5 12 2c6 6 9 14 7 17-3 3-9 2-12-2z"/>
<path d="m2240 1853c0-4 5-15 10-23 8-13 10-13 10 2 0 9-4 20-10 23-5 3-10 3-10-2z"/>
<path d="m890 1834c0-11 6-14 20-9s20 2 20-10c0-15 1-15 16-1 20 21 10 36-27 36-20 0-29-5-29-16z"/>
<path d="m5286 1834c-3-8-11-12-17-8-9 5-10-1-5-19 5-20 1-29-16-41-28-20-44-21-28-1 10 13 9 15-9 15-11 0-21-4-21-10 0-5-7-10-15-10-24 0-17-19 9-26 22-5 125 27 175 55 22 11 28 36 7 28-10-4-16-1-16 9 0 8-4 12-10 9-5-3-18-1-29 4-15 8-20 7-25-5z"/>
<path d="m4610 1826c0-9 5-16 10-16 6 0 10 4 10 9 0 6-4 13-10 16-5 3-10-1-10-9z"/>
<path d="m5520 1794c-14-36-7-41 14-10 10 15 12 27 6 31-6 3-15-6-20-21z"/>
<path d="m4633 1775c7-14 18-25 25-25 9 0 8 7-5 25-23 32-34 32-20 0z"/>
<path d="m4780 1760c-8-14-8-26-2-32s12 0 16 17c9 35 1 43-14 15z"/>
<path d="m2067 1740c3-11 7-20 9-20s4 9 4 20-4 20-9 20-7-9-4-20z"/>
<path d="m5485 1730c3-5 8-10 11-10 2 0 4 5 4 10 0 6-5 10-11 10-5 0-7-4-4-10z"/>
<path d="m5065 1720c3-5 8-10 11-10 2 0 4 5 4 10 0 6-5 10-11 10-5 0-7-4-4-10z"/>
<path d="m5120 1711c0-6 6-11 14-11s21-3 30-6 16-2 16 3-6 10-12 10c-7 0-21 4-30 8-11 4-18 3-18-4z"/>
<path d="m5020 1674c-12-19-20-38-17-41 8-7 56 48 57 65 0 23-18 12-40-24z"/>
<path d="m5446 1694c-11-7-18-16-15-18 2-2 13 2 23 10 11 7 18 16 15 18-2 2-13-2-23-10z"/>
<path d="m4800 1679c0-5 5-7 10-4 6 3 10 8 10 11 0 2-4 4-10 4-5 0-10-5-10-11z"/>
<path d="m4836 1675c-3-9-6-18-6-19 0-8 68 2 85 12 18 10 17 11-12 12-17 0-38 3-46 6s-17-2-21-11z"/>
<path d="m5210 1680c8-5 20-10 25-10 6 0 3 5-5 10s-19 10-25 10c-5 0-3-5 5-10z"/>
<path d="m5390 1670c0-5 7-10 15-10s15 5 15 10c0 6-7 10-15 10s-15-4-15-10z"/>
<path d="m5360 1660c0-5 5-10 11-10 5 0 7 5 4 10-3 6-8 10-11 10-2 0-4-4-4-10z"/>
<path d="m1900 1620c0-5 5-10 11-10 5 0 7 5 4 10-3 6-8 10-11 10-2 0-4-4-4-10z"/>
<path d="m4890 1620c-13-8-12-10 3-10 9 0 17 5 17 10 0 12-1 12-20 0z"/>
<path d="m116 1605c-11-8-15-15-9-15 19 0 43 12 43 21 0 13-12 11-34-6z"/>
<path d="m6087 1589c4-13 8-18 11-10 2 7-1 18-6 23-8 8-9 4-5-13z"/>
<path d="m6140 1595c0-9 6-12 15-9 8 4 15 7 15 9s-7 5-15 9c-9 3-15 0-15-9z"/>
<path d="m1892 1586c7-8 15-12 17-11 5 6-10 25-20 25-5 0-4-6 3-14z"/>
<path d="m40 1574c-19-8-30-18-25-22 6-4 16-15 23-24 12-15 12-20-1-33-9-8-20-15-26-15s-11-7-11-15c0-9 6-12 18-8 15 6 15 4-2-15-11-12-14-22-8-22s23 15 37 33c17 20 29 27 32 20 2-7 10-13 17-13 22 0 66 25 66 38 0 16-10 15-34-3-22-16-36-19-36-7 0 4 20 16 45 27 38 17 42 22 30 34-12 13-17 12-35-4-11-10-23-15-26-12-4 3-15 2-25-3-14-8-21-6-29 9-9 17-6 23 17 35 36 20 18 20-27 0z"/>
<path d="m214 1554c4-14 11-91 15-171 5-79 12-147 15-150 3-4 3 53 0 127l-7 133 34-7c19-3 36-11 37-16 6-17 22-11 18 8-7 35-19 52-37 52-10 0-19 5-19 10 0 6-9 10-20 10s-20 7-20 15-5 15-11 15c-7 0-9-10-5-26zm46-24c0-5-4-10-9-10-6 0-13 5-16 10-3 6 1 10 9 10 9 0 16-4 16-10z"/>
<path d="m920 1571c0-6 12-17 26-24l27-14-47-32c-38-27-50-30-62-20-16 13-34 4-18-10 5-5 32-21 59-36l50-27-29 27c-26 24-28 28-13 36 9 5 30 21 46 35 25 21 28 28 18 38-20 21-57 38-57 27z"/>
<path d="m740 1556c0-2 8-10 18-17 15-13 16-12 3 4s-21 21-21 13z"/>
<path d="m695 1496c17-14 34-26 39-26 11 0 11 0-34 29l-35 23 30-26z"/>
<path d="m802 1508c5-15 28-23 28-10 0 5-7 13-16 16-10 4-14 1-12-6z"/>
<path d="m366 1465c-3-8 2-19 12-24 15-9 16-10 0-11-17 0-51-83-102-251-29-94-31-109-15-109 5 0 7 5 4 10-4 6 12 67 35 136 35 105 45 124 59 118 9-4 57-9 106-12 50-2 98-9 108-14 11-5 24-5 35 1 16 10 16 10 0 11-10 0-18 5-18 10 0 6-9 10-20 10s-20 7-20 15-9 15-20 15c-12 0-20 7-20 16 0 10-6 14-15 10-9-3-19 3-25 14s-17 20-25 20-15 5-15 11-7 8-16 5c-11-4-18 1-21 14-6 24-19 26-27 5z"/>
<path d="m770 1466c0-2 7-7 16-10 8-3 12-2 9 4-6 10-25 14-25 6z"/>
<path d="m110 1437c0-9 9-25 20-34 23-20 26-48 6-56s-26 2-26 40c0 36-6 39-32 19-19-14-14-28 6-20 8 3 12-7 13-30 1-19-4-37-11-39-6-2 2-2 19 1 16 2 41 14 56 25 24 17 26 22 13 34-8 8-14 25-14 38 0 18-4 23-16 18-9-3-20 0-25 8-7 11-9 10-9-4z"/>
<path d="m300 1435c7-9 15-13 17-11 7 7-7 26-19 26-6 0-6-6 2-15z"/>
<path d="m677 1436c-4-10 0-12 14-9 22 6 26 23 5 23-8 0-16-6-19-14z"/>
<path d="m750 1446c0-2 26-19 58-37 56-32 57-32 29-40-21-6-39-1-72 18-25 13-45 21-45 16s15-17 33-26c30-15 30-16 7-15-50 2-58-1-53-22 4-17 110-90 129-90 15 0-14 25-62 52-35 19-52 34-46 40s20-1 38-19c27-26 29-27 32-8 1 11 15 26 31 33 29 13 83 13 75 0-3-4 0-8 5-8 6 0 11-7 11-15 0-17-11-19-26-6-5 4-21 11-36 15-30 7-49-11-27-25 12-7 11-9-1-9-10 0-7-7 10-20 26-20 56-27 45-10-3 6 1 7 9 4 27-10 17 12-10 25-15 6-24 14-21 17s16-1 29-10c24-15 42-11 49 11 3 10 16 7 48-9 42-21 43-22 20-30-15-6-33-5-48 2-20 9-28 7-46-10-12-11-29-20-38-20-12 0-17-9-18-32 0-27-2-30-9-13-6 16-10 8-15-33-7-46-11-53-26-49-11 3-19 1-19-4s11-9 25-9c16 0 25 6 25 16 0 13 2 13 21 1 19-14 25-12 71 16 43 27 52 29 70 18 23-14 70-22 63-11-3 4-17 10-32 13-42 10-54 21-62 60-7 28-6 34 5 30 8-3 15-11 15-19 1-8 2-18 3-24 0-5 12-17 25-27 18-12 26-13 29-4s7 9 18 0 14-8 14 5c0 22 16 20 40-4 11-11 28-20 38-20 11 0 7 7-15 21-18 12-33 29-33 40 0 24 1 24 44-1 20-10 38-15 41-11 3 5-39 33-92 62-183 98-197 106-153 95 21-6 22-5 7 4-9 6-21 8-27 5-5-3-23 1-40 10-32 17-41 29-13 18 11-4 14-3 9 6-5 7-15 10-23 7s-32 3-53 14c-37 19-60 25-60 16zm327-202c14-14 23-28 20-31-9-8-87 39-81 49 10 15 35 8 61-18zm-12-34c3-5 2-10-4-10-5 0-13 5-16 10-3 6-2 10 4 10 5 0 13-4 16-10zm-149-17c-1-6-11-22-22-35l-19-22 30 17 30 18-24-20c-13-12-27-21-32-21-9 0-13 63-4 71 10 10 42 4 41-8z"/>
<path d="m4470 1415c0-8 7-15 15-15s15 7 15 15-7 15-15 15-15-7-15-15z"/>
<path d="m290 1400c0-5 5-10 11-10 5 0 7 5 4 10-3 6-8 10-11 10-2 0-4-4-4-10z"/>
<path d="m263 1360c-1-11 4-20 13-20 16 0 16 2 8 24s-19 20-21-4z"/>
<path d="m5805 1361c-3-5-1-12 5-16 5-3 10 1 10 9 0 18-6 21-15 7z"/>
<path d="m5765 1350c4-6 11-8 16-5 14 9 11 15-7 15-8 0-12-5-9-10z"/>
<path d="m1010 1335c0-2 10-10 23-16 20-11 21-11 8 4-13 16-31 23-31 12z"/>
<path d="m165 1320c-3-5-1-10 4-10 6 0 11 5 11 10 0 6-2 10-4 10-3 0-8-4-11-10z"/>
<path d="m260 1310c0-5 4-10 9-10 6 0 13 5 16 10 3 6-1 10-9 10-9 0-16-4-16-10z"/>
<path d="m350 1294c-12-31-13-44-2-44 15 0 37 35 34 53-5 25-21 21-32-9z"/>
<path d="m150 1290c0-5 5-10 11-10 5 0 7 5 4 10-3 6-8 10-11 10-2 0-4-4-4-10z"/>
<path d="m261 1274c0-11 3-14 6-6 3 7 2 16-1 19-3 4-6-2-5-13z"/>
<path d="m1100 1280c20-13 33-13 25 0-3 6-14 10-23 10-15 0-15-2-2-10z"/>
<path d="m388 1261c-20-20-24-41-7-41 5 0 7 5 3 12-5 8 2 9 24 5 20-4 32-2 36 6 2 7 5 4 5-5 1-19 21-26 21-8 0 6 5 10 11 10s9-6 6-14c-8-19 33-29 47-12 6 8 18 16 26 19 9 3 3 8-17 12-21 5-30 12-26 21 3 8 0 14-6 14s-11-4-11-9-11-8-25-7c-14 0-25 4-25 9 0 14-45 6-62-12z"/>
<path d="m130 1256c0-2 16-6 35-8s35 0 35 4-16 8-35 8-35-2-35-4z"/>
<path d="m1185 1240c3-5 11-10 16-10 6 0 7 5 4 10-3 6-11 10-16 10-6 0-7-4-4-10z"/>
<path d="m327 1233c-11-10-8-53 3-53 6 0 10 6 10 14s3 21 6 30c6 16-7 22-19 9z"/>
<path d="m180 1200c0-5 5-10 10-10 6 0 10 5 10 10 0 6-4 10-10 10-5 0-10-4-10-10z"/>
<path d="m366 1185c-20-15-22-14 52-40 7-3 15 2 18 10 9 21 24 19 24-4 0-17 3-18 25-8 14 7 25 14 25 17 0 10-69 32-80 25-5-3-10-1-10 4 0 16-32 13-54-4z"/>
<path d="m1087 1166c-7-18 18-42 27-27 4 6 14 7 24 4 9-3 5 4-10 15-31 26-34 26-41 8z"/>
<path d="m5855 1160c3-5 8-10 11-10 2 0 4 5 4 10 0 6-5 10-11 10-5 0-7-4-4-10z"/>
<path d="m6048 1163c7-3 16-2 19 1 4 3-2 6-13 5-11 0-14-3-6-6z"/>
<path d="m306 1151c-4-7-5-15-2-18 9-9 19 4 14 18-4 11-6 11-12 0z"/>
<path d="m328 1136c-4-21-1-24 21-22 27 3 43 26 17 26-9 0-16 5-16 10 0 20-18 9-22-14z"/>
<path d="m2837 1115c-21-25-34-45-29-45s22 17 38 38c15 20 33 40 38 44 7 5 7 8 1 8-5-1-27-21-48-45z"/>
<path d="m5880 1141c0-5 5-13 10-16 6-3 10-2 10 4 0 5-4 13-10 16-5 3-10 2-10-4z"/>
<path d="m381 1114c-10-23-10-26 4-20 9 3 19 6 21 6s4 9 4 20c0 28-15 25-29-6z"/>
<path d="m5248 1133c7-3 16-2 19 1 4 3-2 6-13 5-11 0-14-3-6-6z"/>
<path d="m6120 1136c0-2 12-11 26-21 15-9 23-12 19-5s-1 16 6 21c10 6 4 9-18 9-18 0-33-2-33-4z"/>
<path d="m297 1103c-18-17 3-27 79-37 11-1 25-6 32-10 12-7 29 40 18 52-4 3-9-4-12-15l-6-22-52 19c-60 23-51 21-59 13z"/>
<path d="m5430 1090c-14-11-22-20-18-20 14 0 58 23 58 32 0 13-13 9-40-12z"/>
<path d="m5921 1100c0-8 4-22 9-30 12-18 12-2 0 25-6 13-9 15-9 5z"/>
<path d="m5486 1065c4-8 11-15 16-15 6 0 5 6-2 15-7 8-14 15-16 15s-1-7 2-15z"/>
<path d="m5630 1058c-12-22-12-22 6-6 10 10 15 20 12 24-4 3-12-5-18-18z"/>
<path d="m6220 1060c0-5 5-10 10-10 6 0 10 5 10 10 0 6-4 10-10 10-5 0-10-4-10-10z"/>
<path d="m325 1050c11-5 27-9 35-9 9 0 8 4-5 9-11 5-27 9-35 9-9 0-8-4 5-9z"/>
<path d="m2605 1039c-9-14-2-20 14-10 8 6 9 11 3 15-6 3-14 1-17-5z"/>
<path d="m5435 1040c-3-5-2-10 4-10 5 0 13 5 16 10 3 6 2 10-4 10-5 0-13-4-16-10z"/>
<path d="m390 1030c20-13 33-13 25 0-3 6-14 10-23 10-15 0-15-2-2-10z"/>
<path d="m2527 1033c-8-12 20-53 36-53 9 0 9 2 0 8-7 4-16 18-21 31-5 14-12 20-15 14z"/>
<path d="m261 963c5-38 11-82 14-99l5-31 108-7c59-3 177-13 262-20 85-8 156-13 158-11 2 1-18 15-44 29-32 18-50 23-54 15-5-6-9-3-12 9-5 19-109 82-135 82-7 0-13 5-13 10 0 6-11 10-24 10-23 0-24-2-14-34 7-23 7-42 0-62l-11-29 1 30c1 40-21 117-32 110-5-3-4-21 2-41 11-42 4-55-17-28-14 19-14 18-15-3 0-28-10-53-21-53-5 0-7 28-4 63 2 34 2 70-1 80-8 25-34 21-34-5 0-20-2-19-16 8-11 24-20 30-35 27-10-3-19 0-19 6s-4 11-10 11c-5 0-10-17-11-37l-1-38-10 38c-16 59-25 43-17-30zm111-45c6-18-3-68-13-68-5 0-9 18-9 40 0 37 13 55 22 28zm193-38c-4-12-9-19-12-17-3 3-2 15 2 27s9 19 12 17c3-3 2-15-2-27zm38-32c-7-38-21-27-15 12 2 17 8 28 12 23 5-4 6-20 3-35z"/>
<path d="m5545 1022c-55-12-60-48-7-54 44-6 49-3 32 18-11 13-11 17-1 24 17 10 2 18-24 12z"/>
<path d="m5780 1012c0-12 19-26 26-19 2 2-2 10-11 17-9 8-15 8-15 2z"/>
<path d="m2669 993c-13-16-12-17 4-4s21 21 13 21c-2 0-10-8-17-17z"/>
<path d="m437 983c-10-10-8-63 2-63 11 0 20 45 11 60-3 5-9 7-13 3z"/>
<path d="m6080 970c0-12 8-12 35 0 18 8 17 9-7 9-16 1-28-3-28-9z"/>
<path d="m5820 950c0-5 5-10 11-10 5 0 7 5 4 10-3 6-8 10-11 10-2 0-4-4-4-10z"/>
<path d="m5620 922c0-12 8-23 21-27 31-10 32-1 4 25-25 23-25 23-25 2z"/>
<path d="m2445 920c-7-12 40-36 89-46l39-7-21 21c-12 12-28 19-37 16-8-4-17 1-21 10-7 17-39 22-49 6z"/>
<path d="m5910 896c0-2 8-10 18-17 15-13 16-12 3 4s-21 21-21 13z"/>
<path d="m4855 880c3-5-1-10-9-10-9 0-16-4-16-9 0-13 30-35 37-27 4 4 1 12-7 17-12 8-11 10 5 8 35-3 39 1 19 16-22 17-38 20-29 5z"/>
<path d="m4896 839c-25-24-19-29 23-21 31 7 32 8 14 23-17 15-19 15-37-2z"/>
<path d="m5600 850c-10-6-8-10 7-19 19-10 33-6 33 10 0 12-26 18-40 9z"/>
<path d="m2282 842c-13-9-7-12 58-40 45-19 156-51 196-57 21-2 55-7 74-10 113-15 135-16 120-6-13 10-13 11 0 11 29 1-13 20-43 20-20 0-26-4-21-12 5-9 2-8-9 1-10 8-32 15-50 17-38 3-164 31-192 43-25 10-85 31-105 37-8 2-21 1-28-4z"/>
<path d="m4830 784c0-6 13-30 29-55 25-39 176-296 229-389 42-76 96-167 125-213l30-48 162 5c142 5 164 4 169-10 3-9 6-17 6-18 0-8-66 0-72 9-5 7-11 7-15 0-5-6-35-10-68-10s-64-1-69-4c-19-9-111 1-139 15-15 8-35 30-44 49s-23 35-30 35c-16 0-17-12-1-28 17-17-10-36-29-20-9 7-14 6-19-6-8-22-27-20-49 4-10 11-24 20-32 20-7 0-16 7-19 15-4 8-11 15-16 15-6 0-27 14-48 30-21 17-41 30-45 30-3 0-32 19-63 43-71 52-92 66-114 73-10 4-18 10-18 15s-9 9-20 9-20 4-20 9-13 16-30 25c-41 20-38 6 4-21 38-24 178-178 265-290l56-73h485c309 1 479 4 469 10-9 5-30 11-48 12-17 1-31 6-31 10 0 26-179 47-208 24-10-7-16-5-23 5-14 22-5 34 27 36 16 0 32 2 37 2 4 1 0 12-9 26-16 25-16 25 15 25 17 0 31-5 31-12 0-6 3-9 6-6 3 4-2 21-12 39-30 58-136 210-154 219-9 5-43 48-74 95-55 81-76 106-76 88 0-4 9-23 20-40 35-59 5-35-68 52-13 15-29 40-38 56-9 18-19 26-29 23-8-4-15-1-15 6 0 6 5 8 10 5 6-3 10-2 10 4 0 12-78 111-89 111-20 0-17-14 7-37 15-14 19-20 9-12-18 12-18 11-1-24 9-20 21-34 25-32 8 5 32-55 25-62-2-3-10 6-16 19-15 28-91 130-105 140-17 13-28 9-16-6 6-8 11-18 10-22-4-22 3-35 34-63 22-21 27-31 16-31-13 0-67 65-97 116-9 16-242 23-242 8zm110-64c0-5-2-10-4-10-3 0-8 5-11 10-3 6-1 10 4 10 6 0 11-4 11-10zm265-69c3-5 1-12-5-16-5-3-10 1-10 9 0 18 6 21 15 7zm70-31c3-5 1-10-4-10-6 0-11 5-11 10 0 6 2 10 4 10 3 0 8-4 11-10zm8-47c2-10 8-26 12-35 4-10 3-18-2-18s-14 16-20 35-8 35-3 35c4 0 10-8 13-17zm61-73c6 0 12-9 12-20s-4-20-8-20-8 4-8 10c0 5-6 7-14 4s-16 3-19 16c-4 16-2 20 10 16 8-3 20-6 27-6zm-134-130c0-5-4-10-10-10-5 0-10 5-10 10 0 6 5 10 10 10 6 0 10-4 10-10zm175-150c4-6 11-8 16-5s6-1 3-9c-8-22-21-20-34 4-11 20 3 30 15 10zm165-22c0-6-6-5-15 2-8 7-15 14-15 16s7 1 15-2c8-4 15-11 15-16zm-48-10c-7-7-12-8-12-2 0 14 12 26 19 19 2-3-1-11-7-17zm-137-18c3-6-1-7-9-4-18 7-21 14-7 14 6 0 13-4 16-10zm74-22c0-31-1-31-10-10-5 13-7 28-3 33 10 16 14 9 13-23zm176-11c19-26 13-32-17-16-39 20-52 51-18 42 11-3 27-15 35-26zm-240 3c8-13-5-13-25 0-13 8-13 10 2 10 9 0 20-4 23-10z"/>
<path d="m2340 772c0-12 51-37 109-52 72-19 41-20-42-1-42 10-77 16-77 13 0-2-6 0-12 5-19 15-116 36-133 29-24-9-6-34 30-43 31-7 32-10 20-26-12-17-20-18-86-8-62 10-75 9-88-3-19-20-13-25 34-31 20-3 44-9 54-14 26-15-9-24-44-11-15 6-30 8-33 6-3-3 8-10 24-17 120-46 153-50 161-19 3 11 13 20 22 20 21 0 177-26 214-35 27-7 39 8 15 18-8 4-7 6 4 6 9 1 23-5 30-11 7-7 27-13 43-13 22 0 30 4 29 18-1 12 6 17 25 17 37 0 44 10 24 32-15 17-14 18 22 18 62 0 30 16-85 44-58 15-125 32-150 40-68 22-110 29-110 18zm115-153c5-5-5-4-23 2-17 6-32 13-32 16 0 7 43-8 55-18z"/>
<path d="m5253 765c1-10 9-26 17-36 36-39 54-65 52-71-1-5 3-8 8-8 15 0 12 16-5 34-8 8-15 18-15 23s-13 24-29 43c-23 27-29 31-28 15z"/>
<path d="m6070 772c0-20 32-50 60-56 17-3 29-10 25-16-3-5 11-16 31-25 42-17 44-18 44-7 0 5-17 13-37 19-36 10-34 10 17 5 59-5 87-19 72-34-6-6-7-19-4-31 5-20 6-20 13-1 7 16 8 17 8 2 1-10 6-18 12-18s8 9 4 20c-5 17-2 20 20 20 14 0 35-5 46-11 18-9 20-8 17 13-2 18-10 24-36 26-18 2-40-2-48-9s-14-8-13-3c3 15-15 49-28 51-6 2-31 5-55 8l-43 6 30-15c34-16 20-21-19-6-14 5-26 16-26 25 0 11-6 14-24 9-17-4-31 1-45 15-12 12-21 18-21 13z"/>
<path d="m6288 763c7-3 16-2 19 1 4 3-2 6-13 5-11 0-14-3-6-6z"/>
<path d="m6330 760c-8-5-11-12-7-17 5-4 12-1 17 7 7 11 11 12 24 0 9-7 19-10 23-6 14 14-36 29-57 16z"/>
<path d="m2750 740c0-5 5-10 10-10 6 0 10 5 10 10 0 6-4 10-10 10-5 0-10-4-10-10z"/>
<path d="m4773 722c-12-15-67-72-122-128l-101-101 148-108c81-60 173-128 205-152 55-41 77-47 77-20 0 7 16 30 35 51 38 42 41 51 24 61-6 4-8 13-5 21 3 7 0 17-7 21-7 5-19 22-27 38-8 17-17 32-20 35s-12 19-20 35c-8 17-19 33-25 37-5 4-10 11-11 15-2 17-18 48-28 55-6 4-12 11-12 15-4 23-17 53-23 53-4 0-13 16-21 35s-17 35-22 35c-4 0-8 7-8 15 0 22-12 18-37-13z"/>
<path d="m2910 661c0-5-13-22-29-38-28-29-26-43 9-51 18-4 31-23 24-34-3-4 6-8 20-8s26-4 26-10c0-5 7-10 15-10 21 0 19 27-6 61-13 18-19 38-16 51 3 11 0 27-8 34-16 16-35 18-35 5zm20-71c0-5-7-7-15-4-8 4-15 8-15 10s7 4 15 4 15-4 15-10zm25-20c3-5-1-10-10-10s-13 5-10 10c3 6 8 10 10 10s7-4 10-10zm12-26c-3-3-12-4-19-1-8 3-5 6 6 6 11 1 17-2 13-5z"/>
<path d="m5342 616c1-10 8-17 13-17 15 1 12 24-3 29-9 3-13-2-10-12z"/>
<path d="m1990 597c-76-40-89-62-45-73 24-6 36-34 15-34-5 0-10-4-10-10 0-5 8-10 18-10s23-5 29-11 16-8 22-5c18 11 13 26-9 26-23 0-27 28-5 36 8 4 15 10 15 15s-7 9-15 9c-24 0-17 14 16 32 49 28 20 52-31 25z"/>
<path d="m2272 598c-20-20-15-40 9-33 13 4 25 2 29-5 5-7 36-14 76-16 38-2 62-1 54 2-29 10-56 21-103 43-56 25-50 24-65 9z"/>
<path d="m2048 544c-11-23-10-29 12-46 21-17 34-19 82-14 54 7 56 6 51-15-6-21-4-21 49-15 50 6 56 5 61-13 6-23 42-40 100-48 24-4 37-2 37 6 0 6-4 11-10 11-5 0-10 5-10 10 0 6 9 10 19 10 50 0 70 31 29 45-13 4-42 7-65 5-35-1-43 2-43 15 0 12-5 15-17 10-41-17-63-18-63-1 0 21-26 32-43 17-10-8-19-4-36 19-20 27-27 30-82 30-54 0-60-2-71-26zm119-10c5-16-42-37-66-29-27 8-27 23 2 35 27 11 59 9 64-6z"/>
<path d="m6127 550c3-11 10-23 16-27 7-4 8 0 4 11-4 10-7 22-7 27s-4 9-9 9-7-9-4-20z"/>
<path d="m4080 530c-7-17-10-33-8-36 3-2 11 9 18 26s10 33 8 36c-3 2-11-9-18-26z"/>
<path d="m6199 543c12-24 31-39 31-25 0 5-10 17-21 28-22 19-22 19-10-3z"/>
<path d="m2640 540c0-5 5-10 11-10 5 0 7 5 4 10-3 6-8 10-11 10-2 0-4-4-4-10z"/>
<path d="m2459 538c-9-31-5-36 26-35 28 2 32 5 24 20-8 13-47 25-50 15z"/>
<path d="m6292 510c0-14 2-19 5-12 2 6 2 18 0 25-3 6-5 1-5-13z"/>
<path d="m2985 490c-3-5 1-10 10-10s13 5 10 10c-3 6-8 10-10 10s-7-4-10-10z"/>
<path d="m6081 458c0-33 2-38 9-23 12 28 12 65 0 65-5 0-10-19-9-42z"/>
<path d="m6137 471c-3-12-1-21 3-21 15 0 23 21 12 32-6 6-11 2-15-11z"/>
<path d="m2047 446c-6-16 2-28 14-20 12 7 11 34 0 34-5 0-11-6-14-14z"/>
<path d="m6363 405c0-27 2-38 4-22 2 15 2 37 0 50-2 12-4 0-4-28z"/>
<path d="m6130 428c0-9 5-20 10-23 13-8 13 5 0 25-8 13-10 13-10-2z"/>
<path d="m6170 431c0-6 5-13 10-16 6-3 10 1 10 9 0 9-4 16-10 16-5 0-10-4-10-9z"/>
<path d="m2121 411c26-21 41-19 32 4-3 8-16 15-30 15h-25l23-19z"/>
<path d="m6282 405c0-16 2-22 5-12 2 9 2 23 0 30-3 6-5-1-5-18z"/>
<path d="m6314 409c-3-6-1-16 5-22 8-8 11-5 11 11 0 24-5 28-16 11z"/>
<path d="m2246 403c-11-11-6-23 9-23 8 0 15 4 15 9 0 13-16 22-24 14z"/>
<path d="m4333 370c-6-16-8-30-4-30 3 0 12 14 18 30 6 17 8 30 4 30-3 0-12-13-18-30z"/>
<path d="m6392 380c0-14 2-19 5-12 2 6 2 18 0 25-3 6-5 1-5-13z"/>
<path d="m2202 369c2-7 10-15 17-17 8-3 12 1 9 9-2 7-10 15-17 17-8 3-12-1-9-9z"/>
<path d="m2324 355c-4-10-13-13-24-10-10 3-21 1-24-4-4-5 2-12 13-16 19-6 61 20 61 37 0 14-20 8-26-7z"/>
<path d="m4120 331c0-12 5-21 10-21 6 0 10 6 10 14s-4 18-10 21c-5 3-10-3-10-14z"/>
<path d="m6330 334c0-3 7-12 15-20 13-13 15-13 15-1 0 8-7 17-15 21-8 3-15 3-15 0z"/>
<path d="m4316 321c-4-7-5-15-2-18 9-9 19 4 14 18-4 11-6 11-12 0z"/>
<path d="m4180 295c0-29 6-31 26-10 17 16 11 35-12 35-8 0-14-10-14-25z"/>
<path d="m3975 269c-4-6-5-12-2-15 2-3 7 2 10 11 7 17 1 20-8 4z"/>
<path d="m4283 258c-6-13-22-50-34-83-13-33-27-64-31-69-10-13-10-36 0-36 5 0 26 44 48 97 21 54 41 101 42 105 9 20-16 5-25-14z"/>
<path d="m4160 255c9-11 10-15 1-15-8 0-10-8-6-20 5-15 3-18-8-14-18 6-29-40-14-55s27-13 27 4c0 18 12 19 27 4 7-7 12-4 16 10 4 16 0 21-14 21-20 0-24 16-10 39 6 9 4 19-4 28-18 18-30 17-15-2z"/>
<path d="m2020 231c0-6 4-11 9-11s12-8 16-19c7-23 106-54 117-37 16 24-53 63-100 57-8-1-20 3-28 10-10 8-14 8-14 0z"/>
<path d="m3824 224c-19-13-20-18-10-64 10-43 50-100 62-87 9 9-8 35-27 40-22 6-24 25-8 80 12 46 11 49-17 31z"/>
<path d="m3410 200c0-5 5-10 10-10 6 0 10 5 10 10 0 6-4 10-10 10-5 0-10-4-10-10z"/>
<path d="m3944 198c-5-7-14-26-20-43-6-16-15-38-19-47-4-10-3-18 2-18 11 0 58 109 50 116-3 3-9-1-13-8z"/>
<path d="m2188 184c-5-4-8-16-8-26 0-14 8-18 35-18 19 0 35-4 35-10 0-5 4-10 8-10s8 9 8 20c0 12-7 20-17 20s-20 6-22 13c-4 10-6 10-6 0-1-19-19-16-23 3-2 9-6 12-10 8z"/>
<path d="m3323 153c-24-5-32-22-10-24 68-6 87-3 87 14s-23 20-77 10z"/>
<path d="m5050 150c0-5 5-10 10-10 6 0 10 5 10 10 0 6-4 10-10 10-5 0-10-4-10-10z"/>
<path d="m3470 140c0-5 5-10 10-10 6 0 10 5 10 10 0 6-4 10-10 10-5 0-10-4-10-10z"/>
<path d="m3430 128c0-9 7-19 16-22 25-10 27-1 4 19-17 15-20 16-20 3z"/>
<path d="m3378 98c-2-6-15-12-29-13-15-1-25-9-28-21-3-16-1-17 13-5 9 7 24 11 35 8 26-6 43 6 35 26-7 20-21 22-26 5z"/>
<path d="m5708 103c7-3 16-2 19 1 4 3-2 6-13 5-11 0-14-3-6-6z"/>
<path d="m3430 76c0-2 7-9 15-16 12-10 15-10 15 4 0 9-7 16-15 16s-15-2-15-4z"/>
<path d="m3380 40c0-5 5-10 10-10 6 0 10 5 10 10 0 6-4 10-10 10-5 0-10-4-10-10z"/>
<path d="m3336 15c8-19 14-19 14 0 0 8-4 15-10 15-5 0-7-7-4-15z"/>
<path d="m3004 9c-3-5 9-9 25-9 17 0 31 4 31 9s-11 9-25 9-28-4-31-9z"/>
<path d="m2953 3c9-2 23-2 30 0 6 3-1 5-18 5-16 0-22-2-12-5z"/>
</g>
</svg>
