<?xml version="1.0" standalone="no"?>
<!DOCTYPE svg PUBLIC "-//W3C//DTD SVG 20010904//EN"
 "http://www.w3.org/TR/2001/REC-SVG-20010904/DTD/svg10.dtd">
<svg version="1.0" xmlns="http://www.w3.org/2000/svg"
 width="600.000000pt" height="333.000000pt" viewBox="0 0 600.000000 333.000000"
 preserveAspectRatio="xMidYMid meet">

<g transform="translate(0.000000,333.000000) scale(0.100000,-0.100000)"
fill="#000000" stroke="none">
<path d="M63 3255 c-3 -9 -3 -19 1 -22 3 -4 6 1 6 10 0 10 5 17 11 17 5 0 8
-4 4 -9 -3 -5 -2 -12 3 -15 4 -2 9 4 9 15 2 23 -25 26 -34 4z"/>
<path d="M2 1593 l3 -1578 2995 0 2995 0 3 1578 2 1577 -3000 0 -3000 0 2
-1577z m606 1483 c3 -12 -1 -17 -10 -14 -7 3 -15 13 -16 22 -3 12 1 17 10 14
7 -3 15 -13 16 -22z m42 -1 c0 -8 -4 -15 -10 -15 -5 0 -10 7 -10 15 0 8 5 15
10 15 6 0 10 -7 10 -15z m-438 -32 c-2 -12 -6 -23 -7 -23 -1 0 -5 11 -7 23 -3
14 0 24 7 24 7 0 10 -10 7 -24z m75 21 c-3 -3 -12 -4 -19 -1 -8 3 -5 6 6 6 11
1 17 -2 13 -5z m95 -3 c-8 -4 -13 -11 -12 -15 1 -4 -1 -12 -3 -19 -3 -6 -6 0
-6 16 -1 19 4 27 17 27 13 0 14 -2 4 -9z m127 0 c17 -11 7 -41 -14 -41 -9 0
-15 9 -15 25 0 27 6 30 29 16z m59 -19 c2 -14 -2 -22 -12 -22 -19 0 -29 17
-22 36 8 22 30 12 34 -14z m5153 -12 c5 0 9 6 9 14 0 21 20 30 33 17 9 -9 8
-11 -5 -6 -13 5 -18 2 -18 -10 0 -11 5 -15 16 -11 8 3 13 2 10 -3 -3 -4 -19
-8 -36 -9 -26 -1 -30 2 -29 26 2 24 2 24 6 5 2 -13 9 -23 14 -23z m82 33 c-7
-2 -13 -12 -13 -21 0 -15 2 -15 10 -2 8 13 10 12 10 -2 0 -20 -15 -24 -25 -8
-9 15 2 40 17 39 10 0 10 -2 1 -6z m-5566 -35 c-3 -7 -5 -2 -5 12 0 14 2 19 5
13 2 -7 2 -19 0 -25z m76 7 c-7 -21 -13 -19 -13 6 0 11 4 18 10 14 5 -3 7 -12
3 -20z m18 -2 c-12 -20 -14 -14 -5 12 4 9 9 14 11 11 3 -2 0 -13 -6 -23z m112
2 c-7 -21 -13 -19 -13 6 0 11 4 18 10 14 5 -3 7 -12 3 -20z m5384 -7 c-3 -7
-5 -2 -5 12 0 14 2 19 5 13 2 -7 2 -19 0 -25z m46 24 c4 9 6 7 6 -4 1 -11 -6
-16 -19 -15 -11 1 -20 8 -20 15 0 11 3 12 14 3 11 -9 15 -9 19 1z m-5408 -22
c3 -5 1 -10 -4 -10 -6 0 -11 5 -11 10 0 6 2 10 4 10 3 0 8 -4 11 -10z m1998
-519 c3 8 6 9 6 3 1 -6 -6 -17 -14 -24 -13 -10 -15 -9 -15 11 0 17 3 20 9 10
7 -11 9 -11 14 0z m48 0 c7 11 9 9 9 -7 0 -12 -6 -21 -15 -21 -9 0 -15 9 -14
21 0 13 3 16 6 7 5 -11 7 -11 14 0z m46 -23 c-3 -7 -5 -2 -5 12 0 14 2 19 5
13 2 -7 2 -19 0 -25z m73 0 c0 -5 -7 -3 -15 6 -8 8 -15 18 -15 22 0 3 7 1 15
-6 8 -7 15 -17 15 -22z m33 12 c3 -11 1 -20 -4 -20 -5 0 -9 9 -9 20 0 11 2 20
4 20 2 0 6 -9 9 -20z m80 12 c3 7 6 3 6 -10 1 -20 -1 -21 -19 -10 -11 7 -20
17 -20 22 0 4 6 3 14 -3 11 -9 15 -9 19 1z m44 -24 c-3 -7 -5 -2 -5 12 0 14 2
19 5 13 2 -7 2 -19 0 -25z m40 0 c-3 -7 -5 -2 -5 12 0 14 2 19 5 13 2 -7 2
-19 0 -25z m49 21 c4 -8 9 -7 15 2 6 10 8 7 6 -9 -1 -24 -12 -29 -23 -11 -4 8
-9 7 -15 -2 -6 -10 -9 -8 -9 9 0 23 14 30 26 11z m58 -4 c-5 -11 -2 -13 10 -9
9 3 16 1 16 -5 0 -6 -9 -11 -20 -11 -13 0 -20 7 -20 20 0 11 4 20 10 20 5 0 7
-7 4 -15z m93 -17 c-3 -7 -5 -2 -5 12 0 14 2 19 5 13 2 -7 2 -19 0 -25z m40 0
c-3 -7 -5 -2 -5 12 0 14 2 19 5 13 2 -7 2 -19 0 -25z m36 12 c3 -11 1 -20 -4
-20 -5 0 -9 9 -9 20 0 11 2 20 4 20 2 0 6 -9 9 -20z m83 11 c11 8 15 9 10 2
-4 -7 -16 -18 -27 -23 -16 -9 -19 -7 -19 12 0 18 2 20 9 9 8 -13 12 -13 27 0z
m41 -23 c-3 -7 -5 -2 -5 12 0 14 2 19 5 13 2 -7 2 -19 0 -25z m116 24 c3 7 6
3 6 -10 1 -20 -1 -21 -19 -10 -11 7 -20 17 -20 22 0 4 6 3 14 -3 11 -9 15 -9
19 1z m34 -24 c-3 -7 -5 -2 -5 12 0 14 2 19 5 13 2 -7 2 -19 0 -25z m33 6 c0
-8 -4 -14 -8 -14 -4 0 -8 9 -8 19 0 11 4 17 8 15 4 -3 8 -12 8 -20z m36 6 c0
-12 -4 -16 -9 -11 -5 5 -6 14 -3 20 10 15 12 14 12 -9z m28 -10 c-6 -6 -10 -3
-10 10 0 13 4 16 10 10 7 -7 7 -13 0 -20z m76 -2 c0 -5 -7 -3 -15 6 -8 8 -15
18 -15 22 0 3 7 1 15 -6 8 -7 15 -17 15 -22z m-1290 -158 c0 -11 -7 -20 -15
-20 -8 0 -15 -7 -15 -15 0 -9 9 -15 25 -15 17 0 25 6 25 17 0 26 31 53 62 53
21 0 28 -5 28 -19 0 -10 -9 -21 -20 -24 -23 -6 -27 -27 -5 -27 8 0 15 -9 15
-20 0 -11 -7 -20 -15 -20 -12 0 -15 -13 -15 -60 0 -57 -1 -60 -25 -60 -24 0
-25 3 -25 59 0 39 -4 61 -12 64 -29 10 -38 -6 -38 -64 0 -59 0 -59 -30 -59
l-30 0 0 60 c0 33 -4 60 -10 60 -5 0 -10 9 -10 20 0 11 5 20 10 20 6 0 10 7
10 15 0 23 37 55 65 55 18 0 25 -5 25 -20z m560 -95 l0 -115 -25 0 -25 0 0
115 0 115 25 0 25 0 0 -115z m-670 80 c0 -23 -4 -25 -45 -25 -38 0 -45 -3 -45
-20 0 -17 7 -20 40 -20 33 0 40 -3 40 -20 0 -17 -7 -20 -40 -20 -36 0 -40 -2
-40 -25 0 -23 4 -25 45 -25 38 0 45 -3 45 -20 0 -18 -7 -20 -75 -20 l-75 0 0
103 c0 57 3 107 7 110 3 4 37 7 75 7 66 0 68 -1 68 -25z m1381 -4 c37 -37 37
-51 -1 -51 -20 0 -30 5 -30 15 0 9 -9 15 -25 15 -31 0 -49 -39 -40 -87 8 -42
43 -55 63 -24 17 25 62 29 62 6 0 -31 -47 -65 -87 -65 -63 1 -93 38 -93 115 0
59 40 105 90 105 22 0 41 -9 61 -29z m158 19 c19 -5 38 -15 43 -22 13 -21 9
-75 -7 -88 -13 -10 -12 -17 5 -51 25 -49 25 -49 -8 -49 -24 0 -32 7 -47 40
-10 22 -24 40 -32 40 -9 0 -13 -13 -13 -40 0 -36 -2 -40 -25 -40 l-25 0 0 110
0 110 38 0 c20 0 53 -4 71 -10z m174 -62 l24 -73 22 71 c22 69 23 71 56 72
l35 1 0 -109 0 -110 -25 0 c-24 0 -25 3 -26 63 l-1 62 -21 -63 c-17 -51 -25
-62 -41 -60 -14 2 -26 21 -42 68 l-23 65 2 -65 c2 -64 2 -65 -25 -68 l-28 -3
0 104 c0 57 3 107 7 110 3 4 19 7 34 7 25 0 29 -6 52 -72z m-1143 32 c0 -11 7
-20 15 -20 8 0 15 -9 15 -20 0 -11 -7 -20 -15 -20 -11 0 -15 -11 -15 -35 0
-22 6 -38 15 -41 8 -4 15 -15 15 -25 0 -14 -7 -19 -28 -19 -40 0 -52 17 -52
72 0 26 -4 48 -10 48 -5 0 -10 9 -10 20 0 11 5 20 10 20 6 0 10 9 10 20 0 15
7 20 25 20 18 0 25 -5 25 -20z m-215 -40 c27 -29 24 -99 -5 -122 -70 -56 -161
24 -119 105 16 30 28 37 70 37 23 0 42 -7 54 -20z m135 -6 c0 -17 -6 -24 -20
-24 -18 0 -20 -7 -20 -55 0 -54 0 -55 -30 -55 l-30 0 0 79 0 80 50 -1 c46 0
50 -2 50 -24z m334 4 c9 -12 16 -35 16 -50 0 -27 -2 -28 -46 -28 -30 0 -43 -4
-38 -11 3 -6 19 -9 35 -5 15 3 31 1 34 -5 12 -18 -17 -39 -52 -39 -70 0 -110
87 -63 138 29 31 93 31 114 0z m148 5 c10 -9 18 -20 18 -25 0 -12 -44 -10 -58
4 -9 9 -15 9 -24 0 -9 -9 -7 -13 8 -17 69 -21 89 -51 58 -86 -32 -36 -124 -16
-124 28 0 16 32 17 47 2 6 -6 19 -9 29 -7 14 3 9 9 -21 22 -57 24 -69 50 -39
80 20 21 83 20 106 -1z m152 1 c9 -8 16 -20 16 -25 0 -13 -44 -11 -58 3 -9 9
-15 9 -24 0 -9 -9 -7 -13 8 -17 69 -21 89 -51 58 -86 -32 -36 -124 -16 -124
28 0 16 32 17 47 2 6 -6 19 -9 29 -7 14 4 8 9 -23 22 -49 21 -63 49 -37 77 21
24 86 26 108 3z m-1749 -302 c14 -10 17 -52 4 -52 -5 0 -7 5 -4 10 3 6 -1 10
-10 10 -9 0 -13 -4 -10 -10 3 -5 1 -10 -4 -10 -12 0 -15 43 -4 53 8 9 15 9 28
-1z m227 -24 c-4 -28 -6 -30 -12 -13 -8 21 -3 45 9 45 4 0 5 -15 3 -32z m85
-15 c-3 -10 -5 -2 -5 17 0 19 2 27 5 18 2 -10 2 -26 0 -35z m270 0 c-3 -10 -5
-2 -5 17 0 19 2 27 5 18 2 -10 2 -26 0 -35z m463 17 c4 7 15 10 24 7 14 -5 15
-11 6 -27 -8 -15 -15 -18 -24 -11 -7 6 -17 6 -26 1 -18 -11 -30 -4 -30 21 0
10 7 19 15 19 8 0 16 6 16 13 1 6 4 1 6 -12 4 -17 7 -20 13 -11z m88 18 c-2
-8 6 -12 20 -10 12 2 22 -1 22 -7 0 -6 -7 -8 -15 -5 -16 7 -21 -11 -5 -21 5
-3 15 3 22 15 16 26 28 26 21 0 -3 -12 -8 -18 -11 -15 -3 2 -11 0 -18 -6 -9
-7 -17 -4 -28 13 -15 21 -16 21 -17 3 0 -20 -1 -20 -8 0 -9 22 -4 45 10 45 5
0 8 -6 7 -12z m150 5 c-11 -3 -19 -15 -19 -31 l-2 -27 -4 25 c-3 14 -10 28
-17 32 -6 4 5 7 24 7 19 -1 27 -3 18 -6z m1506 -20 c-7 -37 -14 -42 -14 -11 0
21 7 38 16 38 1 0 0 -12 -2 -27z m-2612 -12 c2 -17 1 -28 -4 -25 -8 5 -12 54
-4 54 2 0 6 -13 8 -29z m115 -8 c-3 -10 -5 -4 -5 12 0 17 2 24 5 18 2 -7 2
-21 0 -30z m388 3 c0 -14 -3 -22 -7 -20 -4 3 -8 17 -8 31 0 32 13 22 15 -11z
m838 4 c-3 -11 -9 -18 -13 -15 -5 3 -6 14 -3 25 3 11 9 18 13 15 5 -3 6 -14 3
-25z m37 20 c0 -6 9 -6 25 0 16 6 25 6 25 0 0 -5 7 -7 16 -3 20 7 37 -17 23
-34 -13 -15 -39 -6 -40 16 0 11 -3 8 -10 -7 -6 -15 -13 -21 -21 -15 -7 4 -19
8 -27 8 -8 0 -17 7 -19 15 -5 13 -3 13 11 1 19 -15 23 -1 5 17 -9 9 -9 12 0
12 7 0 12 -4 12 -10z m171 -2 c22 4 32 -23 14 -38 -10 -8 -17 -6 -30 12 l-17
23 5 -22 c3 -13 3 -23 1 -23 -8 0 -22 45 -17 53 2 4 10 4 16 0 7 -4 19 -6 28
-5z m404 -22 c0 -14 -3 -22 -7 -20 -4 3 -8 17 -8 31 0 32 13 22 15 -11z m45
12 c0 -5 -4 -7 -9 -3 -5 3 -12 -3 -14 -12 -3 -11 -5 -8 -6 9 -1 20 3 26 14 22
8 -4 15 -10 15 -16z m239 -29 c-17 -10 -29 -2 -29 21 0 25 34 31 38 6 2 -10
-2 -22 -9 -27z m120 24 c-1 -17 -3 -21 -6 -10 -2 9 -13 17 -24 17 -22 0 -24
-11 -7 -28 7 -7 10 -12 7 -12 -3 0 -14 9 -23 19 -18 19 -17 20 15 30 19 5 35
10 37 10 1 1 1 -11 1 -26z m113 -2 c2 -17 1 -28 -4 -25 -4 3 -8 13 -9 22 0 14
-2 13 -9 -3 -6 -14 -9 -15 -9 -4 -1 12 16 39 25 39 1 0 4 -13 6 -29z m218 -6
c0 -7 -4 -16 -9 -19 -5 -4 -7 3 -4 14 3 11 1 20 -5 20 -6 0 -13 -8 -15 -17 -3
-11 -5 -7 -6 10 -1 25 1 27 19 17 11 -6 20 -17 20 -25z m80 0 c1 11 2 23 2 26
-1 4 8 5 18 2 13 -3 20 -13 19 -27 -1 -17 -2 -17 -6 -3 -5 21 -23 23 -23 3 0
-26 -20 -28 -29 -4 -7 15 -10 18 -10 7 -1 -20 -28 -33 -36 -18 -4 5 -1 8 6 7
6 -2 14 3 17 11 3 10 0 12 -12 8 -9 -4 -16 -1 -16 4 0 6 9 9 20 6 11 -3 23 0
27 6 5 7 10 0 14 -18 5 -21 7 -24 9 -10z m-2885 15 c4 -6 -1 -7 -11 -3 -14 5
-16 2 -11 -17 4 -16 3 -20 -5 -12 -12 12 -4 42 11 42 5 0 13 -4 16 -10z m42
-16 c2 -13 1 -15 -4 -4 -3 8 -11 19 -17 23 -7 6 -6 7 4 4 8 -2 16 -12 17 -23z
m41 1 c9 16 11 17 12 4 0 -17 -23 -32 -34 -22 -3 4 -6 16 -5 27 1 18 2 17 8
-4 7 -24 7 -24 19 -5z m104 0 c3 -13 1 -22 -3 -19 -9 5 -13 44 -5 44 2 0 6
-11 8 -25z m25 -7 c-3 -7 -5 -2 -5 12 0 14 2 19 5 13 2 -7 2 -19 0 -25z m80 2
c-11 -29 -12 -29 -19 -9 -5 12 -6 24 -3 27 3 3 5 -1 5 -9 1 -10 3 -9 11 4 16
26 18 20 6 -13z m64 23 c-10 -4 -11 -7 -1 -13 14 -9 5 -30 -13 -30 -7 0 -6 4
3 10 12 8 12 10 -3 16 -20 7 -13 24 11 23 12 0 13 -2 3 -6z m26 -25 c-3 -7 -5
-2 -5 12 0 14 2 19 5 13 2 -7 2 -19 0 -25z m72 8 c0 -16 -2 -17 -7 -6 -4 8
-14 15 -22 15 -8 0 -18 -7 -22 -15 -5 -11 -7 -9 -7 7 -1 18 4 22 29 21 24 -1
30 -5 29 -22z m49 2 c-2 -13 -7 -21 -12 -20 -5 2 -13 -2 -17 -10 -6 -9 -9 -2
-9 20 0 26 4 32 21 32 15 0 20 -5 17 -22z m67 12 c3 -6 -1 -7 -9 -4 -10 4 -16
1 -16 -9 0 -8 6 -18 13 -20 9 -4 9 -6 0 -6 -16 -1 -26 17 -19 34 6 17 22 20
31 5z m103 -2 c9 -9 12 -9 12 0 0 15 26 16 35 2 10 -16 -15 -42 -29 -31 -7 6
-18 6 -26 1 -18 -11 -30 -4 -30 21 0 21 20 25 38 7z m98 3 c-4 -5 -1 -11 6
-13 14 -5 2 -28 -15 -28 -8 0 -8 3 1 9 11 7 10 9 -3 15 -17 6 -12 26 6 26 6 0
8 -4 5 -9z m122 -9 c12 -8 22 -10 22 -4 0 6 -6 13 -12 15 -10 4 -10 6 0 6 18
1 27 -29 12 -39 -17 -11 -40 -1 -40 16 0 20 -20 17 -21 -3 -1 -17 -2 -17 -6 0
-2 9 -8 17 -13 17 -5 0 -11 -8 -13 -17 -4 -14 -5 -13 -6 4 -1 19 4 22 27 21
15 -1 37 -8 50 -16z m339 -14 c-3 -7 -5 -2 -5 12 0 14 2 19 5 13 2 -7 2 -19 0
-25z m48 22 c4 -6 -1 -7 -11 -3 -12 4 -15 2 -12 -8 3 -8 11 -13 17 -11 7 1 10
-2 6 -7 -7 -13 -35 -2 -35 13 0 24 23 35 35 16z m78 -10 c3 -11 1 -20 -4 -20
-5 0 -9 8 -10 18 0 14 -2 14 -9 -3 -7 -17 -9 -17 -9 -2 -1 9 -5 17 -10 17 -5
0 -12 -8 -14 -17 -4 -14 -5 -12 -6 5 -1 18 4 22 28 22 20 0 30 -6 34 -20z m47
9 c0 -5 -4 -7 -10 -4 -5 3 -10 -1 -10 -10 0 -10 5 -13 12 -9 7 5 8 3 3 -5 -6
-10 -11 -10 -22 2 -9 8 -12 20 -9 26 9 14 36 14 36 0z m399 -11 c-1 -17 -2
-19 -6 -5 -2 9 -9 17 -14 17 -5 0 -9 -8 -10 -17 0 -15 -2 -15 -9 2 -6 14 -9
15 -9 5 -1 -9 -11 -16 -23 -17 -13 0 -17 1 -10 4 6 3 9 10 6 15 -4 7 -2 8 4 4
7 -4 12 -2 12 3 0 6 14 11 30 11 25 0 30 -4 29 -22z m46 -1 c0 -9 -4 -17 -9
-16 -5 0 -13 -5 -17 -13 -6 -8 -9 -2 -9 20 0 27 4 33 18 30 9 -2 17 -11 17
-21z m28 3 c-3 -11 -7 -20 -9 -20 -2 0 -4 9 -4 20 0 11 4 20 9 20 5 0 7 -9 4
-20z m75 1 c4 -11 7 -10 14 5 8 19 8 19 5 0 -3 -25 -27 -33 -28 -9 0 14 -2 15
-6 3 -3 -8 -11 -18 -17 -22 -14 -10 -36 10 -29 28 7 18 54 14 61 -5z m67 9 c3
-6 -1 -7 -9 -4 -18 7 -23 -21 -6 -29 6 -3 5 -4 -2 -3 -19 4 -23 46 -4 46 8 0
18 -4 21 -10z m145 -1 c0 -5 -4 -7 -10 -4 -5 3 -10 -1 -10 -10 0 -10 5 -13 12
-9 7 4 8 3 4 -5 -6 -8 -12 -9 -20 -2 -7 6 -16 7 -21 3 -4 -4 -2 3 4 16 12 22
41 31 41 11z m68 -11 c-2 -13 -7 -21 -12 -20 -5 2 -13 -2 -17 -10 -6 -9 -9 -5
-9 13 0 29 7 39 27 39 9 0 13 -8 11 -22z m25 2 c-3 -11 -7 -20 -9 -20 -2 0 -4
9 -4 20 0 11 4 20 9 20 5 0 7 -9 4 -20z m54 4 c8 -21 -13 -42 -28 -27 -13 13
-5 43 11 43 6 0 13 -7 17 -16z m85 -18 c7 4 8 2 4 -5 -11 -17 -26 -3 -25 22 2
22 2 22 6 -1 3 -13 9 -19 15 -16z m138 24 c5 8 10 11 10 5 0 -5 -5 -17 -10
-25 -9 -13 -11 -13 -20 0 -5 8 -10 20 -10 25 0 6 5 3 10 -5 9 -13 11 -13 20 0z
m91 0 c8 12 9 9 4 -10 -8 -29 -21 -46 -22 -28 0 7 -4 22 -8 33 -6 16 -5 17 4
5 10 -13 12 -13 22 0z m75 -14 c2 -12 1 -13 -3 -1 -7 24 -26 18 -20 -6 4 -16
3 -19 -5 -11 -14 14 -2 45 15 40 6 -3 13 -12 13 -22z m-209 -8 c-3 -8 -6 -5
-6 6 -1 11 2 17 5 13 3 -3 4 -12 1 -19z m-2470 -3 c0 -8 -4 -12 -9 -9 -5 3 -6
10 -3 15 9 13 12 11 12 -6z m899 -95 c8 0 14 -9 13 -22 -1 -17 -2 -19 -6 -5
-2 9 -8 17 -13 17 -5 0 -11 -8 -13 -17 -3 -10 -5 -2 -5 17 0 19 2 29 5 23 2
-7 11 -13 19 -13z m473 -12 c0 -27 -2 -29 -8 -13 -5 11 -6 26 -4 33 8 21 13
13 12 -20z m281 2 c0 -23 -4 -30 -20 -30 -13 0 -20 7 -20 20 0 11 7 20 15 20
8 0 15 5 15 10 0 6 2 10 5 10 3 0 5 -13 5 -30z m77 -17 c-3 -10 -5 -2 -5 17 0
19 2 27 5 18 2 -10 2 -26 0 -35z m169 0 c13 2 24 0 24 -4 0 -5 -13 -9 -30 -9
-22 0 -30 5 -31 18 0 14 -2 14 -9 -3 -7 -17 -9 -17 -9 -2 -1 9 -5 17 -10 17
-5 0 -12 -8 -14 -17 -3 -13 -5 -11 -6 6 -1 19 3 22 20 18 13 -4 23 0 27 11 5
13 8 10 10 -12 3 -24 7 -27 28 -23z m-1036 10 c0 -29 -12 -24 -17 7 -2 11 2
20 7 20 6 0 10 -12 10 -27z m96 5 c5 -8 2 -9 -9 -5 -10 3 -17 2 -17 -2 0 -5 6
-12 13 -14 7 -3 5 -6 -5 -6 -12 -1 -18 6 -18 19 0 22 24 27 36 8z m21 -20 c-3
-7 -5 -2 -5 12 0 14 2 19 5 13 2 -7 2 -19 0 -25z m20 0 c-3 -7 -5 -2 -5 12 0
14 2 19 5 13 2 -7 2 -19 0 -25z m81 15 c5 -17 -26 -29 -40 -15 -6 6 -7 15 -3
22 9 14 37 9 43 -7z m72 -14 c0 -21 -5 -29 -17 -29 -11 0 -14 3 -7 8 6 4 4 13
-7 24 -17 16 -18 16 -22 0 -4 -13 -5 -12 -6 4 -1 17 5 21 29 22 27 1 30 -3 30
-29z m48 8 c2 -12 -3 -17 -17 -17 -12 0 -21 4 -21 10 0 5 8 7 18 3 14 -5 13
-3 -3 11 -20 17 -20 17 0 14 11 -2 21 -11 23 -21z m41 1 c-1 -21 -2 -21 -7 -3
l-5 20 -8 -20 c-7 -19 -8 -19 -8 3 -1 13 5 22 14 22 9 0 15 -9 14 -22z m18
-10 c-3 -7 -5 -2 -5 12 0 14 2 19 5 13 2 -7 2 -19 0 -25z m40 12 c-1 -11 -8
-20 -15 -20 -11 0 -12 3 -3 14 9 11 9 15 -1 19 -9 4 -7 6 4 6 11 1 16 -6 15
-19z m45 5 c4 -5 4 -13 2 -17 -8 -12 -34 -10 -34 3 0 5 6 7 13 3 7 -5 7 -2 -2
10 -12 15 -12 17 0 14 8 -2 17 -7 21 -13z m45 -17 c-3 -7 -5 -2 -5 12 0 14 2
19 5 13 2 -7 2 -19 0 -25z m53 11 c0 -14 -5 -19 -17 -17 -26 5 -29 38 -4 38
15 0 21 -6 21 -21z m49 -1 c-1 -17 -2 -19 -6 -5 -2 9 -8 17 -13 17 -5 0 -11
-8 -13 -17 -4 -14 -5 -12 -6 5 -1 16 5 22 19 22 14 0 20 -6 19 -22z m61 0 c0
-10 -7 -18 -15 -18 -8 0 -15 5 -15 11 0 5 6 7 13 3 9 -6 9 -5 0 7 -10 13 -10
16 2 16 8 0 15 -9 15 -19z m49 0 c-1 -17 -2 -19 -6 -5 -2 9 -8 17 -13 17 -5 0
-11 -8 -13 -17 -4 -14 -5 -12 -6 5 -1 16 5 22 19 22 14 0 20 -6 19 -22z m101
12 c-13 -9 -13 -11 0 -21 13 -9 13 -10 0 -6 -22 6 -25 37 -3 37 15 0 16 -2 3
-10z m47 -22 c-3 -7 -5 -2 -5 12 0 14 2 19 5 13 2 -7 2 -19 0 -25z m53 22 c0
-5 -7 -7 -15 -4 -8 4 -15 1 -15 -4 0 -6 8 -13 18 -16 13 -4 13 -4 -3 -3 -28 3
-33 37 -6 37 12 0 21 -4 21 -10z m120 6 c0 -9 -30 -14 -35 -6 -4 6 3 10 14 10
12 0 21 -2 21 -4z m-2782 -469 c2 -10 -3 -17 -12 -17 -18 0 -29 16 -21 31 9
14 29 6 33 -14z m68 12 c10 -17 -13 -36 -27 -22 -12 12 -4 33 11 33 5 0 12 -5
16 -11z m-145 -22 c-10 -9 -11 -8 -5 6 3 10 9 15 12 12 3 -3 0 -11 -7 -18z
m397 -138 c-1 -20 -4 -26 -10 -17 -5 8 -11 9 -15 3 -10 -13 -36 -19 -29 -6 4
5 3 11 -1 14 -5 2 -2 2 5 1 21 -6 41 7 35 22 -3 8 0 14 5 14 6 0 10 -14 10
-31z m38 4 c-10 -10 -19 5 -10 18 6 11 8 11 12 0 2 -7 1 -15 -2 -18z m-319
-25 c-3 -8 -6 -5 -6 6 -1 11 2 17 5 13 3 -3 4 -12 1 -19z m20 0 c-3 -8 -6 -5
-6 6 -1 11 2 17 5 13 3 -3 4 -12 1 -19z m20 0 c-3 -8 -6 -5 -6 6 -1 11 2 17 5
13 3 -3 4 -12 1 -19z m63 8 c0 -9 -9 -14 -20 -13 -11 1 -20 5 -20 10 0 5 7 7
15 3 8 -3 15 -1 15 4 0 6 2 10 5 10 3 0 5 -6 5 -14z m17 -8 c-3 -8 -6 -5 -6 6
-1 11 2 17 5 13 3 -3 4 -12 1 -19z m62 9 c8 -10 7 -14 -4 -14 -8 0 -15 6 -15
14 0 7 2 13 4 13 2 0 9 -6 15 -13z m1906 3 c3 -5 1 -10 -4 -10 -6 0 -11 5 -11
10 0 6 2 10 4 10 3 0 8 -4 11 -10z m39 -2 c-3 -4 -9 -8 -15 -8 -5 0 -9 4 -9 8
0 5 7 9 15 9 8 0 12 -4 9 -9z m40 0 c-3 -4 -9 -8 -15 -8 -5 0 -9 4 -9 8 0 5 7
9 15 9 8 0 12 -4 9 -9z m76 2 c0 -5 -5 -10 -11 -10 -5 0 -7 5 -4 10 3 6 8 10
11 10 2 0 4 -4 4 -10z m28 -15 c-3 -3 -9 2 -12 12 -6 14 -5 15 5 6 7 -7 10
-15 7 -18z m-85 -32 c-13 -2 -35 -2 -50 0 -16 2 -5 4 22 4 28 0 40 -2 28 -4z
m-1666 -265 c-2 -29 -3 -6 -3 52 0 58 1 81 3 53 2 -29 2 -77 0 -105z m263 51
c0 -36 -2 -40 -22 -37 -17 2 -23 10 -23 28 0 15 5 24 13 23 6 -2 12 4 12 12 0
8 5 15 10 15 6 0 10 -18 10 -41z m-152 24 c-10 -2 -18 -9 -18 -14 0 -5 8 -10
18 -10 16 -1 16 -2 0 -6 -10 -2 -18 -11 -18 -19 0 -8 -4 -14 -10 -14 -5 0 -10
16 -10 35 0 32 3 35 28 34 16 -1 20 -3 10 -6z m220 0 c-10 -2 -18 -9 -18 -14
0 -5 8 -10 18 -10 16 -1 16 -2 0 -6 -10 -2 -18 -11 -18 -19 0 -8 -4 -14 -10
-14 -5 0 -10 16 -10 35 0 32 3 35 28 34 16 -1 20 -3 10 -6z m3506 -8 c5 13 10
15 17 8 16 -16 2 -33 -26 -31 -14 1 -25 3 -25 4 0 1 3 10 7 20 6 16 7 16 13
-1 6 -18 7 -18 14 0z m56 -11 c0 -8 -4 -14 -8 -14 -4 0 -8 9 -8 19 0 11 4 17
8 15 4 -3 8 -12 8 -20z m-4402 -5 c1 -9 -6 -15 -18 -16 -11 -1 -20 4 -20 11 0
29 32 33 38 5z m711 -17 c-2 -24 -2 -24 -6 -4 -2 12 -8 22 -13 22 -5 0 -11
-10 -13 -22 -4 -20 -4 -20 -6 4 -1 25 15 41 32 31 4 -2 6 -16 6 -31z m191 2
c0 -17 -6 -24 -19 -24 -27 0 -35 17 -14 29 11 6 13 11 5 11 -7 0 -11 4 -7 10
10 17 35 -1 35 -26z m35 19 c-3 -8 -5 -21 -5 -29 0 -8 -4 -14 -10 -14 -5 0
-10 13 -10 28 0 19 5 29 15 29 10 0 14 -6 10 -14z m82 -19 c1 -20 0 -22 -4 -6
-2 12 -9 22 -14 22 -5 0 -10 -10 -10 -22 l-2 -23 -4 23 c-2 12 -8 22 -13 22
-5 0 -11 -10 -13 -22 -4 -20 -4 -20 -6 4 -1 27 9 35 44 33 15 -1 20 -9 22 -31z
m63 0 c0 -27 -21 -32 -40 -9 -10 12 -10 18 0 29 16 21 40 9 40 -20z m35 19
c-3 -8 -5 -21 -5 -29 0 -8 -4 -14 -10 -14 -5 0 -10 13 -10 28 0 19 5 29 15 29
10 0 14 -6 10 -14z m-468 -30 c-3 -10 -5 -4 -5 12 0 17 2 24 5 18 2 -7 2 -21
0 -30z m3063 -518 l0 -115 -395 0 -395 0 0 115 0 115 395 0 395 0 0 -115z"/>
<path d="M490 3046 c0 -9 5 -16 10 -16 6 0 10 4 10 9 0 6 -4 13 -10 16 -5 3
-10 -1 -10 -9z"/>
<path d="M540 3045 c0 -8 5 -15 10 -15 6 0 10 7 10 15 0 8 -4 15 -10 15 -5 0
-10 -7 -10 -15z"/>
<path d="M3630 2265 c0 -23 4 -26 28 -23 19 2 27 9 27 23 0 14 -8 21 -27 23
-24 3 -28 0 -28 -23z"/>
<path d="M2425 2221 c-9 -30 4 -63 23 -59 12 2 17 14 17 38 0 40 -29 55 -40
21z"/>
<path d="M2900 2230 c0 -5 9 -10 21 -10 11 0 17 5 14 10 -3 6 -13 10 -21 10
-8 0 -14 -4 -14 -10z"/>
<path d="M1500 1950 c0 -5 5 -10 10 -10 6 0 10 5 10 10 0 6 -4 10 -10 10 -5 0
-10 -4 -10 -10z"/>
<path d="M2530 1924 c0 -8 5 -12 10 -9 6 3 10 10 10 16 0 5 -4 9 -10 9 -5 0
-10 -7 -10 -16z"/>
<path d="M3095 1931 c-3 -5 -1 -12 5 -16 5 -3 10 1 10 9 0 18 -6 21 -15 7z"/>
<path d="M3140 1931 c0 -6 5 -13 10 -16 6 -3 10 1 10 9 0 9 -4 16 -10 16 -5 0
-10 -4 -10 -9z"/>
<path d="M3242 1931 c2 -7 7 -12 11 -12 12 1 9 15 -3 20 -7 2 -11 -2 -8 -8z"/>
<path d="M3920 1924 c0 -8 5 -12 10 -9 6 3 10 10 10 16 0 5 -4 9 -10 9 -5 0
-10 -7 -10 -16z"/>
<path d="M2060 1931 c0 -6 5 -13 10 -16 6 -3 10 1 10 9 0 9 -4 16 -10 16 -5 0
-10 -4 -10 -9z"/>
<path d="M2230 1924 c0 -8 5 -12 10 -9 6 3 10 10 10 16 0 5 -4 9 -10 9 -5 0
-10 -7 -10 -16z"/>
<path d="M2275 1931 c-6 -11 9 -23 19 -14 9 9 7 23 -3 23 -6 0 -12 -4 -16 -9z"/>
<path d="M3410 1931 c0 -6 5 -13 10 -16 6 -3 10 1 10 9 0 9 -4 16 -10 16 -5 0
-10 -4 -10 -9z"/>
<path d="M3490 1924 c0 -8 5 -12 10 -9 6 3 10 10 10 16 0 5 -4 9 -10 9 -5 0
-10 -7 -10 -16z"/>
<path d="M3790 1931 c0 -6 5 -13 10 -16 6 -3 10 1 10 9 0 9 -4 16 -10 16 -5 0
-10 -4 -10 -9z"/>
<path d="M3870 1925 c0 -8 5 -15 10 -15 6 0 10 7 10 15 0 8 -4 15 -10 15 -5 0
-10 -7 -10 -15z"/>
<path d="M3230 1800 c0 -5 5 -10 10 -10 6 0 10 5 10 10 0 6 -4 10 -10 10 -5 0
-10 -4 -10 -10z"/>
<path d="M2660 1800 c0 -5 5 -10 10 -10 6 0 10 5 10 10 0 6 -4 10 -10 10 -5 0
-10 -4 -10 -10z"/>
<path d="M2730 1800 c0 -5 5 -10 10 -10 6 0 10 5 10 10 0 6 -4 10 -10 10 -5 0
-10 -4 -10 -10z"/>
<path d="M3020 1800 c0 -5 5 -10 10 -10 6 0 10 5 10 10 0 6 -4 10 -10 10 -5 0
-10 -4 -10 -10z"/>
<path d="M1541 914 c0 -11 3 -14 6 -6 3 7 2 16 -1 19 -3 4 -6 -2 -5 -13z"/>
<path d="M3874 373 c-9 -26 -11 -26 -76 -24 l-68 2 0 -35 0 -36 385 0 385 0 0
34 0 35 -96 3 c-52 2 -98 0 -102 -3 -4 -4 -18 -2 -32 4 -23 9 -23 10 -5 15 11
2 23 9 27 16 5 7 8 6 8 -4 0 -13 1 -13 10 0 6 10 10 11 10 3 0 -7 7 -13 15
-13 8 0 15 7 15 15 0 12 -14 15 -70 15 -49 0 -70 -4 -70 -12 0 -10 -3 -10 -9
0 -9 15 -46 13 -46 -3 0 -6 10 -11 23 -13 12 -2 22 -10 22 -18 0 -9 -5 -12
-12 -8 -14 9 -128 12 -128 4 0 -3 -17 -5 -37 -4 -21 0 -44 -4 -52 -10 -12 -9
-13 -8 -8 7 8 21 3 22 -17 1 -10 -10 -16 -11 -16 -4 0 7 -7 10 -15 6 -9 -3
-15 0 -15 9 0 18 26 20 33 3 4 -10 6 -10 6 0 1 6 12 12 25 12 13 0 27 -6 29
-12 4 -10 6 -10 6 0 1 8 22 12 71 12 55 0 70 3 70 15 0 12 -16 14 -82 14 -52
0 -86 -5 -90 -12 -6 -9 -8 -9 -8 1 0 7 -14 12 -38 12 -32 0 -40 -4 -48 -27z
m8 -35 c-8 -8 -9 -4 -5 13 4 13 8 18 11 10 2 -7 -1 -18 -6 -23z m362 16 c4 -9
4 -19 1 -22 -3 -3 -5 0 -5 6 0 7 -5 11 -11 10 -6 -2 -14 3 -16 10 -3 6 2 12
10 12 8 0 18 -7 21 -16z"/>
</g>
</svg>
