<?xml version="1.0" standalone="no"?>
<!DOCTYPE svg PUBLIC "-//W3C//DTD SVG 20010904//EN"
 "http://www.w3.org/TR/2001/REC-SVG-20010904/DTD/svg10.dtd">
<svg version="1.0" xmlns="http://www.w3.org/2000/svg"
 width="600.000000pt" height="331.000000pt" viewBox="0 0 600.000000 331.000000"
 preserveAspectRatio="xMidYMid meet">

<g transform="translate(0.000000,331.000000) scale(0.100000,-0.100000)"
fill="#000000" stroke="none">
<path d="M0 1655 l0 -1655 3000 0 3000 0 0 1655 0 1655 -3000 0 -3000 0 0
-1655z m4920 1555 c0 -5 -4 -10 -10 -10 -5 0 -10 -11 -10 -24 0 -14 5 -28 10
-31 6 -3 10 -10 10 -16 0 -12 -47 -12 -55 1 -3 6 -1 10 4 10 15 0 14 53 -1 68
-9 9 -5 12 20 12 18 0 32 -4 32 -10z m230 0 c0 -5 -9 -10 -20 -10 -27 0 -25
-18 3 -23 l22 -4 -22 -8 c-13 -4 -23 -13 -23 -21 0 -7 -4 -16 -10 -19 -6 -4
-10 13 -10 44 0 50 1 51 30 51 17 0 30 -4 30 -10z m360 -11 c11 -8 12 -12 3
-16 -7 -2 -13 -13 -13 -23 0 -10 6 -20 13 -23 6 -2 9 -8 5 -12 -13 -14 -38 4
-38 29 0 13 -6 27 -12 29 -10 4 -9 8 2 16 8 6 17 11 20 11 3 0 12 -5 20 -11z
m-512 -43 c2 -25 0 -36 -7 -31 -6 3 -11 17 -11 31 0 13 -4 24 -10 24 -5 0 -10
-11 -10 -24 0 -14 -4 -28 -10 -31 -6 -4 -10 10 -10 35 0 39 1 41 28 38 24 -3
27 -8 30 -42z m222 29 c15 -19 -1 -65 -23 -65 -18 0 -37 21 -37 40 0 36 38 51
60 25z m80 5 c0 -5 -7 -10 -15 -10 -9 0 -15 -9 -15 -24 0 -14 -4 -28 -10 -31
-6 -4 -10 10 -10 34 0 37 2 41 25 41 14 0 25 -4 25 -10z m69 -4 c14 -17 -2
-66 -22 -66 -18 0 -37 21 -37 40 0 34 38 51 59 26z m66 6 c17 -11 16 -59 0
-66 -25 -9 -42 4 -43 32 0 41 16 54 43 34z m145 -2 c0 -5 -4 -10 -10 -10 -5 0
-10 5 -10 10 0 6 5 10 10 10 6 0 10 -4 10 -10z m0 -56 c0 -8 -5 -12 -10 -9 -6
4 -8 11 -5 16 9 14 15 11 15 -7z m-660 -169 c0 -17 -5 -25 -17 -24 -11 0 -13
3 -5 6 6 2 12 13 12 24 0 10 2 19 5 19 3 0 5 -11 5 -25z m32 0 c-2 -14 -6 -25
-7 -25 -1 0 -5 11 -7 25 -3 16 -1 25 7 25 8 0 10 -9 7 -25z m220 0 c-2 -14 -6
-25 -7 -25 -1 0 -5 11 -7 25 -3 16 -1 25 7 25 8 0 10 -9 7 -25z m47 -14 c-1
-11 -3 -10 -7 4 l-5 20 -8 -20 c-6 -17 -8 -16 -8 9 -1 24 1 27 14 16 8 -7 14
-20 14 -29z m76 29 c4 -6 10 -8 15 -5 4 3 13 -2 20 -10 15 -18 18 -16 -47 -20
-38 -2 -53 0 -53 9 0 20 12 27 27 15 10 -9 13 -8 13 5 0 18 15 22 25 6z m-268
-20 c-2 -27 -57 -29 -57 -2 0 14 2 15 10 2 9 -13 10 -13 10 0 0 13 1 13 10 0
9 -13 14 -7 11 13 0 4 3 7 8 7 6 0 9 -9 8 -20z m40 0 c-1 -11 -7 -20 -13 -20
-7 0 -10 8 -7 20 3 11 9 20 14 20 4 0 7 -9 6 -20z m33 0 c-9 -6 -9 -9 1 -13
10 -4 9 -6 -3 -6 -10 -1 -18 5 -18 12 0 18 11 28 22 20 6 -3 5 -9 -2 -13z m33
0 c-3 -12 -8 -19 -11 -16 -5 6 5 36 12 36 2 0 2 -9 -1 -20z m237 -6 c0 -8 -6
-14 -14 -14 -12 0 -14 10 -7 38 3 10 21 -11 21 -24z m40 0 c0 -8 -7 -14 -15
-14 -15 0 -21 21 -9 33 10 9 24 -2 24 -19z m-490 -139 c0 -16 -6 -25 -15 -25
-8 0 -15 5 -15 11 0 5 5 7 10 4 6 -3 10 3 10 14 0 12 2 21 5 21 3 0 5 -11 5
-25z m124 -7 c4 -7 4 -3 2 10 -2 12 1 22 7 22 7 0 12 -11 12 -25 0 -29 -11
-32 -37 -8 -15 13 -18 13 -18 2 0 -8 -9 -15 -20 -16 -22 -2 -27 21 -8 33 7 4
8 3 4 -4 -4 -7 -2 -12 3 -12 6 0 11 7 11 15 0 12 4 13 19 5 11 -5 22 -15 25
-22z m151 18 c23 -3 34 -36 12 -36 -8 0 -21 7 -28 16 -12 14 -14 14 -20 -3 -6
-15 -8 -14 -9 7 -1 22 -2 23 -9 6 -7 -19 -8 -19 -14 3 -5 21 -3 22 21 17 15
-4 36 -8 47 -10z m56 5 c6 10 9 10 9 2 0 -7 6 -10 14 -7 18 7 31 -15 18 -28
-8 -8 -16 -7 -27 2 -11 9 -15 9 -15 1 0 -7 -4 -9 -10 -6 -5 3 -10 16 -9 28 0
13 3 16 6 8 5 -11 7 -11 14 0z m119 -16 c0 -16 -6 -25 -15 -25 -18 0 -20 21
-3 38 17 17 18 16 18 -13z m-418 -17 c-15 -15 -26 -4 -18 18 5 13 9 15 18 6 9
-9 9 -15 0 -24z m154 8 c2 -14 1 -14 -3 1 -5 16 -6 16 -14 -2 -7 -19 -8 -18
-8 3 -1 27 23 25 25 -2z m217 4 c3 -11 1 -20 -4 -20 -5 0 -9 9 -9 20 0 11 2
20 4 20 2 0 6 -9 9 -20z m-318 -515 c17 1 33 -3 37 -9 5 -7 8 -4 8 6 0 11 5
15 15 12 8 -4 15 -16 15 -28 0 -17 -2 -18 -10 -6 -5 8 -10 10 -10 5 0 -15 -41
-16 -59 -2 -9 7 -12 8 -8 1 4 -7 -5 -11 -23 -12 -17 0 -30 4 -30 9 0 6 5 7 10
4 6 -3 10 4 10 17 0 13 4 18 8 13 4 -6 21 -10 37 -10z m108 -7 c-5 -22 -5 -22
9 -4 17 21 38 14 38 -12 0 -15 -2 -15 -10 -2 -6 10 -10 11 -10 3 0 -7 -10 -13
-22 -13 -18 0 -23 6 -23 25 0 14 5 25 12 25 6 0 9 -9 6 -22z m110 7 c11 -10
17 -11 19 -3 5 15 28 1 28 -18 0 -17 -40 -16 -52 1 -5 6 -8 4 -9 -5 0 -8 -4
-4 -9 10 l-7 25 -10 -24 -10 -25 -5 27 c-4 23 -2 27 18 27 12 0 29 -7 37 -15z
m81 -10 c-4 -11 -8 -22 -10 -24 -6 -6 -11 1 -18 24 -5 16 -1 21 14 21 15 0 19
-5 14 -21z m80 -3 c12 28 36 31 36 4 0 -22 -4 -23 -55 -23 -39 0 -55 3 -55 13
0 22 21 27 36 8 13 -16 15 -16 11 -2 -3 9 -3 19 1 23 4 4 10 -4 13 -17 5 -19
7 -20 13 -6z m-319 -152 c37 0 42 -3 38 -18 -3 -13 -13 -18 -36 -16 -18 1 -42
2 -54 3 -16 1 -23 7 -23 22 0 15 4 19 16 15 9 -3 35 -6 59 -6z m220 -18 c2
-29 -19 -22 -23 7 -3 15 1 22 9 19 7 -2 13 -14 14 -26z m225 14 c0 -8 -5 -18
-12 -22 -7 -5 -9 -2 -5 9 3 9 1 18 -6 21 -7 2 -4 5 6 5 9 1 17 -5 17 -13z
m-334 -13 c-4 -25 -26 -28 -26 -4 0 12 6 21 14 21 8 0 13 -8 12 -17z m68 1 c8
-22 8 -24 -7 -24 -7 0 -13 9 -13 20 0 24 11 26 20 4z m153 -2 c-2 -10 -9 -16
-17 -14 -7 2 -17 -3 -22 -10 -6 -10 -10 -10 -18 2 -18 27 -11 38 26 38 27 0
34 -4 31 -16z m34 1 c1 -17 2 -17 6 0 5 19 28 23 38 6 9 -13 6 -15 -32 -24
-28 -6 -32 -4 -30 14 2 25 17 28 18 4z m-3626 -50 c63 -27 65 -29 65 -65 l0
-38 -70 0 c-68 0 -70 -1 -70 -25 0 -24 2 -25 70 -25 l70 0 0 -35 c0 -35 0 -35
45 -35 l45 0 0 37 c0 50 6 39 15 -27 8 -64 7 -102 -4 -150 l-9 -35 -1 33 c-1
31 -2 32 -46 32 -45 0 -45 0 -45 -35 l0 -35 -194 0 -194 0 -6 64 c-4 35 -4 91
0 125 l7 61 68 0 c67 0 69 1 69 25 0 24 -2 25 -70 25 l-70 0 0 35 c0 34 3 37
63 65 85 41 171 42 262 3z m3225 -133 c0 -26 -17 -34 -29 -13 -6 10 -11 12
-11 6 0 -17 -30 -17 -30 0 0 20 7 24 40 25 23 0 30 -4 30 -18z m79 6 c8 -10 8
-16 -2 -25 -16 -13 -27 -5 -27 21 0 21 13 23 29 4z m31 -8 c0 -18 -2 -20 -9
-8 -6 8 -7 18 -5 22 9 14 14 9 14 -14z m80 13 c0 -6 -5 -13 -11 -17 -8 -4 -7
-9 2 -15 11 -7 10 -9 -3 -9 -20 0 -24 15 -7 26 8 4 7 9 -2 15 -11 7 -10 9 4 9
9 0 17 -4 17 -9z m35 -14 c0 -24 -20 -21 -21 3 -1 12 4 19 10 17 6 -2 11 -11
11 -20z m75 4 c0 -11 -5 -23 -12 -27 -7 -4 -8 -3 -4 4 4 7 2 12 -3 12 -6 0
-11 7 -11 15 0 8 7 15 15 15 8 0 15 -9 15 -19z m68 -6 c-3 -28 -11 -24 -13 5
-1 11 2 20 7 20 4 0 7 -11 6 -25z m157 2 c0 -20 -18 -24 -23 -5 -2 9 0 8 7 -2
7 -9 11 -10 11 -3 0 22 -19 24 -30 3 -13 -24 -30 -18 -30 10 0 16 6 19 33 17
23 -2 32 -8 32 -20z m73 1 c-2 -13 -7 -23 -13 -23 -5 0 -11 10 -13 23 -2 15 2
22 13 22 11 0 15 -7 13 -22z m39 16 c-3 -3 -12 -4 -19 -1 -8 3 -5 6 6 6 11 1
17 -2 13 -5z m-662 -267 c29 3 34 0 32 -17 -2 -25 -17 -27 -18 -2 -1 16 -2 16
-6 0 -5 -19 -53 -22 -53 -3 0 5 -5 3 -10 -5 -8 -12 -10 -10 -10 8 0 13 4 20
10 17 6 -3 10 0 11 7 0 8 2 9 5 2 3 -6 20 -10 39 -7z m118 -3 c20 0 37 4 37 8
0 4 7 5 15 2 8 -4 13 -10 10 -14 -3 -5 -1 -11 5 -15 5 -3 10 1 10 10 0 23 24
13 28 -11 3 -16 1 -16 -7 -4 -8 11 -11 12 -11 2 0 -7 -8 -12 -17 -11 -10 1
-27 -2 -37 -6 -12 -5 -21 -5 -23 1 -2 6 -21 9 -43 7 -28 -2 -40 1 -40 10 0 17
22 39 29 29 3 -5 23 -8 44 -8z m150 -10 c4 11 13 16 22 12 8 -3 15 -1 15 5 0
6 6 7 16 1 9 -5 24 -7 33 -5 12 3 17 -2 17 -16 0 -23 -12 -28 -19 -8 -4 9 -8
8 -16 -3 -9 -13 -11 -13 -11 -1 0 12 -3 11 -13 -2 -18 -26 -75 -13 -72 16 4
33 6 34 14 7 6 -22 8 -23 14 -6z m-234 -161 c6 -10 11 -12 11 -5 0 6 11 12 25
12 18 0 25 -5 25 -19 0 -17 -7 -19 -49 -17 -28 1 -53 5 -57 9 -4 4 -2 7 4 7 7
0 12 7 12 15 0 20 17 19 29 -2z m96 -13 c2 -21 -10 -27 -20 -10 -8 13 3 45 12
36 4 -3 7 -15 8 -26z m107 6 c4 -22 1 -24 -24 -24 -33 1 -45 15 -29 31 8 8 15
6 27 -9 12 -15 14 -15 11 -2 -5 13 0 28 9 28 1 0 4 -11 6 -24z m73 -8 c2 -19
1 -19 -10 -4 -16 21 -29 21 -21 0 4 -10 1 -14 -6 -12 -24 8 -20 36 4 40 29 5
31 3 33 -24z m216 19 c14 4 19 0 19 -15 0 -15 -6 -20 -25 -18 -15 0 -25 7 -26
16 0 10 -3 8 -9 -5 -8 -18 -9 -17 -9 8 -1 23 2 26 15 19 9 -5 25 -7 35 -5z
m-173 -20 c2 -9 -3 -17 -10 -17 -8 0 -14 9 -14 20 0 24 20 21 24 -3z m82 3 c0
-22 -22 -39 -28 -22 -2 7 -8 10 -13 6 -5 -3 -9 3 -10 13 0 16 -1 16 -9 -2 -8
-19 -9 -19 -9 2 -1 18 5 21 34 21 27 0 35 -4 35 -18z m185 10 c2 -3 -1 -12 -6
-20 -8 -13 -11 -12 -23 3 -7 9 -16 17 -19 17 -3 0 -8 -8 -10 -17 -4 -14 -5
-13 -6 4 -1 18 4 22 29 21 17 -1 33 -4 35 -8z m-603 -85 c-2 -14 -8 -25 -13
-25 -5 0 -9 11 -9 25 0 14 6 25 14 25 9 0 12 -8 8 -25z m184 9 c-3 -9 -6 -21
-7 -27 0 -7 -4 -3 -8 8 -9 22 -5 35 11 35 5 0 7 -7 4 -16z m113 9 c-5 -30 2
-35 17 -14 11 15 20 19 26 13 18 -18 1 -39 -30 -40 -24 0 -29 3 -27 21 3 26 3
27 10 27 3 0 4 -3 4 -7z m149 -19 c-7 -15 -14 -21 -16 -15 -5 16 5 41 17 41 7
0 6 -10 -1 -26z m105 -5 c-6 -21 -6 -21 -21 -3 -13 16 -14 17 -9 2 4 -10 2
-18 -3 -18 -6 0 -10 2 -10 4 0 2 -3 11 -6 19 -4 11 2 17 18 19 32 5 37 1 31
-23z m137 11 c7 11 11 11 24 1 11 -9 16 -10 16 -2 0 6 4 11 9 11 5 0 7 -8 4
-18 -7 -27 -93 -29 -93 -2 0 23 24 33 29 12 2 -12 5 -12 11 -2z m91 6 c5 3 9
-3 9 -14 0 -10 -7 -19 -15 -19 -10 0 -15 10 -14 26 0 14 3 20 6 13 2 -6 9 -10
14 -6z m-698 -10 c7 -16 -1 -26 -20 -26 -7 0 -13 9 -13 20 0 23 25 27 33 6z
m74 -1 c7 -20 -2 -29 -21 -22 -9 4 -13 13 -10 22 8 19 23 19 31 0z m66 -5 c-3
-11 -9 -20 -14 -20 -10 0 -12 24 -2 33 13 13 21 7 16 -13z m45 -3 c2 -10 -3
-17 -12 -17 -10 0 -16 9 -16 21 0 24 23 21 28 -4z m150 0 c2 -10 -3 -17 -12
-17 -18 0 -29 16 -21 31 9 14 29 6 33 -14z m186 15 c8 -13 -7 -29 -26 -29 -21
0 -24 23 -5 30 19 8 25 8 31 -1z m-594 -197 c0 -19 -5 -22 -29 -21 -16 1 -33
4 -37 8 -14 15 6 35 35 35 25 0 31 -4 31 -22z m76 10 c6 -14 8 -13 20 2 12 17
13 16 14 -7 0 -21 -5 -25 -30 -26 -25 -1 -30 3 -30 22 0 27 17 32 26 9z m109
6 c3 -5 0 -13 -6 -17 -7 -4 -9 -3 -5 4 3 5 0 13 -6 15 -9 4 -10 6 -1 6 6 1 14
-3 18 -8z m40 -16 c0 -10 -6 -20 -12 -22 -8 -3 -13 5 -13 22 0 17 5 25 13 23
6 -3 12 -13 12 -23z m75 0 c0 -8 -4 -16 -9 -19 -5 -4 -7 4 -4 16 4 19 3 20 -6
8 -6 -8 -11 -10 -11 -4 0 6 3 14 6 17 10 9 24 -2 24 -18z m189 8 c10 -17 10
-17 11 0 0 10 6 17 13 15 6 -3 12 -13 12 -24 0 -14 -8 -19 -32 -20 -29 -1 -33
2 -33 22 0 28 15 31 29 7z m108 -17 c-4 -9 -12 -16 -19 -16 -9 0 -10 3 -2 8 6
4 10 15 8 26 -2 13 1 15 8 8 6 -6 8 -18 5 -26z m38 9 c0 -10 -6 -20 -12 -22
-8 -3 -13 5 -13 22 0 17 5 25 13 23 6 -3 12 -13 12 -23z m-377 -10 c-3 -3 -9
2 -12 12 -6 14 -5 15 5 6 7 -7 10 -15 7 -18z m109 0 c0 -8 -4 -15 -9 -15 -10
0 -11 14 -1 23 9 10 10 9 10 -8z m-180 -11 c-3 -3 -12 -4 -19 -1 -8 3 -5 6 6
6 11 1 17 -2 13 -5z m-288 -133 c9 -6 10 -11 2 -15 -6 -4 -11 -3 -11 3 0 5 -8
12 -17 14 -13 3 -14 5 -3 6 8 0 21 -3 29 -8z m60 0 c9 -6 10 -11 2 -15 -6 -4
-11 -3 -11 3 0 5 -8 12 -17 14 -13 3 -14 5 -3 6 8 0 21 -3 29 -8z m60 0 c9 -6
10 -11 2 -15 -6 -4 -11 -3 -11 3 0 5 -8 12 -17 14 -13 3 -14 5 -3 6 8 0 21 -3
29 -8z m624 -78 c-150 -2 -396 -2 -545 0 -150 1 -28 2 272 2 300 0 422 -1 273
-2z m-175 -364 l-3 -104 -89 0 c-51 0 -91 4 -93 10 -2 6 28 9 82 7 l85 -3 0
107 c0 75 3 105 10 98 7 -7 10 -52 8 -115z m-103 24 c7 -17 8 -16 15 2 7 16 9
13 9 -15 l1 -35 -19 24 -19 25 -5 -25 c-3 -20 -5 -18 -6 9 -1 34 12 43 24 15z
m-70 -244 l0 -104 -99 -3 c-59 -2 -103 1 -110 8 -7 7 22 10 93 10 l102 0 -3
100 c-2 64 1 99 7 97 6 -2 10 -47 10 -108z m365 1 l0 -110 -90 0 c-53 0 -90 4
-90 10 0 6 33 10 80 10 l80 0 0 100 c0 60 4 100 10 100 6 0 10 -43 10 -110z
m-486 19 l9 25 14 -28 c8 -15 12 -30 9 -33 -3 -3 -10 5 -14 18 l-9 24 -8 -24
c-5 -18 -9 -21 -16 -10 -5 8 -8 23 -8 34 1 16 2 15 8 -5 l7 -25 8 24z m43 -1
c-3 -8 -6 -5 -6 6 -1 11 2 17 5 13 3 -3 4 -12 1 -19z m348 12 l-20 -9 20 -1
c17 -2 17 -3 3 -7 -10 -2 -18 -8 -18 -13 0 -5 8 -11 18 -13 13 -4 11 -5 -5 -6
-19 -1 -23 4 -23 29 0 25 4 30 23 29 21 0 21 -1 2 -9z m-100 -255 l0 -110 -84
-3 c-49 -2 -88 1 -95 8 -7 7 17 10 77 10 l87 0 0 100 0 99 -62 4 -63 4 70 -1
70 -1 0 -110z m-81 36 c4 -5 -3 -7 -14 -4 -23 6 -26 13 -6 13 8 0 17 -4 20 -9z
m6 -37 c0 -11 -5 -10 -20 3 -11 10 -20 18 -20 19 0 1 9 0 20 -3 11 -3 20 -12
20 -19z"/>
<path d="M5182 3166 c1 -10 8 -17 13 -17 15 1 12 24 -3 29 -9 3 -13 -2 -10
-12z"/>
<path d="M5283 2965 c0 -8 4 -12 9 -9 5 3 6 10 3 15 -9 13 -12 11 -12 -6z"/>
<path d="M1640 1820 c-25 -25 -25 -42 -2 -63 25 -23 58 -21 76 4 16 23 12 47
-12 67 -22 17 -39 15 -62 -8z"/>
<path d="M5091 1924 c0 -11 3 -14 6 -6 3 7 2 16 -1 19 -3 4 -6 -2 -5 -13z"/>
<path d="M5005 1231 c-3 -5 -2 -12 3 -15 5 -3 9 1 9 9 0 17 -3 19 -12 6z"/>
</g>
</svg>
